<svg width="209" height="138" viewBox="0 0 209 138" fill="none" xmlns="http://www.w3.org/2000/svg">
<path fill-rule="evenodd" clip-rule="evenodd" d="M42 138H174V0H42V138Z" fill="white" fill-opacity="0.39"/>
<path fill-rule="evenodd" clip-rule="evenodd" d="M73.9381 74.6414C73.9381 56.8929 87.7005 42.505 104.677 42.505C121.654 42.505 135.416 56.8929 135.416 74.6414C135.416 92.3896 121.654 106.778 104.677 106.778C87.7005 106.778 73.9381 92.3896 73.9381 74.6414Z" fill="#0BCBFF"/>
<path fill-rule="evenodd" clip-rule="evenodd" d="M112.507 60.8203C118.103 62.6764 125.114 63.788 129.423 61.5697C133.732 59.3517 140.324 53.7547 143.645 58.6009C147.594 64.3638 135.546 78.2352 118.99 78.919C118.99 78.919 92.4571 114.152 84.312 106.497C79.9887 102.433 87.7417 94.7818 87.7417 94.7818L86.6926 76.0435C86.6926 76.0435 82.2446 75.7074 82.2297 71.1455C82.2096 64.8893 89.7818 53.2831 112.507 60.8203Z" fill="#EA5656"/>
<path d="M99.0756 58.4358C93.4029 58.4358 89.6706 60.1204 87.2909 61.9476C83.6075 64.7759 82.304 68.5533 82.3122 71.1453C82.3268 75.5761 86.655 75.9542 86.6986 75.9573L86.7709 75.9628L86.7752 76.0384L87.8265 94.8171L87.7985 94.8447C87.751 94.8916 83.0382 99.5891 83.0838 103.501C83.0973 104.658 83.5293 105.645 84.3675 106.433C85.2327 107.246 86.3594 107.598 87.7133 107.475C97.9635 106.553 118.717 79.1423 118.925 78.8657L118.949 78.8346L118.987 78.8329C125.923 78.5462 131.301 76.0139 134.591 73.9398C138.676 71.3657 141.891 68.0223 143.414 64.7669C144.553 62.3312 144.611 60.1598 143.578 58.6511C140.935 54.795 136.062 57.7361 132.147 60.099C131.19 60.6766 130.286 61.222 129.459 61.6474C124.249 64.3291 115.851 62.02 112.481 60.9025C107.119 59.1241 102.701 58.4358 99.0756 58.4358ZM87.1992 107.671C86.03 107.671 85.0423 107.299 84.2569 106.561C83.3831 105.739 82.933 104.711 82.9188 103.503C82.8746 99.6754 87.2626 95.1462 87.6572 94.747L86.6144 76.1215C86.0333 76.0501 82.1611 75.4119 82.1472 71.1459C82.1387 68.5115 83.46 64.6751 87.1936 61.8082C91.1242 58.7901 98.7109 56.1547 112.532 60.7383C115.881 61.8492 124.23 64.1469 129.387 61.4925C130.208 61.0699 131.11 60.5258 132.064 59.9497C136.038 57.5516 140.982 54.5673 143.712 58.5507C144.782 60.1132 144.729 62.3474 143.562 64.8428C142.026 68.1272 138.787 71.4968 134.677 74.0878C131.376 76.1681 125.984 78.708 119.031 79.0037C118.641 79.5187 113.54 86.2224 107.316 92.9492C98.6535 102.312 92.0631 107.257 87.7275 107.647C87.5477 107.663 87.3715 107.671 87.1992 107.671Z" fill="#0F227A"/>
<path d="M99.0739 58.9926C93.5441 58.9926 89.9164 60.6245 87.6074 62.3974C84.0814 65.105 82.8389 68.801 82.8465 71.1432C82.8591 75.0393 86.5805 75.3877 86.7389 75.4005C87.0461 75.4257 87.2903 75.6841 87.3085 76.0056L88.3575 94.7443C88.3684 94.9344 88.2978 95.1197 88.1655 95.2504C88.1196 95.2959 83.5742 99.831 83.6181 103.495C83.6303 104.504 83.992 105.329 84.7246 106.017C85.4862 106.733 86.4485 107.028 87.6675 106.919C97.6879 106.018 118.298 78.7953 118.506 78.5203C118.617 78.372 118.785 78.2823 118.966 78.275C130.158 77.8124 139.941 70.9189 142.934 64.5216C143.983 62.2794 144.057 60.3098 143.143 58.9764C140.783 55.5316 136.337 58.215 132.414 60.5827C131.449 61.1651 130.537 61.715 129.695 62.1483C124.311 64.9194 115.751 62.5727 112.32 61.4349C107.007 59.673 102.644 58.9926 99.0739 58.9926ZM87.1946 108.23C85.8928 108.23 84.7866 107.809 83.8999 106.976C82.9105 106.046 82.4007 104.88 82.3849 103.509C82.3406 99.7295 86.1535 95.5212 87.1098 94.5259L86.1069 76.6139C84.3088 76.2737 81.6252 74.8354 81.613 71.1477C81.6041 68.3759 82.9822 64.3491 86.8771 61.3583C90.9078 58.263 98.6585 55.5509 112.693 60.206C119.541 62.4771 125.693 62.7707 129.151 60.9916C129.956 60.5769 130.85 60.0373 131.797 59.4656C133.813 58.2492 136.098 56.8702 138.226 56.3061C140.812 55.6213 142.804 56.2668 144.146 58.2254C145.336 59.9624 145.299 62.3999 144.042 65.0881C142.462 68.4663 139.149 71.9208 134.953 74.5659C131.637 76.6556 126.246 79.2014 119.299 79.5505C117.114 82.424 97.9288 107.29 87.7734 108.203C87.5764 108.221 87.3834 108.23 87.1946 108.23Z" fill="#0F227A"/>
<path fill-rule="evenodd" clip-rule="evenodd" d="M89.863 74.7885C89.863 74.7885 86.1165 74.4259 84.7262 78.1719C83.3356 81.9179 85.8937 84.1569 85.8937 84.1569C85.8937 84.1569 82.8822 92.4611 87.4626 94.6874C92.043 96.9133 103.343 82.2408 97.8351 77.0772L89.863 74.7885Z" fill="#EA5656"/>
<path d="M88.5285 95.0068C88.1354 95.0068 87.7662 94.9299 87.4279 94.7653C83.0293 92.6277 85.5453 84.917 85.7974 84.1818C85.4624 83.8568 83.3554 81.6263 84.6493 78.1405C86.0459 74.3776 89.8329 74.6994 89.8706 74.7025L89.8554 74.8743C89.8188 74.8712 86.1541 74.5635 84.8031 78.2029C83.4494 81.8492 85.9218 84.0686 85.9469 84.0907L85.9917 84.13L85.971 84.1873C85.9413 84.2697 83.0392 92.4424 87.4972 94.609C89.9029 95.7789 94.1536 92.125 96.7118 88.0699C98.998 84.4457 100.479 79.6719 97.78 77.1413L97.8902 77.013C100.668 79.6167 99.1739 84.4809 96.8497 88.1648C94.5529 91.8059 91.0596 95.0065 88.5285 95.0068Z" fill="#0F227A"/>
<path d="M88.5225 95.5643C88.0565 95.5646 87.6137 95.4718 87.2025 95.2717C82.7234 93.0951 84.6107 86.1202 85.1803 84.3352C84.2068 83.2543 83.0488 80.9083 84.1513 77.9382C85.3842 74.6166 88.4631 74.0045 89.9197 74.1463C90.259 74.1794 90.5084 74.4934 90.4771 74.848C90.4457 75.202 90.1448 75.4635 89.8079 75.4308C89.6676 75.418 86.4996 75.1761 85.301 78.405C84.0952 81.6535 86.2016 83.5838 86.292 83.6642C86.49 83.8412 86.563 84.1306 86.4706 84.3852C86.4425 84.4625 83.7164 92.1557 87.7226 94.1025C89.6072 95.0185 93.52 92.115 96.266 87.7624C98.4298 84.3324 99.8699 79.8509 97.4233 77.5573C97.1695 77.3193 97.1484 76.9118 97.3757 76.6469C97.6031 76.3816 97.9932 76.3591 98.2466 76.5972C101.277 79.4376 99.7422 84.594 97.2956 88.4721C94.9466 92.196 91.3255 95.5643 88.5225 95.5643Z" fill="#0F227A"/>
<path d="M118.981 79.5833C118.859 79.5833 118.735 79.5453 118.627 79.4663C118.349 79.2617 118.281 78.8598 118.477 78.5683C118.512 78.5155 122.022 73.2805 123.103 71.2319C123.267 70.9203 123.642 70.8065 123.94 70.979C124.239 71.1508 124.347 71.5431 124.183 71.8549C123.07 73.9639 119.632 79.0917 119.486 79.3087C119.366 79.4877 119.175 79.5833 118.981 79.5833Z" fill="#0F227A"/>
<path d="M92.9564 64.4561C92.2687 64.4561 91.5331 64.5799 90.7827 64.8349C88.8011 65.5083 86.4904 67.303 86.5006 70.1451C86.5052 71.4996 86.8722 72.5563 87.5916 73.2853C88.9783 74.6905 91.3784 74.6222 92.1671 74.5987C92.3004 74.5953 92.4004 74.5932 92.4598 74.5956C92.9841 74.6174 94.051 74.3679 94.845 73.5896C95.4614 72.9852 95.7852 72.1824 95.8079 71.2033C95.8122 71.0197 95.8908 70.8472 96.0241 70.7282C96.2508 70.524 98.1717 68.6682 96.364 66.0469C95.6479 65.0088 94.4087 64.4561 92.9564 64.4561ZM91.6777 75.897C90.4775 75.897 88.2315 75.7297 86.7329 74.211C85.766 73.2312 85.273 71.865 85.2671 70.1496C85.2569 67.2395 87.2722 64.6717 90.4016 63.6088C93.2564 62.6386 95.9894 63.2997 97.3646 65.2927C99.2508 68.0275 98.0632 70.4446 97.0276 71.5144C96.9418 72.7144 96.4818 73.7525 95.6885 74.5301C94.681 75.5185 93.3151 75.9211 92.4103 75.8842C92.3674 75.8825 92.2964 75.8856 92.201 75.888C92.0648 75.8922 91.8872 75.897 91.6777 75.897Z" fill="#0F227A"/>
<path d="M87.6263 92.9257H87.6279H87.6263ZM98.3282 101.835L98.3285 101.835L98.3282 101.835ZM88.2859 93.6616L88.348 94.7511C88.3585 94.9412 88.2882 95.1268 88.1556 95.2579C88.1097 95.3034 83.5636 99.8395 83.6079 103.504C83.6197 104.513 83.9817 105.338 84.714 106.026C86.9138 108.093 91.0533 106.677 97.022 101.816C94.8054 95.546 90.0399 94.0173 88.2859 93.6616ZM87.1547 108.229C85.8641 108.229 84.7718 107.814 83.8893 106.985C82.9 106.055 82.3902 104.889 82.3743 103.519C82.3304 99.7388 86.1429 95.5294 87.0999 94.5334L87.0108 92.9637C86.9933 92.6594 87.1821 92.3868 87.458 92.3054C87.491 92.2944 87.524 92.2854 87.5573 92.2795C87.6038 92.2712 87.6513 92.2685 87.6989 92.2719C87.7784 92.2771 89.6706 92.4151 91.9272 93.6571C94.0022 94.7994 96.7943 97.1326 98.3133 101.763C98.3308 101.817 98.3394 101.863 98.344 101.892C98.3998 102.135 98.3166 102.391 98.1269 102.548C95.1093 105.043 92.4637 106.735 90.264 107.576C89.1268 108.012 88.0886 108.229 87.1547 108.229Z" fill="#0F227A"/>
<path d="M85.8835 84.8187C85.8066 84.8187 85.7284 84.8035 85.6529 84.7714C85.3371 84.6383 85.1846 84.2626 85.312 83.9327C85.3691 83.7847 86.7313 80.2923 88.6466 78.5176C88.9014 78.282 89.2911 78.3065 89.5172 78.5728C89.7432 78.8395 89.7198 79.2469 89.4647 79.4829C87.7682 81.0547 86.4686 84.3819 86.4554 84.4154C86.3584 84.6662 86.1274 84.8187 85.8835 84.8187Z" fill="#0F227A"/>
<path d="M87.8906 82.0238H87.8922H87.8906ZM86.1528 83.5408C86.2333 83.6305 86.2838 83.6795 86.2848 83.6805C86.4689 83.8589 86.5326 84.1376 86.4435 84.3833C86.4158 84.4606 83.6913 92.1558 87.6978 94.1026C89.6854 95.069 93.9553 91.7062 96.623 87.1298C94.0081 83.0467 90.0659 82.5769 87.9156 82.6683C87.4817 82.6866 87.1589 82.7283 86.9966 82.7535C86.7016 82.9691 86.4194 83.2327 86.1528 83.5408ZM88.4648 95.5554C88.007 95.5554 87.5751 95.465 87.1778 95.2722C82.6841 93.088 84.5968 86.0727 85.1588 84.3163C85.071 84.2135 84.9684 84.0876 84.8595 83.9406C84.6872 83.7088 84.6866 83.3845 84.8582 83.1516C85.3284 82.5137 85.8554 81.9921 86.4247 81.6009C86.492 81.5546 86.5676 81.5225 86.6468 81.5067C86.6659 81.5029 87.1292 81.4111 87.8655 81.3797C89.857 81.2942 94.8225 81.6512 97.8724 86.7759C97.9932 86.9791 97.9965 87.235 97.8813 87.4417C95.4862 91.7325 91.4404 95.5551 88.4648 95.5554Z" fill="#0F227A"/>
<path d="M111.425 78.9982C108.707 78.9982 102.314 75.6362 101.878 73.451C101.618 72.1465 101.708 71.0794 101.811 70.4639C100.323 69.7643 95.5284 67.5621 92.5828 66.7962C92.2525 66.7103 92.0512 66.3609 92.1334 66.0152C92.2155 65.6695 92.5508 65.4594 92.8805 65.5449C96.4976 66.4851 102.528 69.3862 102.783 69.509C103.068 69.6463 103.208 69.9851 103.11 70.2963C103.108 70.3052 102.75 71.5072 103.086 73.1874C103.19 73.7118 104.507 74.9062 106.741 76.0871C108.756 77.1514 110.815 77.8266 111.639 77.6945C113.473 77.3978 114.653 75.8532 114.665 75.8377C114.83 75.6182 115.111 75.5344 115.362 75.6307L119.751 77.315C120.071 77.4378 120.235 77.808 120.118 78.1423C120 78.4766 119.646 78.6487 119.326 78.5256L115.329 76.9917C114.785 77.5747 113.549 78.6901 111.827 78.9689C111.705 78.9885 111.57 78.9982 111.425 78.9982Z" fill="#0F227A"/>
<path d="M96.4237 71.8845C96.4105 71.8845 96.3976 71.8842 96.3844 71.8832C96.0452 71.8611 95.7871 71.5561 95.8076 71.2011C95.8089 71.1711 95.8812 69.5327 94.9331 68.7392C94.2988 68.2086 93.3022 68.1396 91.9713 68.5339C91.6436 68.6312 91.3024 68.4325 91.2097 68.0899C91.1166 67.7473 91.307 67.3906 91.6344 67.2936C93.3761 66.7768 94.7479 66.9269 95.7115 67.739C97.1599 68.9596 97.0441 71.1859 97.0385 71.2801C97.018 71.6217 96.7464 71.8845 96.4237 71.8845Z" fill="#0F227A"/>
<path d="M138.66 66.3507C137.119 66.3507 135.5 65.6624 134.917 65.3322C134.618 65.1625 134.506 64.7713 134.668 64.458C134.831 64.1451 135.205 64.0285 135.505 64.1982C136.286 64.6405 138.424 65.4264 139.688 64.8799C140.118 64.6943 140.383 64.3786 140.524 63.8863C140.629 63.5179 140.593 63.1987 140.411 62.8813C139.788 61.796 137.708 61.1467 136.959 60.988C136.626 60.9173 136.41 60.5774 136.477 60.2286C136.544 59.8798 136.869 59.6521 137.203 59.7239C137.532 59.7933 140.453 60.4512 141.468 62.2162C141.826 62.8396 141.909 63.5448 141.706 64.2555C141.461 65.1121 140.926 65.74 140.159 66.0716C139.698 66.2713 139.183 66.3507 138.66 66.3507Z" fill="#0F227A"/>
<path fill-rule="evenodd" clip-rule="evenodd" d="M112.507 60.8203C118.103 62.6764 125.114 63.788 129.423 61.5697C133.732 59.3517 140.324 53.7547 143.645 58.6009C147.594 64.3638 135.546 78.2352 118.99 78.919C118.99 78.919 92.4571 114.152 84.312 106.497C79.9887 102.433 87.7417 94.7818 87.7417 94.7818L86.6926 76.0435C86.6926 76.0435 82.2446 75.7074 82.2297 71.1455C82.2096 64.8893 89.7818 53.2831 112.507 60.8203Z" fill="#EA5656"/>
<path d="M99.0756 58.4358C93.4029 58.4358 89.6706 60.1204 87.2909 61.9476C83.6075 64.7759 82.304 68.5533 82.3122 71.1453C82.3268 75.5761 86.655 75.9542 86.6986 75.9573L86.7709 75.9628L86.7752 76.0384L87.8265 94.8171L87.7985 94.8447C87.751 94.8916 83.0382 99.5891 83.0838 103.501C83.0973 104.658 83.5293 105.645 84.3675 106.433C85.2327 107.246 86.3594 107.598 87.7133 107.475C97.9635 106.553 118.717 79.1423 118.925 78.8657L118.949 78.8346L118.987 78.8329C125.923 78.5462 131.301 76.0139 134.591 73.9398C138.676 71.3657 141.891 68.0223 143.414 64.7669C144.553 62.3312 144.611 60.1598 143.578 58.6511C140.935 54.795 136.062 57.7361 132.147 60.099C131.19 60.6766 130.286 61.222 129.459 61.6474C124.249 64.3291 115.851 62.02 112.481 60.9025C107.119 59.1241 102.701 58.4358 99.0756 58.4358ZM87.1992 107.671C86.03 107.671 85.0423 107.299 84.2569 106.561C83.3831 105.739 82.933 104.711 82.9188 103.503C82.8746 99.6754 87.2626 95.1462 87.6572 94.747L86.6144 76.1215C86.0333 76.0501 82.1611 75.4119 82.1472 71.1459C82.1387 68.5115 83.46 64.6751 87.1936 61.8082C91.1242 58.7901 98.7109 56.1547 112.532 60.7383C115.881 61.8492 124.23 64.1469 129.387 61.4925C130.208 61.0699 131.11 60.5258 132.064 59.9497C136.038 57.5516 140.982 54.5673 143.712 58.5507C144.782 60.1132 144.729 62.3474 143.562 64.8428C142.026 68.1272 138.787 71.4968 134.677 74.0878C131.376 76.1681 125.984 78.708 119.031 79.0037C118.641 79.5187 113.54 86.2224 107.316 92.9492C98.6535 102.312 92.0631 107.257 87.7275 107.647C87.5477 107.663 87.3715 107.671 87.1992 107.671Z" fill="#0F227A"/>
<path d="M99.0739 58.9926C93.5441 58.9926 89.9164 60.6245 87.6074 62.3974C84.0814 65.105 82.8389 68.801 82.8465 71.1432C82.8591 75.0393 86.5805 75.3877 86.7389 75.4005C87.0461 75.4257 87.2903 75.6841 87.3085 76.0056L88.3575 94.7443C88.3684 94.9344 88.2978 95.1197 88.1655 95.2504C88.1196 95.2959 83.5742 99.831 83.6181 103.495C83.6303 104.504 83.992 105.329 84.7246 106.017C85.4862 106.733 86.4485 107.028 87.6675 106.919C97.6879 106.018 118.298 78.7953 118.506 78.5203C118.617 78.372 118.785 78.2823 118.966 78.275C130.158 77.8124 139.941 70.9189 142.934 64.5216C143.983 62.2794 144.057 60.3098 143.143 58.9764C140.783 55.5316 136.337 58.215 132.414 60.5827C131.449 61.1651 130.537 61.715 129.695 62.1483C124.311 64.9194 115.751 62.5727 112.32 61.4349C107.007 59.673 102.644 58.9926 99.0739 58.9926ZM87.1946 108.23C85.8928 108.23 84.7866 107.809 83.8999 106.976C82.9105 106.046 82.4007 104.88 82.3849 103.509C82.3406 99.7295 86.1535 95.5212 87.1098 94.5259L86.1069 76.6139C84.3088 76.2737 81.6252 74.8354 81.613 71.1477C81.6041 68.3759 82.9822 64.3491 86.8771 61.3583C90.9078 58.263 98.6585 55.5509 112.693 60.206C119.541 62.4771 125.693 62.7707 129.151 60.9916C129.956 60.5769 130.85 60.0373 131.797 59.4656C133.813 58.2492 136.098 56.8702 138.226 56.3061C140.812 55.6213 142.804 56.2668 144.146 58.2254C145.336 59.9624 145.299 62.3999 144.042 65.0881C142.462 68.4663 139.149 71.9208 134.953 74.5659C131.637 76.6556 126.246 79.2014 119.299 79.5505C117.114 82.424 97.9288 107.29 87.7734 108.203C87.5764 108.221 87.3834 108.23 87.1946 108.23Z" fill="#0F227A"/>
<path fill-rule="evenodd" clip-rule="evenodd" d="M89.863 74.7885C89.863 74.7885 86.1165 74.4259 84.7262 78.1719C83.3356 81.9179 85.8937 84.1569 85.8937 84.1569C85.8937 84.1569 82.8822 92.4611 87.4626 94.6874C92.043 96.9133 103.343 82.2408 97.8351 77.0772L89.863 74.7885Z" fill="#EA5656"/>
<path d="M88.5285 95.0068C88.1354 95.0068 87.7662 94.9299 87.4279 94.7653C83.0293 92.6277 85.5453 84.917 85.7974 84.1818C85.4624 83.8568 83.3554 81.6263 84.6493 78.1405C86.0459 74.3776 89.8329 74.6994 89.8706 74.7025L89.8554 74.8743C89.8188 74.8712 86.1541 74.5635 84.8031 78.2029C83.4494 81.8492 85.9218 84.0686 85.9469 84.0907L85.9917 84.13L85.971 84.1873C85.9413 84.2697 83.0392 92.4424 87.4972 94.609C89.9029 95.7789 94.1536 92.125 96.7118 88.0699C98.998 84.4457 100.479 79.6719 97.78 77.1413L97.8902 77.013C100.668 79.6167 99.1739 84.4809 96.8497 88.1648C94.5529 91.8059 91.0596 95.0065 88.5285 95.0068Z" fill="#0F227A"/>
<path d="M88.5225 95.5643C88.0565 95.5646 87.6137 95.4718 87.2025 95.2717C82.7234 93.0951 84.6107 86.1202 85.1803 84.3352C84.2068 83.2543 83.0488 80.9083 84.1513 77.9382C85.3842 74.6166 88.4631 74.0045 89.9197 74.1463C90.259 74.1794 90.5084 74.4934 90.4771 74.848C90.4457 75.202 90.1448 75.4635 89.8079 75.4308C89.6676 75.418 86.4996 75.1761 85.301 78.405C84.0952 81.6535 86.2016 83.5838 86.292 83.6642C86.49 83.8412 86.563 84.1306 86.4706 84.3852C86.4425 84.4625 83.7164 92.1557 87.7226 94.1025C89.6072 95.0185 93.52 92.115 96.266 87.7624C98.4298 84.3324 99.8699 79.8509 97.4233 77.5573C97.1695 77.3193 97.1484 76.9118 97.3757 76.6469C97.6031 76.3816 97.9932 76.3591 98.2466 76.5972C101.277 79.4376 99.7422 84.594 97.2956 88.4721C94.9466 92.196 91.3255 95.5643 88.5225 95.5643Z" fill="#0F227A"/>
<path d="M118.981 79.5833C118.859 79.5833 118.735 79.5453 118.627 79.4663C118.349 79.2617 118.281 78.8598 118.477 78.5683C118.512 78.5155 122.022 73.2805 123.103 71.2319C123.267 70.9203 123.642 70.8065 123.94 70.979C124.239 71.1508 124.347 71.5431 124.183 71.8549C123.07 73.9639 119.632 79.0917 119.486 79.3087C119.366 79.4877 119.175 79.5833 118.981 79.5833Z" fill="#0F227A"/>
<path d="M92.9564 64.4561C92.2687 64.4561 91.5331 64.5799 90.7827 64.8349C88.8011 65.5083 86.4904 67.303 86.5006 70.1451C86.5052 71.4996 86.8722 72.5563 87.5916 73.2853C88.9783 74.6905 91.3784 74.6222 92.1671 74.5987C92.3004 74.5953 92.4004 74.5932 92.4598 74.5956C92.9841 74.6174 94.051 74.3679 94.845 73.5896C95.4614 72.9852 95.7852 72.1824 95.8079 71.2033C95.8122 71.0197 95.8908 70.8472 96.0241 70.7282C96.2508 70.524 98.1717 68.6682 96.364 66.0469C95.6479 65.0088 94.4087 64.4561 92.9564 64.4561ZM91.6777 75.897C90.4775 75.897 88.2315 75.7297 86.7329 74.211C85.766 73.2312 85.273 71.865 85.2671 70.1496C85.2569 67.2395 87.2722 64.6717 90.4016 63.6088C93.2564 62.6386 95.9894 63.2997 97.3646 65.2927C99.2508 68.0275 98.0632 70.4446 97.0276 71.5144C96.9418 72.7144 96.4818 73.7525 95.6885 74.5301C94.681 75.5185 93.3151 75.9211 92.4103 75.8842C92.3674 75.8825 92.2964 75.8856 92.201 75.888C92.0648 75.8922 91.8872 75.897 91.6777 75.897Z" fill="#0F227A"/>
<path d="M87.6263 92.9257H87.6279H87.6263ZM98.3282 101.835L98.3285 101.835L98.3282 101.835ZM88.2859 93.6616L88.348 94.7511C88.3585 94.9412 88.2882 95.1268 88.1556 95.2579C88.1097 95.3034 83.5636 99.8395 83.6079 103.504C83.6197 104.513 83.9817 105.338 84.714 106.026C86.9138 108.093 91.0533 106.677 97.022 101.816C94.8054 95.546 90.0399 94.0173 88.2859 93.6616ZM87.1547 108.229C85.8641 108.229 84.7718 107.814 83.8893 106.985C82.9 106.055 82.3902 104.889 82.3743 103.519C82.3304 99.7388 86.1429 95.5294 87.0999 94.5334L87.0108 92.9637C86.9933 92.6594 87.1821 92.3868 87.458 92.3054C87.491 92.2944 87.524 92.2854 87.5573 92.2795C87.6038 92.2712 87.6513 92.2685 87.6989 92.2719C87.7784 92.2771 89.6706 92.4151 91.9272 93.6571C94.0022 94.7994 96.7943 97.1326 98.3133 101.763C98.3308 101.817 98.3394 101.863 98.344 101.892C98.3998 102.135 98.3166 102.391 98.1269 102.548C95.1093 105.043 92.4637 106.735 90.264 107.576C89.1268 108.012 88.0886 108.229 87.1547 108.229Z" fill="#0F227A"/>
<path d="M85.8835 84.8187C85.8066 84.8187 85.7284 84.8035 85.6529 84.7714C85.3371 84.6383 85.1846 84.2626 85.312 83.9327C85.3691 83.7847 86.7313 80.2923 88.6466 78.5176C88.9014 78.282 89.2911 78.3065 89.5172 78.5728C89.7432 78.8395 89.7198 79.2469 89.4647 79.4829C87.7682 81.0547 86.4686 84.3819 86.4554 84.4154C86.3584 84.6662 86.1274 84.8187 85.8835 84.8187Z" fill="#0F227A"/>
<path d="M87.8906 82.0238H87.8922H87.8906ZM86.1528 83.5408C86.2333 83.6305 86.2838 83.6795 86.2848 83.6805C86.4689 83.8589 86.5326 84.1376 86.4435 84.3833C86.4158 84.4606 83.6913 92.1558 87.6978 94.1026C89.6854 95.069 93.9553 91.7062 96.623 87.1298C94.0081 83.0467 90.0659 82.5769 87.9156 82.6683C87.4817 82.6866 87.1589 82.7283 86.9966 82.7535C86.7016 82.9691 86.4194 83.2327 86.1528 83.5408ZM88.4648 95.5554C88.007 95.5554 87.5751 95.465 87.1778 95.2722C82.6841 93.088 84.5968 86.0727 85.1588 84.3163C85.071 84.2135 84.9684 84.0876 84.8595 83.9406C84.6872 83.7088 84.6866 83.3845 84.8582 83.1516C85.3284 82.5137 85.8554 81.9921 86.4247 81.6009C86.492 81.5546 86.5676 81.5225 86.6468 81.5067C86.6659 81.5029 87.1292 81.4111 87.8655 81.3797C89.857 81.2942 94.8225 81.6512 97.8724 86.7759C97.9932 86.9791 97.9965 87.235 97.8813 87.4417C95.4862 91.7325 91.4404 95.5551 88.4648 95.5554Z" fill="#0F227A"/>
<path d="M111.425 78.9982C108.707 78.9982 102.314 75.6362 101.878 73.451C101.618 72.1465 101.708 71.0794 101.811 70.4639C100.323 69.7643 95.5284 67.5621 92.5828 66.7962C92.2525 66.7103 92.0512 66.3609 92.1334 66.0152C92.2155 65.6695 92.5508 65.4594 92.8805 65.5449C96.4976 66.4851 102.528 69.3862 102.783 69.509C103.068 69.6463 103.208 69.9851 103.11 70.2963C103.108 70.3052 102.75 71.5072 103.086 73.1874C103.19 73.7118 104.507 74.9062 106.741 76.0871C108.756 77.1514 110.815 77.8266 111.639 77.6945C113.473 77.3978 114.653 75.8532 114.665 75.8377C114.83 75.6182 115.111 75.5344 115.362 75.6307L119.751 77.315C120.071 77.4378 120.235 77.808 120.118 78.1423C120 78.4766 119.646 78.6487 119.326 78.5256L115.329 76.9917C114.785 77.5747 113.549 78.6901 111.827 78.9689C111.705 78.9885 111.57 78.9982 111.425 78.9982Z" fill="#0F227A"/>
<path d="M96.4237 71.8845C96.4105 71.8845 96.3976 71.8842 96.3844 71.8832C96.0452 71.8611 95.7871 71.5561 95.8076 71.2011C95.8089 71.1711 95.8812 69.5327 94.9331 68.7392C94.2988 68.2086 93.3022 68.1396 91.9713 68.5339C91.6436 68.6312 91.3024 68.4325 91.2097 68.0899C91.1166 67.7473 91.307 67.3906 91.6344 67.2936C93.3761 66.7768 94.7479 66.9269 95.7115 67.739C97.1599 68.9596 97.0441 71.1859 97.0385 71.2801C97.018 71.6217 96.7464 71.8845 96.4237 71.8845Z" fill="#0F227A"/>
<path d="M138.66 66.3507C137.119 66.3507 135.5 65.6624 134.917 65.3322C134.618 65.1625 134.506 64.7713 134.668 64.458C134.831 64.1451 135.205 64.0285 135.505 64.1982C136.286 64.6405 138.424 65.4264 139.688 64.8799C140.118 64.6943 140.383 64.3786 140.524 63.8863C140.629 63.5179 140.593 63.1987 140.411 62.8813C139.788 61.796 137.708 61.1467 136.959 60.988C136.626 60.9173 136.41 60.5774 136.477 60.2286C136.544 59.8798 136.869 59.6521 137.203 59.7239C137.532 59.7933 140.453 60.4512 141.468 62.2162C141.826 62.8396 141.909 63.5448 141.706 64.2555C141.461 65.1121 140.926 65.74 140.159 66.0716C139.698 66.2713 139.183 66.3507 138.66 66.3507Z" fill="#0F227A"/>
<path fill-rule="evenodd" clip-rule="evenodd" d="M112.507 60.8203C118.103 62.6764 125.114 63.788 129.423 61.5697C133.732 59.3517 140.324 53.7547 143.645 58.6009C147.594 64.3638 135.546 78.2352 118.99 78.919C118.99 78.919 92.4571 114.152 84.312 106.497C79.9887 102.433 87.7417 94.7818 87.7417 94.7818L86.6926 76.0435C86.6926 76.0435 82.2446 75.7074 82.2297 71.1455C82.2096 64.8893 89.7818 53.2831 112.507 60.8203Z" fill="#E8C49C"/>
<path d="M130.358 63.0486C130.358 63.0486 131.018 72.7086 139.433 70.9836L143.228 65.2911L144.333 62.0644L144.16 59.6442L142.691 57.5531L140.588 57.0111C140.588 57.0111 135.638 58.5636 130.358 63.0486Z" fill="white" fill-opacity="0.39"/>
<path d="M98.048 101.01C97.7305 100.171 97.3702 99.4128 96.9811 98.7297C103.935 93.1058 111.673 84.4374 117.049 77.7778C117.459 77.9314 117.96 78.129 118.581 78.3799C118.553 78.4309 118.524 78.482 118.496 78.533C118.102 79.0533 107.626 92.8374 98.048 101.01ZM119.252 77.2924C118.93 77.1134 118.473 76.8729 117.958 76.6431C119.26 75.0044 120.395 73.5164 121.312 72.2627C121.658 71.7893 121.993 71.445 122.297 71.2094C122.67 71.0897 123.038 70.9606 123.403 70.8219C123.636 70.8951 123.743 71.1297 123.663 71.4674C123.654 71.4643 123.645 71.463 123.636 71.463C123.61 71.463 123.584 71.4747 123.567 71.4975L123.566 71.4988L122.23 73.2262C121.788 73.8024 121.348 74.3796 120.914 74.9606C120.48 75.5429 120.043 76.1222 119.635 76.7221C119.506 76.9112 119.378 77.1009 119.252 77.2924Z" fill="#BDA495"/>
<path d="M86.0726 75.2793C84.9602 74.9954 82.8561 74.0712 82.8465 71.1431C82.8426 69.8766 83.2039 68.2144 84.0939 66.5267C83.952 68.0299 84.0655 69.9212 85.2955 70.8195C85.4136 72.2237 85.8957 73.3622 86.7329 74.2109C86.8824 74.3623 87.0392 74.5003 87.2015 74.6259C86.9603 74.7294 86.7247 74.8502 86.498 74.9902C86.3521 75.0792 86.2102 75.1758 86.0726 75.2793Z" fill="#BDA495"/>
<path fill-rule="evenodd" clip-rule="evenodd" d="M87.6599 92.9154C87.6483 92.9174 87.6377 92.9233 87.6262 92.9254L87.7321 94.7891C87.7321 94.7891 79.9785 102.442 84.3018 106.506C87.1612 109.193 92.2957 106.547 97.7443 102.043C97.7367 102.019 97.7374 101.996 97.7298 101.972C94.9166 93.396 87.6599 92.9154 87.6599 92.9154Z" fill="#18DDE6"/>
<path d="M95.1806 100.138C94.7163 98.7177 93.3794 97.3884 92.0066 96.3345C92.2723 96.1478 92.528 95.9498 92.7762 95.7404C93.9111 96.6111 95.0539 97.8259 95.9947 99.5202C95.7218 99.7313 95.4502 99.9376 95.1806 100.138Z" fill="#A1F0F4"/>
<path d="M87.1876 106.941C86.1924 106.941 85.3832 106.636 84.7245 106.017C84.1048 105.435 83.75 104.754 83.6484 103.948C84.2853 104.311 85.0116 104.482 85.8132 104.482C88.3407 104.482 91.6149 102.789 95.1806 100.138C95.2806 100.444 95.34 100.753 95.3509 101.066C95.3809 101.936 94.6701 103.212 93.1587 104.646C91.4819 105.715 90.0045 106.412 88.7307 106.736C88.3648 106.826 88.01 106.888 87.6675 106.919C87.5031 106.933 87.3431 106.941 87.1876 106.941Z" fill="#16B8D0"/>
<path d="M93.1587 104.646C94.6701 103.212 95.3809 101.936 95.3509 101.066C95.34 100.753 95.2806 100.444 95.1806 100.138C95.4502 99.9375 95.7218 99.7312 95.9947 99.52C96.3746 100.204 96.7217 100.967 97.022 101.816C95.6347 102.946 94.3467 103.889 93.1587 104.646Z" fill="#84C7DC"/>
<path d="M111.301 79.4907C108.876 79.4907 102.195 75.7461 101.59 73.8507C101.091 72.2902 101.739 71.367 101.599 70.6253C101.488 70.0395 100.226 69.1628 98.3595 68.321C98.3615 68.2085 98.3592 68.0944 98.3523 67.9784C100.034 68.509 101.465 69.2097 102.208 70.3248C102.493 70.7526 102.431 70.9213 102.281 71.3298C102.119 71.7676 101.898 72.3672 102.105 73.4015C102.518 75.4694 108.858 78.7566 111.428 78.7562C111.56 78.7562 111.682 78.7476 111.792 78.7297C112.987 78.5365 113.424 77.9631 113.775 77.5022C114.095 77.0823 114.326 76.7787 115.132 76.7252C115.179 76.7221 115.227 76.7207 115.275 76.7207C115.915 76.7207 116.718 76.9829 117.44 77.2914C117.311 77.4525 117.181 77.6143 117.049 77.7778C116.09 77.418 115.635 77.2993 115.321 77.2993C115.137 77.2993 115 77.34 114.839 77.3966C113.848 77.744 113.936 79.0716 111.598 79.468C111.508 79.4835 111.409 79.4907 111.301 79.4907Z" fill="#F5E6D6"/>
<path d="M118.581 78.3799C117.96 78.1406 117.459 77.952 117.049 77.8055C117.181 77.6495 117.311 77.4952 117.44 77.3415C117.979 77.5607 118.473 77.8045 118.823 77.9875C118.741 78.1172 118.66 78.2479 118.581 78.3799Z" fill="#E3D9D3"/>
<path d="M143.228 63.8343C143.363 61.9289 143.005 59.0968 140.026 57.9131C140.124 57.7271 140.218 57.536 140.306 57.34C141.41 57.3949 142.384 57.8689 143.143 58.9764C143.962 60.1718 143.988 61.8785 143.228 63.8343Z" fill="#FEFEFE"/>
<path d="M99.0739 58.9926C93.5441 58.9926 89.9164 60.6245 87.6074 62.3974C84.0814 65.105 82.8389 68.801 82.8465 71.1432C82.8591 75.0393 86.5805 75.3877 86.7389 75.4005C87.0461 75.4257 87.2903 75.6841 87.3085 76.0056L88.3575 94.7443C88.3684 94.9344 88.2978 95.1197 88.1655 95.2504C88.1196 95.2959 83.5742 99.831 83.6181 103.495C83.6303 104.504 83.992 105.329 84.7246 106.017C85.4862 106.733 86.4485 107.028 87.6675 106.919C97.6879 106.018 118.298 78.7953 118.506 78.5203C118.617 78.372 118.785 78.2823 118.966 78.275C130.158 77.8124 139.941 70.9189 142.934 64.5216C143.983 62.2794 144.057 60.3098 143.143 58.9764C140.783 55.5316 136.337 58.215 132.414 60.5827C131.449 61.1651 130.537 61.715 129.695 62.1483C124.311 64.9194 115.751 62.5727 112.32 61.4349C107.007 59.673 102.644 58.9926 99.0739 58.9926ZM87.1946 108.23C85.8928 108.23 84.7866 107.809 83.8999 106.976C82.9105 106.046 82.4007 104.88 82.3849 103.509C82.3406 99.7295 86.1535 95.5212 87.1098 94.5259L86.1069 76.6139C84.3088 76.2737 81.6252 74.8354 81.613 71.1477C81.6041 68.3759 82.9822 64.3491 86.8771 61.3583C90.9078 58.263 98.6585 55.5509 112.693 60.206C119.541 62.4771 125.693 62.7707 129.151 60.9916C129.956 60.5769 130.85 60.0373 131.797 59.4656C133.813 58.2492 136.098 56.8702 138.226 56.3061C140.812 55.6213 142.804 56.2668 144.146 58.2254C145.336 59.9624 145.299 62.3999 144.042 65.0881C142.462 68.4663 139.149 71.9208 134.953 74.5659C131.637 76.6556 126.246 79.2014 119.299 79.5505C117.114 82.424 97.9288 107.29 87.7734 108.203C87.5764 108.221 87.3834 108.23 87.1946 108.23Z" fill="#0F227A"/>
<path d="M118.477 78.5681C118.826 77.9278 119.227 77.321 119.635 76.722C120.043 76.1221 120.48 75.5428 120.914 74.9605C121.348 74.3795 121.788 73.8023 122.23 73.2261L123.566 71.4987L123.567 71.4974C123.598 71.4573 123.654 71.4511 123.692 71.4836C123.722 71.5091 123.732 71.5515 123.72 71.5877C123.475 72.2967 123.166 72.9733 122.848 73.6408C122.526 74.3063 122.19 74.9625 121.838 75.6073C121.485 76.2518 121.129 76.8949 120.739 77.5128C120.349 78.1314 119.947 78.7389 119.486 79.3088C119.266 79.5817 118.875 79.6159 118.614 79.3854C118.382 79.1805 118.33 78.8362 118.475 78.5702L118.477 78.5681Z" fill="#0F227A"/>
<path d="M87.6263 92.9257H87.6279H87.6263ZM98.3282 101.835L98.3285 101.835L98.3282 101.835ZM88.2859 93.6616L88.348 94.7511C88.3585 94.9412 88.2882 95.1268 88.1556 95.2579C88.1097 95.3034 83.5636 99.8395 83.6079 103.504C83.6197 104.513 83.9817 105.338 84.714 106.026C86.9138 108.093 91.0533 106.677 97.022 101.816C94.8054 95.546 90.0399 94.0173 88.2859 93.6616ZM87.1547 108.229C85.8641 108.229 84.7718 107.814 83.8893 106.985C82.9 106.055 82.3902 104.889 82.3743 103.519C82.3304 99.7388 86.1429 95.5294 87.0999 94.5334L87.0108 92.9637C86.9933 92.6594 87.1821 92.3868 87.458 92.3054C87.491 92.2944 87.524 92.2854 87.5573 92.2795C87.6038 92.2712 87.6513 92.2685 87.6989 92.2719C87.7784 92.2771 89.6706 92.4151 91.9272 93.6571C94.0022 94.7994 96.7943 97.1326 98.3133 101.763C98.3308 101.817 98.3394 101.863 98.344 101.892C98.3998 102.135 98.3166 102.391 98.1269 102.548C95.1093 105.043 92.4637 106.735 90.264 107.576C89.1268 108.012 88.0886 108.229 87.1547 108.229Z" fill="#0F227A"/>
<path d="M111.428 78.7562C108.858 78.7566 102.517 75.4694 102.105 73.4015C101.898 72.3672 102.119 71.7675 102.28 71.3297C102.431 70.9213 102.493 70.7526 102.208 70.3248C100.974 68.4738 97.8453 67.7645 94.8195 67.0793C94.0929 66.9144 93.3415 66.744 92.6389 66.5615C92.4323 66.508 92.3062 66.2893 92.3577 66.0733C92.4089 65.8573 92.6184 65.7249 92.8247 65.7797C93.516 65.9591 94.2285 66.1206 94.9829 66.2914C98.1538 67.01 101.433 67.7531 102.841 69.8638C103.36 70.6425 103.169 71.1617 103 71.6195C102.852 72.0204 102.699 72.4351 102.859 73.2366C103.169 74.7887 109.679 78.2591 111.674 77.9334C112.572 77.7881 112.85 77.4231 113.172 77.0002C113.53 76.5299 113.936 75.9972 115.084 75.921C116.849 75.7996 119.618 77.5008 119.735 77.5732C119.918 77.6864 119.979 77.9334 119.87 78.1252C119.762 78.3163 119.526 78.3802 119.342 78.267C119.316 78.2504 116.662 76.6231 115.132 76.7252C114.326 76.7787 114.095 77.0823 113.775 77.5021C113.424 77.9631 112.987 78.5364 111.792 78.7296C111.682 78.7476 111.559 78.7562 111.428 78.7562Z" fill="#0F227A"/>
<path d="M140.556 63.5928C139.858 62.9847 138.513 62.0537 136.412 61.5491C136.81 61.3694 137.199 61.1379 137.573 60.8592C137.852 61.0565 138.129 61.2266 138.401 61.3901C138.843 61.6443 139.272 61.8899 139.642 62.1713C140.013 62.45 140.313 62.7643 140.456 63.0816C140.528 63.2413 140.561 63.4041 140.557 63.5842C140.557 63.5869 140.557 63.5897 140.556 63.5928Z" fill="#FEFEFE"/>
<path d="M135.816 65.5529C134.846 64.8809 134.538 64.0745 134.442 63.584C134.493 63.495 134.555 63.416 134.625 63.3481C134.821 63.1566 135.082 63.0511 135.35 63.0511C135.496 63.0511 135.644 63.0825 135.786 63.1477C137.361 63.8751 138.481 64.1231 139.277 64.1231C139.84 64.1231 140.24 63.9993 140.524 63.8334L140.518 63.8641C140.492 63.9607 140.463 64.0669 140.42 64.1535C140.265 64.5219 139.986 64.7619 139.606 64.8858C139.325 64.9786 139.001 65.0058 138.662 65.0058C138.543 65.0058 138.423 65.0024 138.302 64.9975C137.832 64.9768 137.342 64.9137 136.839 64.8506C136.333 64.7878 135.819 64.7195 135.26 64.6712L135.255 64.6709C135.252 64.6705 135.249 64.6705 135.246 64.6705C135.22 64.6705 135.195 64.6795 135.175 64.6978C135.128 64.7388 135.122 64.8116 135.162 64.8602C135.367 65.1127 135.602 65.3235 135.855 65.5036C135.842 65.5201 135.829 65.5363 135.816 65.5529Z" fill="#CFD3E4"/>
<path d="M137.102 60.2507C137.689 60.1038 138.258 60.1493 138.811 60.2835C139.36 60.4281 139.894 60.6692 140.404 61.0114C140.659 61.1822 140.902 61.3927 141.126 61.6445C141.347 61.8981 141.548 62.2014 141.677 62.557C141.81 62.91 141.861 63.3091 141.825 63.6831C141.814 63.7752 141.805 63.8694 141.788 63.9591L141.724 64.222C141.669 64.3893 141.619 64.5498 141.54 64.7105C141.393 65.0293 141.182 65.334 140.921 65.5813C140.659 65.8287 140.355 66.016 140.045 66.1437C139.421 66.4007 138.791 66.4442 138.203 66.3848C137.613 66.3241 137.057 66.1554 136.541 65.908C136.029 65.6545 135.543 65.3302 135.162 64.8599C135.123 64.8113 135.128 64.7385 135.175 64.6974C135.198 64.6767 135.227 64.6681 135.255 64.6705L135.26 64.6709C135.819 64.7192 136.333 64.7875 136.839 64.8503C137.342 64.9134 137.832 64.9765 138.302 64.9972C138.77 65.0162 139.227 65.0107 139.606 64.8855C139.986 64.7616 140.265 64.5215 140.42 64.153C140.463 64.0664 140.492 63.9602 140.518 63.8636L140.546 63.7211C140.552 63.6745 140.552 63.6293 140.557 63.5841C140.561 63.404 140.528 63.2412 140.456 63.0814C140.313 62.764 140.013 62.4498 139.643 62.171C139.272 61.8895 138.843 61.6438 138.401 61.3896C137.962 61.126 137.512 60.8458 137.061 60.4612L137.056 60.4574C137.008 60.416 137.001 60.3415 137.04 60.2911C137.057 60.27 137.078 60.2566 137.102 60.2507Z" fill="#0F227A"/>
<path d="M115.554 72.2627C106.69 72.2627 99.0175 66.997 95.1638 59.2928C96.0221 59.1538 96.9421 59.0586 97.9268 59.0165C102.027 65.0112 108.946 68.9566 116.776 68.9566C121.949 68.9566 126.723 67.2347 130.551 64.3374C130.649 64.8166 130.795 65.3945 131.008 66.0089C128.816 68.0941 126.239 69.7422 123.403 70.822C123.352 70.8061 123.295 70.7979 123.233 70.7979C122.991 70.7979 122.667 70.9231 122.297 71.2095C120.165 71.8943 117.901 72.2627 115.554 72.2627Z" fill="#BDA495"/>
<path d="M131.008 66.0087C130.795 65.3943 130.649 64.8164 130.551 64.3372C131.552 63.5796 132.489 62.7405 133.35 61.8318C133.693 61.9322 134.043 61.9836 134.395 61.9898C133.41 63.4581 132.273 64.8061 131.008 66.0087Z" fill="#CFD3E4"/>
<path d="M122.297 71.2095C122.669 70.9347 122.995 70.8146 123.238 70.8146C123.301 70.8146 123.358 70.8225 123.409 70.8377C123.042 70.9708 122.672 71.0946 122.297 71.2095Z" fill="#9A8A90"/>
<path d="M95.1638 59.2928C95.0819 59.1338 95.0017 58.9742 94.9232 58.8132C95.7531 58.6612 96.63 58.5488 97.5563 58.4818C97.6767 58.6643 97.8008 58.846 97.9269 59.0247C96.9421 59.0656 96.0221 59.1579 95.1638 59.2928Z" fill="#0F227A"/>
<path fill-rule="evenodd" clip-rule="evenodd" d="M130.936 52.7405C132.161 49.0094 135.216 46.7241 137.758 47.6366C140.301 48.5488 141.37 52.3131 140.145 56.0443C138.921 59.7754 135.866 62.0607 133.323 61.1482C130.78 60.236 129.712 56.4717 130.936 52.7405Z" fill="#18DDE6"/>
<path d="M134.496 60.7062C134.496 60.7062 134.496 60.7062 134.496 60.7062C134.448 60.7062 134.4 60.7051 134.352 60.7027C135.15 59.7412 135.87 58.7128 136.502 57.6281C137.76 57.1696 138.968 56.1159 139.872 54.6459C139.795 55.0395 139.692 55.4373 139.562 55.8348C138.608 58.7407 136.481 60.7062 134.496 60.7062Z" fill="#19BCCD"/>
<path d="M136.502 57.6282C136.547 57.5499 136.592 57.4723 136.637 57.3933C137.895 56.8724 139.09 55.7372 139.949 54.1819C139.928 54.3361 139.902 54.4906 139.871 54.6466C138.968 56.1163 137.76 57.1697 136.502 57.6282Z" fill="#16B8D0"/>
<path d="M140.024 52.3247C139.801 51.8423 139.503 51.328 139.104 50.813C139.172 50.4807 139.233 50.1465 139.287 49.8088C139.696 50.5018 139.949 51.3677 140.024 52.3247Z" fill="#A1F0F4"/>
<path d="M131.52 52.95C130.407 56.3389 131.306 59.743 133.524 60.5386C133.84 60.6521 134.166 60.7063 134.496 60.7063C136.481 60.7066 138.608 58.7408 139.562 55.8349C140.674 52.4463 139.775 49.0418 137.558 48.2463C135.341 47.4507 132.632 49.561 131.52 52.95ZM134.467 61.9907C134.012 61.9907 133.562 61.9155 133.123 61.7582C130.263 60.7321 129.02 56.5928 130.353 52.5315C131.686 48.4698 135.097 46.0006 137.958 47.0267C140.819 48.0531 142.062 52.192 140.729 56.2534C139.6 59.6927 136.98 61.9907 134.467 61.9907Z" fill="#0F227A"/>
<path fill-rule="evenodd" clip-rule="evenodd" d="M94.6213 46.3383C94.6213 34.2026 104.54 24.3645 116.776 24.3645C129.011 24.3645 138.93 34.2026 138.93 46.3383C138.93 58.4737 129.011 68.3117 116.776 68.3117C104.54 68.3117 94.6213 58.4737 94.6213 46.3383Z" fill="#E8C49C"/>
<path d="M137.99 42.6417C137.679 41.7474 137.285 40.75 136.79 39.7023C136.922 39.644 137.054 39.5839 137.186 39.5222C137.53 40.5306 137.8 41.5725 137.99 42.6417ZM103.467 29.58C106.728 27.0346 110.746 25.401 115.127 25.0712C115.114 25.3209 115.107 25.5559 115.107 25.7853C115.107 25.9219 115.109 26.0582 115.113 26.1941C110.446 26.3283 106.442 27.8367 103.467 29.58Z" fill="#F5E6D6"/>
<path fill-rule="evenodd" clip-rule="evenodd" d="M116.837 24.3646C116.485 24.3646 116.144 24.3992 115.796 24.415C115.753 24.8663 115.724 25.3227 115.724 25.7854C115.724 33.8363 122.353 40.3626 130.53 40.3626C133.073 40.3626 135.468 39.7323 137.56 38.6197C134.406 30.2969 126.33 24.3646 116.837 24.3646Z" fill="#EA5656"/>
<path d="M115.871 24.4975C115.827 24.9826 115.806 25.3935 115.806 25.7854C115.806 33.7756 122.411 40.2765 130.53 40.2765C132.947 40.2765 135.34 39.6896 137.455 38.5784C134.217 30.1248 125.942 24.451 116.837 24.451C116.61 24.451 116.383 24.4658 116.163 24.4799C116.066 24.4865 115.969 24.4927 115.871 24.4975ZM130.53 40.449C122.32 40.449 115.641 33.8708 115.641 25.7854C115.641 25.368 115.664 24.9298 115.714 24.4068L115.721 24.3323L115.792 24.3288C115.913 24.3233 116.033 24.3154 116.153 24.3078C116.375 24.2936 116.605 24.2785 116.837 24.2785C121.448 24.2785 125.869 25.6688 129.622 28.2994C133.289 30.87 136.06 34.428 137.636 38.588L137.664 38.6612L137.597 38.6967C135.443 39.8428 132.999 40.449 130.53 40.449Z" fill="#0F227A"/>
<path d="M116.776 67.6668C104.9 67.6668 95.238 58.0986 95.238 46.3379C95.238 46.2341 95.239 46.1292 95.2403 46.0253C95.5449 46.1109 95.8558 46.152 96.1689 46.152C96.1894 46.152 96.2095 46.152 96.23 46.1516C96.2508 46.152 96.2712 46.152 96.2917 46.152C96.2963 46.152 96.3009 46.152 96.3052 46.152C98.0717 56.6296 105.362 65.0203 118.09 65.7083C118.426 65.7266 118.758 65.7352 119.088 65.7352C125.198 65.7352 130.264 62.6775 134.142 58.9408C130.218 64.2289 123.895 67.6668 116.776 67.6668Z" fill="#BDA495"/>
<path d="M116.776 25.0094C104.9 25.0094 95.238 34.5776 95.238 46.338C95.238 58.0987 104.9 67.6669 116.776 67.6669C128.651 67.6669 138.313 58.0987 138.313 46.338C138.313 34.5776 128.651 25.0094 116.776 25.0094ZM116.776 68.9565C104.22 68.9565 94.0048 58.8097 94.0048 46.338C94.0048 33.8662 104.22 23.7198 116.776 23.7198C129.332 23.7198 139.547 33.8662 139.547 46.338C139.547 58.8097 129.332 68.9565 116.776 68.9565Z" fill="#0F227A"/>
<path fill-rule="evenodd" clip-rule="evenodd" d="M102.46 44.2696C103.971 36.2304 112.526 30.3606 121.158 32.2388C129.789 34.1173 136.967 42.0461 135.298 50.8091C133.544 60.0185 124.046 64.4376 115.415 62.5594C106.784 60.6812 100.949 52.3091 102.46 44.2696Z" fill="white" fill-opacity="0.39"/>
<path d="M119.353 62.3359C118.08 62.3359 116.798 62.2021 115.541 61.9281C109.06 60.5181 104.136 55.2203 103.06 49.2566C103.514 49.6906 103.992 50.0594 104.491 50.3296C104.923 51.299 105.46 52.2423 106.097 53.1465C108.577 56.6655 112.246 59.1043 116.428 60.0144C117.773 60.307 119.119 60.4484 120.443 60.4484C125.426 60.4484 130.091 58.4471 133.118 54.9829C132.114 56.7345 130.717 58.2459 128.969 59.4555C126.249 61.3368 122.831 62.3359 119.353 62.3359ZM103.697 48.1212C103.402 47.8214 103.116 47.4878 102.844 47.1335C102.822 46.2234 102.894 45.3064 103.065 44.3942C103.097 44.2279 103.131 44.0623 103.169 43.8974C103.136 45.3136 103.314 46.7333 103.697 48.1212Z" fill="#D2D7E1"/>
<path d="M120.443 60.4486C119.119 60.4486 117.773 60.3071 116.428 60.0145C112.246 59.1044 108.577 56.6656 106.097 53.1466C105.46 52.2424 104.923 51.2992 104.491 50.3297C104.541 50.3573 104.592 50.3839 104.643 50.4091C104.68 50.4273 104.718 50.4453 104.756 50.4629C106.868 55.0134 111.16 58.6922 116.462 59.8458C117.795 60.136 119.131 60.2761 120.445 60.2761C125.676 60.2761 130.55 58.0536 133.513 54.2392C133.389 54.4918 133.257 54.7398 133.118 54.9831C130.091 58.4472 125.426 60.4486 120.443 60.4486ZM103.962 48.3791C103.873 48.2966 103.784 48.21 103.697 48.1214C103.314 46.7334 103.136 45.3137 103.169 43.8975C103.23 43.6319 103.3 43.3676 103.377 43.1057C103.237 44.8935 103.449 46.6758 103.962 48.3791Z" fill="#CFD3E4"/>
<path d="M103.065 44.3942C101.615 52.1115 107.328 60.1411 115.541 61.9282C120.233 62.9494 125.253 62.0255 128.969 59.4555C132.023 57.3428 134.003 54.3092 134.693 50.6832C136.37 41.8816 128.907 34.5838 121.032 32.8702C116.975 31.987 112.64 32.8743 109.138 35.3031C105.949 37.5153 103.735 40.8287 103.065 44.3942ZM119.344 63.6242C117.989 63.6242 116.627 63.4817 115.289 63.1909C110.978 62.2525 107.196 59.7371 104.638 56.1073C102.077 52.4731 101.088 48.2251 101.855 44.1455C102.588 40.2442 104.994 36.6297 108.456 34.2288C112.231 31.6106 116.906 30.6553 121.283 31.6078C125.684 32.5656 129.795 35.0875 132.563 38.5272C135.537 42.2238 136.723 46.6305 135.903 50.9347C135.147 54.9057 132.984 58.2242 129.649 60.5309C126.729 62.5505 123.065 63.6242 119.344 63.6242Z" fill="#0F227A"/>
<path fill-rule="evenodd" clip-rule="evenodd" d="M92.7442 37.5437C93.9688 33.8125 97.023 31.5276 99.5659 32.4397C102.109 33.3519 103.177 37.1162 101.953 40.8474C100.728 44.5786 97.6741 46.8639 95.1311 45.9517C92.5881 45.0391 91.5196 41.2752 92.7442 37.5437Z" fill="#18DDE6"/>
<path d="M101.875 41.2437C101.894 41.1397 101.912 41.0354 101.927 40.9318C101.936 40.9057 101.945 40.8795 101.953 40.8534C102.289 39.857 102.453 38.8586 102.465 37.9142C102.476 38.9191 102.313 39.9908 101.953 41.0602C101.932 41.1251 101.898 41.1801 101.875 41.2437Z" fill="#F5E6D6"/>
<path d="M101.926 40.9271C101.959 40.7045 101.983 40.483 101.999 40.2643C102.096 39.8814 102.167 39.5001 102.222 39.1213C102.159 39.2535 102.093 39.3835 102.026 39.5105C102.01 37.0048 100.948 34.903 99.134 34.2523C98.7568 34.1171 98.3684 34.0522 97.9763 34.0522C97.5312 34.0522 97.0811 34.1361 96.6379 34.2951C96.6204 34.282 96.6026 34.2696 96.5844 34.2579C96.3587 34.1075 96.1135 34.036 95.8581 34.036C95.3466 34.036 94.7942 34.322 94.2764 34.8354C95.441 33.3422 96.9487 32.4494 98.4067 32.4494C98.4694 32.4494 98.5321 32.4508 98.5944 32.4542C98.9238 32.4718 99.2498 32.5367 99.5676 32.6505C101.37 33.2974 102.431 35.377 102.46 37.8624C102.449 38.8215 102.285 39.8355 101.953 40.8474C101.944 40.8739 101.935 40.9005 101.926 40.9271Z" fill="#A1F0F4"/>
<path fill-rule="evenodd" clip-rule="evenodd" d="M92.8122 37.222C93.7296 34.8087 95.4185 33.4812 96.5844 34.2578C97.7506 35.0337 97.9519 37.6195 97.0345 40.0331C96.1171 42.4463 94.4282 43.7739 93.2623 42.9977C92.0961 42.2214 91.8948 39.6356 92.8122 37.222Z" fill="white" fill-opacity="0.39"/>
<path d="M93.3686 44.7496C92.0717 43.127 91.711 40.327 92.6241 37.5446C92.7634 37.1206 92.9326 36.72 93.1158 36.3357C93.1036 36.4199 93.0924 36.5037 93.0825 36.5872C92.9868 36.789 92.896 37.0012 92.8122 37.222C92.398 38.3115 92.2119 39.4359 92.2396 40.4133C92.1981 42.1172 92.6353 43.6563 93.4606 44.7116C93.4296 44.7244 93.3996 44.7368 93.3686 44.7496Z" fill="#CFD3E4"/>
<path d="M94.0294 45.4037C93.7881 45.2155 93.5675 44.9959 93.3686 44.749C93.3998 44.7363 93.4301 44.7238 93.4614 44.711C93.6351 44.9317 93.8264 45.1316 94.0333 45.3074C94.032 45.3395 94.0307 45.3713 94.0294 45.4037Z" fill="#0CA9E4"/>
<path d="M96.1739 46.152C95.859 46.152 95.5465 46.1126 95.2403 46.0305C95.2407 46.0189 95.2407 46.007 95.241 45.9954C95.5664 46.095 95.8995 46.146 96.2353 46.1517C96.2147 46.152 96.1945 46.152 96.1739 46.152Z" fill="#9A8A90"/>
<path d="M95.2403 46.0253C95.1628 46.0032 95.0859 45.9783 95.0093 45.9502C94.6506 45.8193 94.3213 45.6308 94.0239 45.3929C94.0253 45.3599 94.0266 45.3276 94.0279 45.2949C94.3559 45.5796 94.7245 45.8017 95.1311 45.9502C95.1677 45.9635 95.204 45.9762 95.241 45.9881C95.2406 46.0004 95.2406 46.013 95.2403 46.0253Z" fill="#0F227A"/>
<path d="M96.23 46.1518C95.896 46.1459 95.5647 46.0928 95.241 45.9889C95.204 45.9772 95.1677 45.9648 95.1311 45.9517C94.7245 45.8057 94.3559 45.5874 94.0279 45.3076C93.8226 45.132 93.6329 44.9322 93.4606 44.7117C92.6353 43.6564 92.198 42.1173 92.2396 40.4134C92.273 41.6012 92.6224 42.5717 93.2623 42.9978C93.488 43.1479 93.7332 43.2193 93.9886 43.2193C94.3942 43.2193 94.8255 43.0392 95.2453 42.7087C95.4479 42.8339 95.6634 42.9384 95.8911 43.0202C96.2679 43.1555 96.656 43.2203 97.0477 43.2203C97.6754 43.2203 98.3123 43.0537 98.9268 42.7449C99.1337 43.2186 99.401 43.7989 99.7207 44.4285C98.6753 45.5011 97.4375 46.1311 96.23 46.1518ZM100.589 43.3704C100.347 42.8746 100.144 42.4237 99.9847 42.0542C100.765 41.4211 101.471 40.5538 102.026 39.5105C102.027 39.7582 102.019 40.0097 101.999 40.2644C101.951 40.4572 101.895 40.6504 101.832 40.844C101.522 41.7879 101.095 42.6397 100.589 43.3704Z" fill="#16B8D0"/>
<path d="M101.999 40.2643C102.019 40.0214 102.028 39.7815 102.026 39.5452C102.094 39.424 102.16 39.3 102.224 39.1739C102.168 39.5353 102.097 39.899 101.999 40.2643Z" fill="#84C7DC"/>
<path d="M93.9886 43.2191C93.7332 43.2191 93.488 43.1477 93.2623 42.9976C92.6224 42.5715 92.2729 41.601 92.2396 40.4132C92.2119 39.4358 92.398 38.3115 92.8122 37.222C92.896 37.0012 92.9867 36.789 93.0824 36.5872C92.7646 39.2613 93.584 41.6825 95.2452 42.7085C94.8255 43.039 94.3942 43.2191 93.9886 43.2191Z" fill="#CFD3E4"/>
<path d="M93.3273 37.7531C92.2152 41.142 93.1141 44.5465 95.3311 45.3417C95.6472 45.4552 95.9733 45.5094 96.3033 45.5094C98.2882 45.5097 100.416 43.5439 101.37 40.6383C101.921 38.9592 101.996 37.2304 101.581 35.77C101.189 34.3873 100.402 33.4213 99.366 33.0494C98.3295 32.6778 97.1415 32.9355 96.0198 33.7745C94.8348 34.6612 93.8784 36.0743 93.3273 37.7531ZM96.2745 46.7938C95.8198 46.7938 95.369 46.7186 94.9308 46.5613C92.0703 45.5352 90.8279 41.3959 92.1608 37.3346C92.7944 35.4043 93.9101 33.7673 95.302 32.7261C96.757 31.6373 98.3427 31.3188 99.7663 31.8298C101.19 32.3407 102.254 33.6093 102.764 35.4029C103.251 37.1183 103.17 39.1262 102.536 41.0565C101.407 44.4958 98.7875 46.7938 96.2745 46.7938Z" fill="#0F227A"/>
<path fill-rule="evenodd" clip-rule="evenodd" d="M116.837 24.3646C116.485 24.3646 116.144 24.3992 115.796 24.415C115.753 24.8663 115.724 25.3227 115.724 25.7854C115.724 30.9266 118.427 35.4464 122.511 38.0415C124.822 39.5102 127.575 40.3626 130.53 40.3626C133.073 40.3626 135.468 39.7323 137.56 38.6197C134.406 30.2969 126.33 24.3646 116.837 24.3646Z" fill="#18DDE6"/>
<path d="M135.737 37.7331C134.582 35.7114 133.051 33.6259 130.988 31.7846C130.9 31.8495 130.772 31.8809 130.613 31.8809C130.103 31.8809 129.273 31.5593 128.424 30.9935C127.255 30.2135 126.499 29.2668 126.675 28.8276C125.746 28.3439 124.772 27.8934 123.703 27.528C121.128 26.6489 118.665 26.2536 116.346 26.1998C116.343 26.0618 116.341 25.9241 116.341 25.7854C116.341 25.5453 116.349 25.2972 116.366 25.0268C116.526 25.0171 116.681 25.0095 116.837 25.0095C125.27 25.0095 132.973 29.9903 136.436 37.5416C136.201 37.6093 135.969 37.6731 135.737 37.7331Z" fill="#A1F0F4"/>
<path d="M93.3854 37.4602C92.5175 39.7437 92.7983 41.9248 93.5936 42.454C93.7976 42.5896 94.0309 42.6107 94.3058 42.5179C95.0869 42.2539 95.933 41.1851 96.4613 39.7951C97.3296 37.5119 97.0484 35.3308 96.2531 34.8016C96.0488 34.6653 95.8155 34.6443 95.5406 34.7374C94.7599 35.0013 93.9137 36.0701 93.3854 37.4605V37.4602ZM93.986 43.8651C93.6108 43.8651 93.2541 43.7567 92.931 43.5415C91.5057 42.5931 91.2018 39.7123 92.239 36.9841C92.9181 35.198 94.0104 33.8994 95.1611 33.5106C95.7901 33.2977 96.3967 33.3681 96.9158 33.7138C98.341 34.6625 98.6449 37.543 97.6074 40.2712C96.9286 42.0573 95.8363 43.3559 94.6856 43.7447C94.448 43.8251 94.2137 43.8651 93.986 43.8651Z" fill="#0F227A"/>
<path d="M116.366 25.0266C116.349 25.2971 116.341 25.5452 116.341 25.7853C116.341 33.4678 122.706 39.7178 130.53 39.7178C132.695 39.7178 134.84 39.2303 136.768 38.3043C133.485 30.3276 125.551 25.0094 116.837 25.0094C116.681 25.0094 116.526 25.017 116.366 25.0266ZM130.53 41.007C122.025 41.007 115.107 34.1785 115.107 25.7853C115.107 25.3489 115.131 24.8935 115.182 24.3515C115.213 24.0324 115.462 23.785 115.769 23.7709C115.886 23.7653 116.003 23.7577 116.12 23.7502C116.35 23.7353 116.589 23.7198 116.837 23.7198C121.554 23.7198 126.078 25.1429 129.919 27.8356C133.676 30.4694 136.516 34.1164 138.133 38.3823C138.25 38.6918 138.123 39.0433 137.839 39.1944C135.61 40.3802 133.083 41.007 130.53 41.007Z" fill="#0F227A"/>
<path fill-rule="evenodd" clip-rule="evenodd" d="M114.983 42.6124C115.46 41.0723 116.649 40.0956 117.639 40.4309C118.63 40.7663 119.046 42.2863 118.569 43.8264C118.091 45.3662 116.902 46.3429 115.912 46.0075C114.922 45.6725 114.506 44.1521 114.983 42.6124Z" fill="#0F227A"/>
<path fill-rule="evenodd" clip-rule="evenodd" d="M116.675 42.432C116.829 41.9407 117.214 41.6291 117.535 41.7361C117.856 41.8432 117.991 42.328 117.836 42.819C117.682 43.3107 117.296 43.6219 116.975 43.5152C116.655 43.4082 116.52 42.923 116.675 42.432Z" fill="#FDFEFD"/>
<path fill-rule="evenodd" clip-rule="evenodd" d="M117.104 47.896C118.567 47.147 124.619 49.5248 125.068 51.3291C125.518 53.1338 122.211 57.2504 117.877 55.5295C114.076 54.0201 115.108 48.9186 117.104 47.896Z" fill="#0F227A"/>
<path fill-rule="evenodd" clip-rule="evenodd" d="M116.187 49.8322C115.993 49.8322 115.807 49.8711 115.619 49.8977C114.947 51.8345 115.267 54.5069 117.854 55.5343C118.916 55.9556 119.914 56.0208 120.813 55.8617C120.832 55.662 120.866 55.4677 120.866 55.2621C120.866 52.2627 118.771 49.8322 116.187 49.8322Z" fill="#D7557A"/>
<path d="M115.68 49.9756C115.019 51.9411 115.426 54.4779 117.883 55.4535C118.833 55.8306 119.792 55.942 120.737 55.7871C120.741 55.7481 120.746 55.7095 120.751 55.6705C120.767 55.5315 120.783 55.4 120.783 55.262C120.783 52.3154 118.721 49.9183 116.187 49.9183C116.046 49.9183 115.91 49.9397 115.766 49.9625C115.737 49.967 115.708 49.9715 115.68 49.9756ZM119.908 56.0273C119.214 56.0273 118.517 55.8896 117.825 55.615C115.243 54.5896 114.831 51.9173 115.541 49.8683L115.558 49.819L115.608 49.8121C115.652 49.8059 115.697 49.799 115.741 49.7917C115.884 49.7693 116.033 49.7458 116.187 49.7458C118.812 49.7458 120.948 52.2205 120.948 55.262C120.948 55.4107 120.931 55.5536 120.914 55.6919C120.907 55.7513 120.9 55.8106 120.895 55.8699L120.888 55.9355L120.826 55.9465C120.522 56.0003 120.215 56.0273 119.908 56.0273Z" fill="#0F227A"/>
<path d="M117.376 48.4748C116.52 48.9133 115.874 50.4199 115.937 51.833C115.975 52.6831 116.305 54.2156 118.096 54.9266C120.69 55.9561 122.548 54.5871 123.226 53.9506C124.169 53.0664 124.6 52.0058 124.471 51.4915C124.375 51.1026 123.549 50.3381 121.964 49.5781C119.913 48.5938 117.899 48.2064 117.376 48.4748ZM119.941 56.5781C119.183 56.5781 118.412 56.4312 117.658 56.132C115.869 55.4217 114.793 53.8764 114.705 51.8927C114.619 49.9496 115.534 47.9825 116.833 47.3166C118.125 46.6556 121.091 47.7399 122.479 48.4061C123.773 49.0271 125.377 50.0104 125.665 51.1665C125.934 52.247 125.286 53.7515 124.05 54.9104C122.88 56.0075 121.435 56.5781 119.941 56.5781Z" fill="#0F227A"/>
<path d="M110.813 51.4446C110.809 51.4446 110.804 51.4446 110.8 51.4446C110.626 51.4408 106.52 51.3421 104.643 50.4089C101.098 48.6456 98.5357 41.8163 98.4285 41.5265C98.3054 41.1946 98.4631 40.8214 98.7806 40.6927C99.0987 40.5647 99.4554 40.7289 99.5785 41.0611C99.6033 41.127 102.07 47.7017 105.173 49.2445C106.81 50.0591 110.786 50.1543 110.826 50.155C111.166 50.1626 111.436 50.4572 111.429 50.8132C111.423 51.1645 111.148 51.4446 110.813 51.4446Z" fill="#0F227A"/>
<path fill-rule="evenodd" clip-rule="evenodd" d="M110.947 48.7575L113.95 49.1152C115.048 49.246 115.836 50.282 115.711 51.4291C115.585 52.5766 114.594 53.4005 113.497 53.2697L110.494 52.912C109.396 52.7809 108.608 51.7448 108.733 50.5977C108.858 49.4506 109.849 48.6267 110.947 48.7575Z" fill="#ECB35B"/>
<path d="M110.719 48.8299C109.758 48.8299 108.927 49.5862 108.815 50.6074C108.696 51.7055 109.453 52.7008 110.503 52.8261L113.506 53.1838C114.016 53.2453 114.516 53.0945 114.917 52.7612C115.318 52.4279 115.571 51.9515 115.629 51.4195C115.686 50.8875 115.543 50.3638 115.224 49.945C114.906 49.5258 114.45 49.2619 113.941 49.2012L110.937 48.8431C110.864 48.8344 110.791 48.8299 110.719 48.8299ZM113.728 53.3698C113.648 53.3698 113.568 53.365 113.488 53.3553L110.484 52.9975C109.344 52.8616 108.522 51.7804 108.652 50.5881C108.782 49.3954 109.815 48.537 110.956 48.6716L113.96 49.0297C114.512 49.0956 115.007 49.3823 115.354 49.8377C115.7 50.2924 115.855 50.8613 115.792 51.4392C115.73 52.0167 115.455 52.5342 115.02 52.8961C114.648 53.2056 114.196 53.3698 113.728 53.3698Z" fill="#0F227A"/>
<path fill-rule="evenodd" clip-rule="evenodd" d="M110.947 48.7575L113.95 49.1152C115.048 49.246 115.836 50.282 115.711 51.4291C115.585 52.5766 114.594 53.4005 113.497 53.2697L110.494 52.912C109.396 52.7809 108.608 51.7448 108.733 50.5977C108.858 49.4506 109.849 48.6267 110.947 48.7575Z" fill="#18DDE6"/>
<path d="M115.378 52.4141C115.378 52.3986 115.378 52.3831 115.378 52.3676C115.555 52.0965 115.673 51.7781 115.711 51.4294C115.836 50.2824 115.048 49.2466 113.95 49.1159L110.947 48.7582C110.883 48.7506 110.82 48.7461 110.757 48.7447C110.77 48.7444 110.783 48.7444 110.797 48.7444C110.871 48.7444 110.946 48.7489 111.022 48.7578L114.029 49.1152C115.126 49.2459 115.912 50.28 115.787 51.4269C115.746 51.8071 115.582 52.1278 115.378 52.4141Z" fill="#9EA5C9"/>
<path d="M115.378 52.3674C115.378 52.3343 115.378 52.3012 115.376 52.2681C115.52 52.0187 115.616 51.7341 115.65 51.4261C115.687 51.0846 115.624 50.7652 115.515 50.4641C115.423 50.7621 115.27 51.028 115.072 51.244C114.763 50.728 114.244 50.3582 113.619 50.2837L110.617 49.926C110.545 49.9174 110.473 49.9132 110.402 49.9132C109.995 49.9132 109.617 50.0508 109.301 50.2826C109.222 50.075 109.177 49.8504 109.17 49.618C109.503 49.1313 110.029 48.807 110.617 48.7525C110.664 48.7484 110.71 48.7456 110.757 48.7446C110.82 48.746 110.883 48.7504 110.947 48.758L113.95 49.1157C115.048 49.2465 115.836 50.2823 115.711 51.4292C115.673 51.7779 115.555 52.0963 115.378 52.3674Z" fill="#A1F0F4"/>
<path d="M113.662 53.2836C113.586 53.2836 113.51 53.2791 113.434 53.2698L110.432 52.9124C109.335 52.7817 108.548 51.7424 108.673 50.5955C108.72 50.1637 108.917 49.8042 109.169 49.4976C109.169 49.5038 109.169 49.5097 109.169 49.5155C108.935 49.8153 108.778 50.1857 108.733 50.5983C108.608 51.7452 109.396 52.781 110.494 52.9121L113.497 53.2698C113.564 53.2777 113.631 53.2822 113.697 53.2832C113.685 53.2832 113.673 53.2836 113.662 53.2836Z" fill="#0F227A"/>
<path d="M113.697 53.2831C113.631 53.2821 113.564 53.2776 113.497 53.2696L110.494 52.9119C109.396 52.7809 108.608 51.745 108.733 50.5981C108.778 50.1856 108.935 49.8151 109.169 49.5154C109.168 49.5499 109.169 49.584 109.17 49.6182C108.978 49.8972 108.851 50.2301 108.811 50.5961C108.804 50.6592 108.812 50.7199 108.811 50.7823C108.948 50.5892 109.114 50.4198 109.301 50.2829C109.542 50.9186 110.091 51.3987 110.788 51.4818L113.573 51.814C113.643 51.8223 113.712 51.8264 113.78 51.8264C114.284 51.8264 114.741 51.605 115.072 51.2442C115.252 51.5457 115.36 51.8968 115.376 52.2683C115.027 52.8733 114.397 53.27 113.697 53.2831Z" fill="#16B8D0"/>
<path d="M115.376 52.2682C115.36 51.8967 115.252 51.5456 115.072 51.2441C115.27 51.0282 115.423 50.7622 115.515 50.4642C115.624 50.7653 115.687 51.0848 115.65 51.4262C115.616 51.7343 115.52 52.0188 115.376 52.2682ZM108.811 50.7822C108.812 50.7198 108.804 50.6591 108.811 50.596C108.85 50.23 108.978 49.8971 109.17 49.6181C109.177 49.8506 109.222 50.0751 109.301 50.2828C109.114 50.4197 108.948 50.5891 108.811 50.7822Z" fill="#84C7DC"/>
<path d="M110.719 49.3886C110.026 49.3886 109.426 49.934 109.346 50.6709C109.26 51.4631 109.806 52.181 110.564 52.2714L113.567 52.6292C113.933 52.6733 114.296 52.5647 114.585 52.3242C114.874 52.0837 115.056 51.7401 115.098 51.3565C115.14 50.9725 115.036 50.5947 114.806 50.2925C114.576 49.9903 114.247 49.7998 113.88 49.756L110.877 49.3982C110.824 49.3917 110.771 49.3886 110.719 49.3886ZM113.729 53.9284C113.629 53.9284 113.528 53.9222 113.427 53.9105L110.424 53.5527C108.99 53.3816 107.957 52.0233 108.121 50.525C108.284 49.0263 109.582 47.9451 111.017 48.1169L114.02 48.4747C114.715 48.5575 115.336 48.918 115.772 49.49C116.207 50.0617 116.403 50.7765 116.323 51.5024C116.244 52.2283 115.899 52.8786 115.352 53.3333C114.885 53.7221 114.318 53.9284 113.729 53.9284Z" fill="#0F227A"/>
<path d="M120.302 78.189C120.451 77.9658 120.596 77.7402 120.739 77.5128C121.119 76.9115 121.465 76.2863 121.809 75.6595C121.837 75.6595 121.864 75.6598 121.892 75.6598C126.511 75.6591 131.525 73.3518 135.536 70.9123C136.108 71.0844 136.743 71.1838 137.448 71.1896C133.129 74.7559 127.014 77.6035 120.302 78.189Z" fill="#BDA495"/>
<path d="M137.448 71.1897C136.743 71.1839 136.108 71.0845 135.536 70.9124C138.199 69.2922 140.422 67.6135 141.794 66.5139C140.708 68.1223 139.231 69.7176 137.448 71.1897Z" fill="#CFD3E4"/>
<path d="M119.567 79.2081C119.827 78.8786 120.069 78.5371 120.302 78.189C127.014 77.6035 133.129 74.7559 137.448 71.1896C139.231 69.7175 140.708 68.1222 141.794 66.5138C142.671 65.8107 143.201 65.3443 143.275 65.2811C140.338 71.3635 131.124 78.4732 119.567 79.2081Z" fill="#0F227A"/>
<path d="M118.882 79.2441L119.505 78.3218C119.516 78.3228 119.527 78.3232 119.538 78.3232C119.67 78.3232 119.799 78.2524 119.871 78.1255C119.937 78.0075 119.94 77.8689 119.889 77.753L121.312 75.6482C121.478 75.6551 121.642 75.6592 121.809 75.6603C121.465 76.287 121.119 76.912 120.739 77.5133C120.596 77.7406 120.451 77.9662 120.302 78.1893C120.069 78.5374 119.827 78.8788 119.567 79.2083C119.34 79.2227 119.111 79.2348 118.882 79.2441Z" fill="#0F227A"/>
<path d="M119.539 78.3229C119.527 78.3229 119.516 78.3226 119.505 78.3215L119.895 77.7381C119.945 77.857 119.943 77.9992 119.876 78.1202C119.803 78.2504 119.672 78.3229 119.539 78.3229Z" fill="#0F227A"/>
<path fill-rule="evenodd" clip-rule="evenodd" d="M89.863 74.7885C89.863 74.7885 86.1165 74.4259 84.7262 78.1719C83.3356 81.9179 85.8937 84.1569 85.8937 84.1569C85.8937 84.1569 82.8822 92.4611 87.4626 94.6874C92.043 96.9133 103.343 82.2408 97.8351 77.0772L89.863 74.7885Z" fill="#E8C49C"/>
<path d="M96.9652 86.5128C96.6465 86.0429 96.3095 85.6203 95.961 85.2412C97.3428 83.0056 98.3928 80.6068 98.6816 79.0929C98.8591 79.7526 98.8825 80.4505 98.8271 81.1405C98.7911 81.4914 98.74 81.8408 98.6694 82.1889C98.5935 82.5364 98.5086 82.8821 98.3988 83.2226C98.1951 83.907 97.9226 84.5743 97.6216 85.227C97.4183 85.6631 97.1989 86.0919 96.9652 86.5128ZM87.087 82.0899L87.4985 81.2944C87.4236 81.5259 87.3421 81.7867 87.2589 82.0699C87.1962 82.0768 87.1388 82.0834 87.087 82.0899Z" fill="#BFA892"/>
<path d="M95.961 85.2413C95.9224 85.1996 95.8845 85.1585 95.8455 85.1178C97.3203 82.7314 98.409 80.1691 98.5753 78.7332C98.6129 78.8422 98.6459 78.9533 98.6743 79.0658C98.6766 79.0748 98.6792 79.0841 98.6816 79.0931C98.3928 80.6069 97.3428 83.0057 95.961 85.2413ZM86.8851 82.1187L87.2659 81.3821C87.5616 80.8836 87.8252 80.471 87.9939 80.2129L88.0447 80.2381C88.0364 80.2595 87.7569 80.9875 87.4444 82.0525C87.3784 82.058 87.3164 82.0642 87.2589 82.0701C87.3421 81.7868 87.4236 81.526 87.4985 81.2945L87.087 82.0901C87.0045 82.1008 86.9369 82.1108 86.8851 82.1187Z" fill="#BDA495"/>
<path d="M93.7161 94.8571C93.2706 94.499 92.832 94.1961 92.4142 93.9404C92.7544 93.6886 93.0811 93.4216 93.3979 93.1449C94.5427 92.1368 95.566 91.0021 96.464 89.7666C97.0402 88.9814 97.5642 88.1527 98.0255 87.2847C97.1171 89.8974 95.7475 92.7405 93.7161 94.8571Z" fill="#BDA495"/>
<path d="M86.3818 98.1043C86.1931 98.1043 86.0004 98.0991 85.8063 98.0891C86.6511 96.8911 87.5114 95.9381 87.9206 95.5045C87.983 95.5166 88.0454 95.5276 88.1074 95.5352C88.2421 95.5511 88.3757 95.5587 88.5074 95.5587C88.8083 95.5587 89.101 95.52 89.3806 95.459C89.7069 95.3865 90.0168 95.2848 90.3141 95.163C90.8431 95.4955 91.4279 95.8905 92.0067 96.3348C90.4527 97.4258 88.5961 98.1043 86.3818 98.1043Z" fill="#16B8D0"/>
<path d="M92.0067 96.3344C91.4278 95.8967 90.8431 95.5077 90.3141 95.1802C90.6233 95.0555 90.9183 94.9094 91.2038 94.7517C91.712 95.0188 92.2429 95.3467 92.7762 95.7493C92.5281 95.9555 92.2723 96.1506 92.0067 96.3344Z" fill="#84C7DC"/>
<path d="M85.8063 98.089C85.8046 98.089 85.8033 98.089 85.802 98.089C86.6501 96.8872 87.513 95.9328 87.9183 95.5041C87.9189 95.5041 87.9196 95.5044 87.9206 95.5044C87.5114 95.938 86.6511 96.891 85.8063 98.089Z" fill="#0F227A"/>
<path d="M85.802 98.089C85.6538 98.0811 85.5053 98.0704 85.3542 98.0569C85.341 98.0555 85.3281 98.0552 85.3156 98.0552C85.2436 98.0552 85.1819 98.0728 85.1083 98.0817C85.8449 96.9363 86.6504 95.9417 87.2236 95.2807C87.2438 95.2903 87.2652 95.2993 87.2873 95.3083L87.4477 95.3749C87.5556 95.4156 87.6662 95.4439 87.7761 95.476C87.8232 95.4849 87.8708 95.4946 87.9183 95.5036C87.513 95.9324 86.6501 96.887 85.802 98.089ZM92.7762 95.7402C92.2429 95.3314 91.712 94.9985 91.2038 94.7273C91.3229 94.6607 91.4407 94.5917 91.5565 94.5217C91.8525 94.3399 92.138 94.1449 92.4142 93.9404C92.832 94.196 93.2706 94.4989 93.7161 94.857C93.4174 95.1679 93.1039 95.4639 92.7762 95.7402Z" fill="#0F227A"/>
<path d="M85.7637 83.0302C85.6561 82.8718 85.5558 82.7076 85.468 82.5368C85.2469 82.1076 85.08 81.6481 85.0014 81.1706C84.843 80.2177 84.9763 79.2096 85.3519 78.2795C85.3964 78.1657 85.4446 78.0542 85.4968 77.9452C85.5776 78.8319 86.0564 79.9279 87.9289 79.9279C88.0123 79.9279 88.0985 79.9259 88.1876 79.9214C88.1876 79.9214 88.1153 80.0269 87.9939 80.2129L87.8955 80.1643L87.2659 81.3821C87.1283 81.6139 86.9837 81.8644 86.8385 82.1263C86.789 82.1345 86.7633 82.1397 86.7633 82.1397C86.3977 82.3909 86.0653 82.6924 85.7637 83.0302Z" fill="#BDA495"/>
<path d="M87.2659 81.382L87.9007 80.2202L87.9999 80.2666C87.8298 80.5128 87.564 80.9065 87.2659 81.382Z" fill="#9A8A90"/>
<path d="M89.8062 75.4304C89.7765 75.4279 89.7075 75.4248 89.6547 75.4245C89.5979 75.4231 89.5392 75.4238 89.4808 75.4255C89.3636 75.4279 89.2452 75.4362 89.127 75.448C88.8904 75.4721 88.6548 75.5118 88.4241 75.568C87.9628 75.6815 87.5193 75.8564 87.1213 76.1028C86.3187 76.5878 85.7115 77.3589 85.3518 78.2794C84.9763 79.2095 84.843 80.2176 85.0014 81.1705C85.0799 81.648 85.2469 82.1075 85.468 82.5367C85.5785 82.7516 85.7086 82.9558 85.8481 83.1511C85.9211 83.2456 85.9924 83.3422 86.0702 83.4295C86.1079 83.4758 86.1471 83.5168 86.1861 83.5582C86.2059 83.5796 86.225 83.6 86.2435 83.6172L86.2897 83.6624L86.3092 83.681C86.4989 83.866 86.554 84.1454 86.4705 84.3852C86.3593 84.7036 86.2511 85.0631 86.1564 85.4091C86.0603 85.7593 85.9749 86.1129 85.8993 86.4679C85.7452 87.178 85.6376 87.8956 85.5779 88.6107C85.5228 89.3256 85.5254 90.0387 85.6099 90.7266C85.7043 91.4094 85.8798 92.0707 86.1894 92.6317C86.5012 93.1882 86.9256 93.6564 87.4701 93.9617L87.6747 94.0755C87.71 94.0973 87.7414 94.1111 87.7707 94.1218L87.8611 94.1601C87.9225 94.1832 87.9879 94.198 88.0509 94.2191C88.1182 94.2291 88.1836 94.246 88.2522 94.2539C88.5268 94.2867 88.8247 94.2629 89.1267 94.1963C89.7339 94.0635 90.347 93.7678 90.9252 93.4066C91.5053 93.043 92.0578 92.6096 92.5848 92.1411C93.6352 91.1951 94.5727 90.098 95.4214 88.9381C96.2596 87.7689 97.0137 86.5318 97.6216 85.227C97.9225 84.5742 98.1951 83.907 98.3987 83.2225C98.5086 82.882 98.5934 82.5363 98.6693 82.1889C98.7399 81.8408 98.7911 81.4913 98.8271 81.1405C98.8835 80.4408 98.8584 79.7332 98.6743 79.0656C98.5056 78.3915 98.1595 77.775 97.6978 77.2371L97.6945 77.2337C97.6186 77.145 97.6255 77.0084 97.7103 76.929C97.7849 76.859 97.8951 76.8563 97.9724 76.917C98.5756 77.3917 99.0729 78.0534 99.3689 78.8086C99.5164 79.185 99.6286 79.5786 99.694 79.9785C99.7596 80.378 99.788 80.7823 99.79 81.1843C99.7893 81.9888 99.6669 82.7802 99.4864 83.5461C99.2989 84.312 99.0425 85.0514 98.7472 85.7693C98.142 87.199 97.3671 88.5359 96.4639 89.7665C95.566 91.0019 94.5427 92.1366 93.3979 93.1447C92.8234 93.6464 92.2165 94.1159 91.5565 94.5216C90.8948 94.9211 90.1873 95.2789 89.3805 95.4583C88.9785 95.5463 88.5495 95.5873 88.1073 95.5346C87.9971 95.5214 87.8862 95.4963 87.776 95.4759C87.6661 95.4438 87.5556 95.4155 87.4477 95.3748L87.2873 95.3082C87.2322 95.2858 87.1813 95.2623 87.1384 95.2365L86.8655 95.0854C86.1366 94.6762 85.5284 94.0155 85.1188 93.272C84.708 92.5237 84.4984 91.7033 84.3876 90.8998C84.2882 90.0929 84.2882 89.2914 84.3486 88.5052C84.414 87.7196 84.5311 86.9458 84.6955 86.1864C84.7766 85.8062 84.8677 85.4292 84.9703 85.0552C85.0743 84.6774 85.1812 84.3172 85.3172 83.9281L85.498 84.6508C85.4541 84.6122 85.4271 84.5846 85.3977 84.5556C85.367 84.5263 85.3393 84.4977 85.3132 84.469C85.2588 84.4117 85.205 84.3541 85.1561 84.2951C85.0535 84.1796 84.9621 84.0571 84.869 83.9353C84.6908 83.6872 84.5268 83.4285 84.3856 83.1553C84.1041 82.6105 83.8909 82.0188 83.7883 81.4023C83.7569 81.2498 83.7487 81.0932 83.7289 80.9386C83.7213 80.861 83.7104 80.7837 83.7061 80.7061L83.7035 80.4729C83.7055 80.3176 83.6939 80.1607 83.7088 80.0068L83.7533 79.5455C83.7625 79.3899 83.8028 79.2426 83.8309 79.0922C83.8632 78.9428 83.8886 78.7907 83.9282 78.6444L84.0638 78.2121C84.1097 78.0682 84.1519 77.9233 84.2133 77.7836C84.4394 77.2202 84.7364 76.6734 85.1274 76.1963C85.5122 75.7157 85.9818 75.3055 86.4979 74.9901C87.0134 74.6721 87.574 74.4523 88.1443 74.3122C88.4301 74.2425 88.7188 74.1939 89.0102 74.1642C89.1561 74.1501 89.3019 74.1397 89.4501 74.1363C89.524 74.1342 89.5983 74.1335 89.6742 74.1349C89.7534 74.1366 89.8171 74.138 89.9197 74.1463C90.2593 74.1746 90.5127 74.4851 90.4856 74.8401C90.4589 75.1951 90.1619 75.46 89.8223 75.4317L89.8062 75.4304Z" fill="#0F227A"/>
<path fill-rule="evenodd" clip-rule="evenodd" d="M87.8906 82.0237C87.192 82.0533 86.7633 82.1396 86.7633 82.1396C86.2205 82.5125 85.7509 82.9966 85.3466 83.5451C85.6321 83.9298 85.867 84.1547 85.867 84.1547C85.867 84.1547 82.8574 92.4613 87.4378 94.6872C90.0112 95.9379 94.7057 91.8513 97.3487 87.1166C94.5153 82.3552 89.9828 81.935 87.8906 82.0237Z" fill="#18DDE6"/>
<path d="M88.474 94.965C88.4413 94.965 88.4087 94.9643 88.3763 94.9629C88.2875 94.9601 88.2017 94.9494 88.1159 94.9381C88.0364 94.9263 87.9566 94.9167 87.88 94.8977C87.8793 94.8973 87.8787 94.8973 87.878 94.8973C87.877 94.8973 87.8764 94.8973 87.8754 94.8977C87.8744 94.8977 87.8734 94.8977 87.8724 94.8977C87.8717 94.8977 87.8708 94.8977 87.8701 94.8977C87.8519 94.8929 87.8354 94.8825 87.8173 94.8773C87.6916 94.8421 87.5685 94.7983 87.451 94.7414C85.4469 93.7675 84.8885 91.6547 84.8965 89.5826C84.9011 91.6461 85.4667 93.7295 87.4378 94.6872C87.7566 94.8421 88.108 94.9153 88.4842 94.9153C90.8853 94.9153 94.2906 91.9379 96.6336 88.3058L96.785 88.0974C95.5291 90.1074 93.9408 91.94 92.3558 93.2051C91.9288 93.5463 91.4988 93.8351 91.079 94.0866C91.0143 94.1249 90.9506 94.1615 90.8863 94.1973C90.5428 94.3923 90.2081 94.5427 89.8795 94.6659C89.7455 94.7152 89.6102 94.7707 89.4795 94.807C89.3805 94.8352 89.2825 94.8622 89.1858 94.8825C88.9416 94.9325 88.7024 94.965 88.474 94.965ZM97.2546 87.3098C97.252 87.306 97.2494 87.3015 97.2464 87.2973C97.2728 87.2508 97.2992 87.2045 97.3253 87.158C97.3279 87.1621 97.3305 87.1666 97.3328 87.1707C97.3071 87.2173 97.281 87.2635 97.2546 87.3098Z" fill="#0F227A"/>
<path d="M88.4843 94.9155C88.1081 94.9155 87.7566 94.8423 87.4378 94.6874C85.4667 93.7297 84.9011 91.6462 84.8965 89.5828C84.8975 89.3385 84.9064 89.0946 84.9216 88.8531C85.0664 86.5658 85.7898 84.503 85.8515 84.3298L86.7135 82.6676C86.8184 82.6728 86.9791 82.6821 87.1854 82.6994C86.3676 85.7105 85.608 90.5119 88.9496 90.9838C89.0684 91.0008 89.1878 91.009 89.3083 91.009C91.2698 91.009 93.4475 88.8404 95.2136 86.2518C96.004 87.3513 96.1373 88.505 95.7004 89.5883L96.6336 88.306C94.2906 91.9381 90.8853 94.9155 88.4843 94.9155ZM97.2464 87.2975C97.0837 87.0443 96.5699 86.2829 95.7571 85.4221C95.7928 85.3655 95.8284 85.3086 95.8634 85.2517C96.3798 85.8013 96.8771 86.4074 97.3253 87.1581C97.2992 87.2047 97.2728 87.2509 97.2464 87.2975ZM86.7481 82.6007L86.9692 82.1739C87.0233 82.1646 87.2085 82.1508 87.3451 82.1339C87.3154 82.2347 87.2854 82.3388 87.2557 82.4451C87.0877 82.4906 86.9191 82.5424 86.7481 82.6007Z" fill="#16B8D0"/>
<path d="M96.785 88.0975C96.9487 87.8375 97.1068 87.5744 97.2585 87.3092C97.2905 87.3589 97.3068 87.3858 97.3068 87.3858L96.785 88.0975Z" fill="#9EA5C9"/>
<path d="M95.2136 86.2518C95.1251 86.1286 95.0284 86.0061 94.9232 85.8844C92.7749 83.3983 88.7221 82.828 87.1853 82.6993C87.2088 82.6127 87.2319 82.5285 87.2556 82.445C87.9311 82.2619 88.5799 82.1804 89.201 82.1804C92.0921 82.1804 94.3642 83.9472 95.7571 85.4221C95.5809 85.7018 95.3997 85.9792 95.2136 86.2518ZM86.7134 82.6676C86.6224 82.6634 86.5732 82.6624 86.5732 82.6624C86.6316 82.641 86.69 82.6203 86.7481 82.6006L86.7134 82.6676Z" fill="#A1F0F4"/>
<path d="M96.6336 88.3058C96.8489 87.9898 97.0555 87.6683 97.2515 87.3438C97.2545 87.3477 97.2571 87.352 97.2598 87.3556C97.1081 87.6084 96.95 87.8592 96.7863 88.107L96.6336 88.3058Z" fill="#9EA5C9"/>
<path d="M95.7003 89.5883C96.1373 88.505 96.0039 87.3513 95.2136 86.2518C95.3997 85.9792 95.5809 85.7018 95.7571 85.422C96.5699 86.2828 97.0837 87.0442 97.2464 87.2975C97.052 87.6376 96.8471 87.9747 96.6336 88.3059L95.7003 89.5883ZM87.1853 82.6993C86.9791 82.682 86.8184 82.6727 86.7134 82.6676L86.7481 82.6006C86.919 82.5423 87.0877 82.4906 87.2556 82.445C87.2319 82.5285 87.2088 82.6127 87.1853 82.6993Z" fill="#A1E1EB"/>
<path d="M85.3119 83.9324C85.3836 83.6581 85.4717 83.4159 85.575 83.1696C85.6241 83.0471 85.6779 82.9264 85.7357 82.808C85.7911 82.6883 85.8485 82.5696 85.9119 82.454C86.1531 81.9855 86.4445 81.5446 86.7521 81.1172C87.0633 80.6914 87.3999 80.2837 87.7685 79.9073C88.1437 79.5371 88.5473 79.1924 88.9974 78.9316C89.0409 78.9064 89.0957 78.9226 89.1198 78.9682C89.137 79.0006 89.134 79.0386 89.1159 79.0668L89.1142 79.0693C88.8327 79.5022 88.5826 79.9335 88.3503 80.3758C88.1189 80.8188 87.9084 81.2704 87.7015 81.7223C87.4965 82.176 87.3121 82.6393 87.1042 83.0889C86.9009 83.5374 86.6913 83.999 86.4557 84.415L86.4448 84.4344C86.2699 84.7428 85.8891 84.8446 85.5941 84.6621C85.3482 84.5099 85.24 84.2073 85.3119 83.9324Z" fill="#0F227A"/>
<path d="M87.8905 82.0238H87.8922H87.8905ZM86.1528 83.5408C86.2333 83.6305 86.2838 83.6795 86.2848 83.6805C86.4689 83.8589 86.5326 84.1376 86.4435 84.3833C86.4158 84.4606 83.6913 92.1558 87.6978 94.1026C89.6854 95.0693 93.9553 91.7062 96.623 87.1298C94.0081 83.0467 90.0659 82.5769 87.9156 82.6683C87.4817 82.6866 87.1593 82.7283 86.9966 82.7535C86.7016 82.9691 86.4194 83.2327 86.1528 83.5408ZM88.4647 95.5554C88.007 95.5554 87.5751 95.465 87.1777 95.2722C82.6838 93.088 84.5968 86.0727 85.1588 84.3163C85.071 84.2135 84.9687 84.0876 84.8595 83.9406C84.6872 83.7088 84.6866 83.3845 84.8582 83.152C85.3284 82.5137 85.8554 81.9921 86.4247 81.6009C86.492 81.5546 86.5676 81.5225 86.6468 81.5067C86.6659 81.5029 87.1292 81.4111 87.8655 81.3797C89.857 81.2942 94.8225 81.6512 97.8724 86.7759C97.9932 86.9791 97.9965 87.235 97.8813 87.4417C95.4862 91.7325 91.4404 95.5551 88.4647 95.5554Z" fill="#0F227A"/>
<path fill-rule="evenodd" clip-rule="evenodd" d="M96.4243 71.2186C96.4243 71.2186 99.0746 68.8747 96.8642 65.6697C94.1394 61.7198 85.864 64.5018 85.8838 70.1474C85.9016 75.3228 90.6982 75.2841 92.1056 75.2455C92.2594 75.2414 92.3729 75.2372 92.435 75.2396C93.5916 75.2883 96.3521 74.3585 96.4243 71.2186Z" fill="white" fill-opacity="0.39"/>
<path d="M95.8076 71.1993L95.763 70.8377C95.7482 70.7097 95.7244 70.5828 95.7053 70.4565C95.6578 70.2057 95.6017 69.9618 95.5268 69.732C95.3723 69.2749 95.1624 68.8712 94.8202 68.5797C94.649 68.4365 94.4513 68.3099 94.2259 68.2171C93.9975 68.1353 93.7517 68.0574 93.4893 68.0246C92.966 67.9387 92.4017 67.9625 91.8268 68.0025H91.8255C91.776 68.006 91.7331 67.9666 91.7298 67.9149C91.7275 67.8762 91.7479 67.8417 91.7786 67.8252C92.3023 67.5468 92.8703 67.3353 93.4907 67.2566C93.6461 67.24 93.8028 67.2242 93.9642 67.2283C94.1246 67.2207 94.2879 67.2445 94.4523 67.2632C94.7796 67.3197 95.1159 67.4229 95.4241 67.6033C95.733 67.781 96.0181 68.0208 96.2458 68.304C96.4768 68.5859 96.6491 68.9067 96.7771 69.2342C96.9055 69.5622 96.9883 69.9003 97.0319 70.2384C97.0543 70.4075 97.0656 70.5769 97.0689 70.747C97.0702 70.8318 97.0675 70.9171 97.0639 71.0033C97.0593 71.094 97.053 71.1662 97.0385 71.28C96.9933 71.6326 96.6834 71.88 96.3462 71.833C96.0637 71.7934 95.8518 71.5594 95.8168 71.2776L95.8076 71.1993Z" fill="#0F227A"/>
<path d="M92.9564 64.4561C92.2687 64.4561 91.5331 64.5799 90.7827 64.8349C88.8011 65.5083 86.4904 67.303 86.5006 70.1451C86.5052 71.4996 86.8722 72.5563 87.5916 73.2853C88.9783 74.6905 91.3784 74.6222 92.1671 74.5987C92.3004 74.5953 92.4004 74.5932 92.4598 74.5956C92.9841 74.6174 94.051 74.3679 94.845 73.5896C95.4614 72.9852 95.7852 72.1824 95.8079 71.2033C95.8122 71.0197 95.8908 70.8472 96.0241 70.7282C96.2508 70.524 98.1717 68.6682 96.364 66.0469C95.6479 65.0088 94.4087 64.4561 92.9564 64.4561ZM91.6777 75.897C90.4775 75.897 88.2315 75.7297 86.7329 74.211C85.766 73.2312 85.273 71.865 85.2671 70.1496C85.2569 67.2395 87.2722 64.6717 90.4016 63.6088C93.2564 62.6386 95.9894 63.2997 97.3646 65.2927C99.2508 68.0275 98.0632 70.4446 97.0276 71.5144C96.9418 72.7144 96.4818 73.7525 95.6885 74.5301C94.681 75.5185 93.3151 75.9211 92.4103 75.8842C92.3674 75.8825 92.2964 75.8856 92.201 75.888C92.0648 75.8922 91.8872 75.897 91.6777 75.897Z" fill="#0F227A"/>
<path d="M91.6865 74.6073C90.6497 74.6073 88.7604 74.47 87.5915 73.2853C87.0932 72.7802 86.7639 72.1178 86.6072 71.3081C87.3695 72.0667 88.7614 72.9578 91.1133 72.9768C91.1265 72.9772 91.139 72.9772 91.1522 72.9772C94.0384 72.9768 94.8466 70.3421 95.0726 68.8427C95.273 69.0959 95.4145 69.3999 95.5267 69.7321C95.6016 69.9619 95.6577 70.2058 95.7053 70.4566C95.7244 70.5829 95.7482 70.7098 95.763 70.8378L95.8076 71.1994L95.8079 71.2028V71.2032C95.7851 72.1823 95.4614 72.9851 94.8449 73.5896C94.082 74.3375 93.0669 74.5969 92.5234 74.5969C92.5016 74.5969 92.4802 74.5966 92.4597 74.5956C92.4419 74.5949 92.4204 74.5945 92.3954 74.5945C92.3373 74.5945 92.2604 74.5963 92.167 74.5987C92.0432 74.6025 91.8799 74.6073 91.6865 74.6073ZM96.8738 69.5099C96.8451 69.4175 96.8127 69.3257 96.7771 69.2343C96.6491 68.9069 96.4768 68.586 96.2458 68.3042C96.1504 68.1855 96.0452 68.0747 95.9323 67.9726C96.5068 67.9367 96.7708 67.4969 96.8863 67.0142C97.2797 68.0209 97.1437 68.8744 96.8738 69.5099Z" fill="#CFD3E4"/>
<path d="M95.8079 71.2028L95.8076 71.1993L95.763 70.8378C95.7482 70.7098 95.7244 70.5829 95.7053 70.4567C95.6577 70.2059 95.6016 69.962 95.5267 69.7323C95.4145 69.4001 95.273 69.0962 95.0726 68.8431C95.1624 68.2463 95.1604 67.8296 95.1604 67.8296C95.4294 67.9311 95.6591 67.9756 95.8551 67.9756C95.8815 67.9756 95.9072 67.9749 95.9323 67.9731C96.0452 68.0752 96.1504 68.186 96.2458 68.3046C96.4768 68.5864 96.6491 68.9072 96.7771 69.2346C96.8127 69.326 96.8451 69.4177 96.8738 69.5102C96.5798 70.2018 96.127 70.6353 96.024 70.7281C95.891 70.8471 95.8122 71.0192 95.8079 71.2028Z" fill="#0F227A"/>
<path d="M91.7139 75.1385C90.0237 75.1385 86.1673 74.7976 85.9191 70.4382C86.0353 70.6328 86.2534 70.956 86.6072 71.3079C86.7639 72.1177 87.0933 72.78 87.5916 73.2851C88.7604 74.4699 90.6497 74.6072 91.6866 74.6072C91.8799 74.6072 92.0433 74.6023 92.167 74.5985C92.2604 74.5961 92.3373 74.5944 92.3954 74.5944C92.4205 74.5944 92.4419 74.5948 92.4597 74.5954C92.4802 74.5965 92.5017 74.5968 92.5234 74.5968C93.0669 74.5968 94.082 74.3374 94.845 73.5894C95.4614 72.985 95.7852 72.1822 95.8079 71.2031V71.2027C95.8122 71.0192 95.8911 70.847 96.0241 70.728C96.127 70.6352 96.5798 70.2015 96.8738 69.5098C97.1438 68.8743 97.2797 68.0208 96.8864 67.0141C97.0339 66.3962 96.9382 65.7082 96.9382 65.7082L96.9722 65.7183C98.9825 68.8384 96.4323 71.1078 96.4323 71.1078C96.362 74.1714 93.7326 75.1295 92.5304 75.1295C92.5003 75.1295 92.4713 75.1288 92.4429 75.1278C92.4291 75.1271 92.4129 75.1267 92.3941 75.1267C92.3304 75.1267 92.2386 75.1298 92.1238 75.1326C92.009 75.1357 91.8707 75.1385 91.7139 75.1385Z" fill="#0F227A"/>
<path d="M130.53 39.7178C123.094 39.7178 116.976 34.0729 116.387 26.918C117.288 29.6587 119.254 33.9712 123.182 36.5076C125.347 37.9059 127.838 38.6059 130.629 38.6059C132.26 38.6059 133.994 38.3668 135.825 37.8879C135.952 38.1146 136.075 38.3402 136.193 38.5645C134.418 39.3214 132.483 39.7178 130.53 39.7178Z" fill="#19BCCD"/>
<path d="M136.196 38.5644C136.077 38.3398 135.953 38.1138 135.825 37.8869C136.053 37.8278 136.282 37.7649 136.513 37.6986C136.603 37.8983 136.691 38.1004 136.775 38.3039C136.584 38.3951 136.391 38.4818 136.196 38.5644Z" fill="#87CBD8"/>
<path d="M131.045 40.3205C130.702 40.3205 130.348 40.3067 129.983 40.2767C123.391 39.7296 115.847 35.4157 115.869 25.0912C115.974 25.5373 116.141 26.169 116.387 26.918C116.976 34.0729 123.094 39.7178 130.53 39.7178C132.483 39.7178 134.418 39.3214 136.193 38.5645C136.387 38.482 136.578 38.3954 136.767 38.3044C136.684 38.1011 136.597 37.8993 136.507 37.6999C136.71 37.6413 136.913 37.5795 137.118 37.5153L137.381 38.5534C137.021 38.7987 134.637 40.3205 131.045 40.3205Z" fill="#122677"/>
<path d="M130.629 38.6057C127.838 38.6057 125.347 37.9057 123.182 36.5075C119.254 33.971 117.288 29.6585 116.387 26.9178C116.369 26.6936 116.355 26.468 116.348 26.2409C117.134 28.8809 119.07 33.6505 123.27 36.3615C125.408 37.7419 127.87 38.4329 130.629 38.4329C132.233 38.4329 133.937 38.1997 135.737 37.7329C135.767 37.7846 135.796 37.8364 135.825 37.8878C133.994 38.3667 132.26 38.6057 130.629 38.6057Z" fill="#16B8D0"/>
<path d="M135.825 37.8879C135.795 37.8385 135.767 37.7888 135.737 37.7391C135.968 37.6814 136.2 37.6201 136.434 37.5551C136.458 37.6058 136.482 37.6562 136.505 37.7073C136.277 37.7709 136.05 37.8312 135.825 37.8879Z" fill="#84C7DC"/>
<path d="M115.74 23.7429L115.746 23.5096L115.777 23.741C115.764 23.7418 115.753 23.7425 115.74 23.7429Z" fill="#CFD3E4"/>
<path d="M115.739 23.7729L115.74 23.7277C115.754 23.7272 115.767 23.7261 115.782 23.7251L115.786 23.7682C115.781 23.7688 115.775 23.7693 115.769 23.7698C115.759 23.7703 115.749 23.7713 115.739 23.7729Z" fill="#0F227A"/>
<path d="M131.038 40.4931C130.693 40.4931 130.337 40.4789 129.97 40.4486C126.343 40.1477 122.837 38.6977 120.352 36.4704C117.096 33.5534 115.537 29.4793 115.718 24.3616L115.739 23.773C115.748 23.772 115.759 23.7713 115.769 23.7709C115.775 23.7706 115.78 23.7702 115.786 23.7699L115.881 24.3502C115.885 24.3743 116.012 25.1133 116.348 26.2411C116.355 26.4681 116.369 26.6938 116.387 26.918C116.141 26.169 115.974 25.5373 115.869 25.0912C115.847 35.4157 123.391 39.7296 129.983 40.2768C130.348 40.3068 130.702 40.3206 131.045 40.3206C134.637 40.3206 137.021 38.7988 137.381 38.5535L137.118 37.5154C136.913 37.5795 136.71 37.6413 136.507 37.7C136.484 37.6468 136.46 37.5944 136.436 37.5416C136.673 37.4733 136.912 37.4008 137.152 37.3246L137.233 37.2984L137.571 38.627L137.524 38.6615C137.496 38.6815 134.985 40.4931 131.045 40.4931C131.043 40.4931 131.04 40.4931 131.038 40.4931Z" fill="#0F227A"/>
<path fill-rule="evenodd" clip-rule="evenodd" d="M126.533 46.7524C127.01 45.2123 128.199 44.2356 129.189 44.571C130.18 44.9063 130.595 46.4264 130.119 47.9665C129.641 49.5062 128.452 50.4829 127.462 50.1475C126.471 49.8126 126.056 48.2921 126.533 46.7524Z" fill="#0F227A"/>
<path fill-rule="evenodd" clip-rule="evenodd" d="M128.225 46.5718C128.379 46.0805 128.764 45.769 129.085 45.876C129.406 45.983 129.541 46.4679 129.386 46.9588C129.232 47.4505 128.846 47.7617 128.525 47.655C128.205 47.548 128.07 47.0628 128.225 46.5718Z" fill="#FDFEFD"/>
<path d="M137.412 71.699C135.424 71.699 133.767 71.1105 132.472 69.9423C129.912 67.6329 129.747 63.9203 129.741 63.7637C129.728 63.408 129.994 63.1082 130.334 63.0944C130.676 63.0864 130.96 63.358 130.974 63.713C130.976 63.7551 131.134 67.0391 133.285 68.9725C134.575 70.132 136.343 70.5933 138.541 70.3428C138.88 70.3035 139.184 70.5598 139.221 70.9142C139.258 71.2681 139.013 71.5862 138.674 71.6249C138.24 71.6742 137.819 71.699 137.412 71.699Z" fill="#0F227A"/>
<path d="M91.4348 107.184L81.3797 117.837L90.52 106.318C90.7378 106.044 91.1269 106.006 91.3893 106.234C91.6516 106.461 91.6879 106.868 91.4704 107.142C91.4592 107.156 91.4467 107.171 91.4348 107.184Z" fill="#0F227A"/>
<path d="M87.1972 94.7052L67.9767 117.837L86.2491 93.88C86.4616 93.6016 86.8497 93.556 87.116 93.7779C87.3823 94 87.4262 94.4058 87.2137 94.6842C87.2088 94.6907 87.2022 94.699 87.1972 94.7052Z" fill="#0F227A"/>
<path d="M84.8644 81.8734L69.1047 98.5904L83.9626 80.994C84.1879 80.727 84.578 80.7014 84.8334 80.9371C85.0888 81.173 85.1129 81.5805 84.8875 81.8475C84.8806 81.8561 84.8717 81.8658 84.8644 81.8734Z" fill="#0F227A"/>
<path d="M128.856 77.7657L113.314 96.4102L127.905 76.9442C128.115 76.6637 128.503 76.6148 128.771 76.8345C129.039 77.0539 129.086 77.4597 128.876 77.7398C128.87 77.7481 128.862 77.7577 128.856 77.7657Z" fill="#0F227A"/>
<path d="M124.114 78.77L116.775 86.8827L123.171 77.9396C123.375 77.6539 123.762 77.5953 124.035 77.8088C124.309 78.0224 124.365 78.4271 124.161 78.7131C124.146 78.7327 124.13 78.752 124.114 78.77Z" fill="#0F227A"/>
<path d="M85.6446 92.2524L75.6565 103.356L84.711 91.4095C84.9229 91.1301 85.3109 91.0832 85.5782 91.3043C85.8455 91.5258 85.8904 91.9315 85.6786 92.211C85.668 92.2251 85.6561 92.2396 85.6446 92.2524Z" fill="#0F227A"/>
<path d="M87.6031 107.998L83.883 111.642L86.657 107.171C86.8438 106.87 87.2286 106.784 87.5163 106.979C87.8041 107.175 87.8863 107.577 87.6995 107.878C87.6721 107.922 87.6378 107.964 87.6031 107.998Z" fill="#0F227A"/>
<path d="M86.3244 76.7378L78.2004 84.4927L85.4429 75.836C85.6677 75.5676 86.0577 75.5403 86.3145 75.7749C86.5712 76.0099 86.5973 76.4177 86.3729 76.6861C86.3577 76.7044 86.3412 76.722 86.3244 76.7378Z" fill="#0F227A"/>
</svg>
