<?xml version="1.0" encoding="UTF-8" standalone="no"?>
<!-- Created with Inkscape (http://www.inkscape.org/) -->

<svg
   version="1.1"
   id="svg2"
   xml:space="preserve"
   width="5333.3335"
   height="5333.3335"
   viewBox="0 0 5333.3335 5333.3335"
   sodipodi:docname="18354578.eps"
   xmlns:inkscape="http://www.inkscape.org/namespaces/inkscape"
   xmlns:sodipodi="http://sodipodi.sourceforge.net/DTD/sodipodi-0.dtd"
   xmlns="http://www.w3.org/2000/svg"
   xmlns:svg="http://www.w3.org/2000/svg"><defs
     id="defs6" /><sodipodi:namedview
     id="namedview4"
     pagecolor="#ffffff"
     bordercolor="#666666"
     borderopacity="1.0"
     inkscape:pageshadow="2"
     inkscape:pageopacity="0.0"
     inkscape:pagecheckerboard="0" /><g
     id="g8"
     inkscape:groupmode="layer"
     inkscape:label="ink_ext_XXXXXX"
     transform="matrix(1.3333333,0,0,-1.3333333,0,5333.3333)"><g
       id="g10"
       transform="scale(0.1)"><path
         d="M 0,0 H 40000 V 40000 H 0 Z"
         style="fill:#ffffff;fill-opacity:1;fill-rule:evenodd;stroke:none"
         id="path12" /><path
         d="m 9678.17,18364.8 c 0,5144.5 4170.43,9314.9 9314.83,9314.9 5144.4,0 9314.8,-4170.4 9314.8,-9314.9 0,-5144.4 -4170.4,-9314.8 -9314.8,-9314.8 -5144.4,0 -9314.83,4170.4 -9314.83,9314.8"
         style="fill:#0bcbff;fill-opacity:1;fill-rule:evenodd;stroke:none"
         id="path14" /><path
         d="m 21365.6,22370.9 c 1695.9,-538 3820.3,-860.2 5126.2,-217.2 1305.8,642.9 3303.3,2265.2 4309.6,860.5 1196.7,-1670.4 -2454.3,-5691.1 -7471.1,-5889.3 0,0 -8040.3,-10212.4 -10508.5,-7993.5 -1310.1,1177.8 1039.3,3395.6 1039.3,3395.6 l -317.9,5431.4 c 0,0 -1347.9,97.4 -1352.4,1419.7 -6.1,1813.4 2288.5,5177.5 9174.8,2992.8"
         style="fill:#ea5656;fill-opacity:1;fill-rule:evenodd;stroke:none"
         id="path16" /><path
         d="m 17295.6,23062.1 c -1719,0 -2850,-488.3 -3571.1,-1017.9 -1116.2,-819.8 -1511.2,-1914.7 -1508.7,-2666 4.4,-1284.3 1316,-1393.9 1329.2,-1394.8 l 21.9,-1.6 1.3,-21.9 318.6,-5443.1 -8.5,-8 c -14.4,-13.6 -1442.5,-1375.2 -1428.7,-2509 4.1,-335.5 135,-621.5 389,-849.8 262.2,-235.8 603.6,-337.7 1013.9,-302.2 3106.1,267.2 9395,8212.4 9458.2,8292.6 l 7.1,9 11.5,0.5 c 2101.9,83.1 3731.7,817.1 4728.7,1418.3 1237.6,746.1 2212,1715.2 2673.4,2658.8 345.2,706 362.9,1335.4 49.7,1772.7 -800.8,1117.7 -2277.4,265.2 -3464,-419.7 -290,-167.4 -563.9,-325.5 -814.3,-448.8 -1578.9,-777.3 -4123.8,-108 -5144.8,215.9 -1625.1,515.5 -2963.9,715 -4062.4,715 M 13696.7,8791 c -354.3,0 -653.6,107.9 -891.6,321.8 -264.8,238.1 -401.2,536.3 -405.5,886.4 -13.4,1109.4 1316.3,2422.2 1435.9,2537.9 l -316,5398.7 c -176.1,20.7 -1349.5,205.7 -1353.7,1442.2 -2.6,763.6 397.8,1875.6 1529.2,2706.6 1191.1,874.8 3490.1,1638.7 7678.2,310.1 1015.1,-322 3544.9,-988 5107.6,-218.6 248.8,122.5 522.1,280.2 811.3,447.2 1204.1,695.1 2702.5,1560.1 3529.6,405.5 324.4,-452.9 308.3,-1100.5 -45.4,-1823.8 -465.5,-952 -1446.9,-1928.7 -2692.5,-2679.7 -1000.2,-603 -2634.1,-1339.2 -4741,-1424.9 -118.2,-149.3 -1664,-2092.4 -3550,-4042.2 -2625.1,-2713.9 -4622.2,-4147.2 -5936,-4260.1 -54.5,-4.8 -107.9,-7.1 -160.1,-7.1"
         style="fill:#0f227a;fill-opacity:1;fill-rule:nonzero;stroke:none"
         id="path18" /><path
         d="m 17295.1,22900.7 c -1675.7,0 -2775,-473 -3474.7,-986.9 -1068.5,-784.8 -1445,-1856.1 -1442.7,-2535 3.8,-1129.3 1131.5,-1230.3 1179.5,-1234 93.1,-7.3 167.1,-82.2 172.6,-175.4 l 317.9,-5431.5 c 3.3,-55.1 -18.1,-108.8 -58.2,-146.7 -13.9,-13.2 -1391.3,-1327.7 -1378,-2389.8 3.7,-292.4 113.3,-531.5 335.3,-731 230.8,-207.6 522.4,-293 891.8,-261.3 3036.5,261.1 9282.1,8151.7 9344.9,8231.4 33.8,43 84.8,69 139.5,71.1 3391.5,134.1 6356.2,2132.2 7263,3986.5 317.8,649.9 340.4,1220.8 63.5,1607.3 -715.4,998.5 -2062.7,220.7 -3251.4,-465.6 -292.4,-168.8 -568.6,-328.2 -823.8,-453.8 -1631.6,-803.2 -4225.6,-123 -5265.2,206.8 -1609.9,510.7 -2932.1,707.9 -4014,707.9 M 13695.3,8629.1 c -394.5,0 -729.7,121.8 -998.4,363.3 -299.8,269.6 -454.3,607.6 -459.1,1004.9 -13.4,1095.6 1142,2315.4 1431.8,2603.9 l -303.9,5191.9 c -544.9,98.6 -1358.1,515.5 -1361.8,1584.4 -2.7,803.4 414.9,1970.6 1595.2,2837.5 1221.4,897.2 3570.1,1683.3 7823,334 2075.2,-658.3 3939.5,-743.4 4987.2,-227.7 244,120.2 515,276.6 801.9,442.3 610.9,352.6 1303.3,752.3 1948.3,915.8 783.6,198.5 1387.1,11.4 1793.8,-556.3 360.7,-503.5 349.5,-1210 -31.5,-1989.2 -478.9,-979.2 -1482.8,-1980.5 -2754.4,-2747.2 -1004.6,-605.7 -2638.3,-1343.6 -4743.6,-1444.8 -662.1,-832.9 -6475.7,-8040.5 -9553.1,-8305.2 -59.7,-5.1 -118.2,-7.6 -175.4,-7.6"
         style="fill:#0f227a;fill-opacity:1;fill-rule:nonzero;stroke:none"
         id="path20" /><path
         d="m 14503.9,18322.2 c 0,0 -1135.3,105.1 -1556.6,-980.7 -421.4,-1085.8 353.8,-1734.8 353.8,-1734.8 0,0 -912.6,-2407 475.4,-3052.3 1388,-645.2 4812.3,3607.7 3143.2,5104.4 l -2415.8,663.4"
         style="fill:#ea5656;fill-opacity:1;fill-rule:evenodd;stroke:none"
         id="path22" /><path
         d="m 14099.5,12461.8 c -119.1,0 -231,22.3 -333.5,70 -1332.9,619.6 -570.5,2854.6 -494.1,3067.7 -101.5,94.2 -740,740.7 -347.9,1751.1 423.2,1090.7 1570.8,997.4 1582.2,996.5 l -4.6,-49.8 c -11.1,0.9 -1121.6,90.1 -1531,-964.8 -410.2,-1056.9 339,-1700.2 346.6,-1706.6 l 13.6,-11.4 -6.3,-16.6 c -9,-23.9 -888.4,-2392.8 462.5,-3020.8 729,-339.1 2017.1,720 2792.3,1895.4 692.8,1050.5 1141.7,2434.2 323.7,3167.7 l 33.4,37.2 c 841.6,-754.7 389,-2164.6 -315.3,-3232.4 -696,-1055.4 -1754.6,-1983.1 -2521.6,-1983.2"
         style="fill:#0f227a;fill-opacity:1;fill-rule:nonzero;stroke:none"
         id="path24" /><path
         d="m 14097.7,12300.2 c -141.2,-0.1 -275.4,26.8 -400,84.8 -1357.3,630.9 -785.4,2652.6 -612.8,3170 -295,313.3 -645.9,993.3 -311.8,1854.2 373.6,962.8 1306.6,1140.2 1748,1099.1 102.8,-9.6 178.4,-100.6 168.9,-203.4 -9.5,-102.6 -100.7,-178.4 -202.8,-168.9 -42.5,3.7 -1002.5,73.8 -1365.7,-862.1 -365.4,-941.6 272.9,-1501.1 300.3,-1524.4 60,-51.3 82.1,-135.2 54.1,-209 -8.5,-22.4 -834.6,-2252.3 379.4,-2816.6 571.1,-265.5 1756.8,576.1 2588.9,1837.7 655.7,994.2 1092.1,2293.2 350.7,2958 -76.9,69 -83.3,187.1 -14.4,263.9 68.9,76.9 187.1,83.4 263.9,14.4 918.3,-823.3 453.2,-2317.9 -288.2,-3442 -711.8,-1079.4 -1809.1,-2055.7 -2658.5,-2055.7"
         style="fill:#0f227a;fill-opacity:1;fill-rule:nonzero;stroke:none"
         id="path26" /><path
         d="m 23327.5,16932.4 c -37,0 -74.5,11 -107.1,33.9 -84.5,59.3 -105,175.8 -45.7,260.3 10.7,15.3 1074.3,1532.7 1401.8,2126.5 49.9,90.3 163.5,123.3 253.9,73.3 90.4,-49.8 123.3,-163.5 73.4,-253.9 -337.2,-611.3 -1378.9,-2097.6 -1423.1,-2160.5 -36.4,-51.9 -94.3,-79.6 -153.2,-79.6"
         style="fill:#0f227a;fill-opacity:1;fill-rule:nonzero;stroke:none"
         id="path28" /><path
         d="m 15441.3,21317.1 c -208.4,0 -431.3,-35.9 -658.7,-109.8 -600.5,-195.2 -1300.7,-715.4 -1297.6,-1539.2 1.4,-392.6 112.6,-698.9 330.6,-910.2 420.2,-407.3 1147.5,-387.5 1386.5,-380.7 40.4,1 70.7,1.6 88.7,0.9 158.9,-6.3 482.2,66 722.8,291.6 186.8,175.2 284.9,407.9 291.8,691.7 1.3,53.2 25.1,103.2 65.5,137.7 68.7,59.2 650.8,597.1 103,1356.9 -217,300.9 -592.5,461.1 -1032.6,461.1 m -387.5,-3316.2 c -363.7,0 -1044.3,48.5 -1498.4,488.7 -293,284 -442.4,680 -444.2,1177.2 -3.1,843.5 607.6,1587.8 1555.9,1895.9 865.1,281.2 1693.3,89.6 2110,-488.1 571.6,-792.7 211.7,-1493.3 -102.1,-1803.4 -26,-347.8 -165.4,-648.7 -405.8,-874.1 -305.3,-286.5 -719.2,-403.2 -993.4,-392.5 -13,0.5 -34.5,-0.4 -63.4,-1.1 -41.3,-1.2 -95.1,-2.6 -158.6,-2.6"
         style="fill:#0f227a;fill-opacity:1;fill-rule:nonzero;stroke:none"
         id="path30" /><path
         d="m 13826.1,13065 h 0.5 -0.5 m 3243,-2582.4 0.1,-0.1 -0.1,0.1 m 0.1,-0.3 v 0 0 m -3043.2,2369.4 18.8,-315.8 c 3.2,-55.1 -18.1,-108.9 -58.3,-146.9 -13.9,-13.2 -1391.5,-1328 -1378.1,-2390.3 3.6,-292.3 113.3,-531.4 335.2,-730.9 666.6,-599.2 1921,-188.8 3729.7,1220.4 -671.7,1817.3 -2115.8,2260.4 -2647.3,2363.5 m -342.8,-4222.5 c -391.1,0 -722.1,120.3 -989.5,360.6 -299.8,269.6 -454.3,607.6 -459.1,1004.8 -13.3,1095.6 1142,2315.7 1432,2604.4 l -27,455 c -5.3,88.2 51.9,167.2 135.5,190.8 10,3.2 20,5.8 30.1,7.5 14.1,2.4 28.5,3.2 42.9,2.2 24.1,-1.5 597.5,-41.5 1281.3,-401.5 628.8,-331.1 1474.9,-1007.4 1935.2,-2349.5 5.3,-15.7 7.9,-28.9 9.3,-37.5 16.9,-70.3 -8.3,-144.7 -65.8,-190.2 -914.4,-723.1 -1716.1,-1213.5 -2382.7,-1457.4 -344.6,-126.2 -659.2,-189.2 -942.2,-189.2"
         style="fill:#0f227a;fill-opacity:1;fill-rule:nonzero;stroke:none"
         id="path32" /><path
         d="m 13298,15414.9 c -23.3,0 -47,4.4 -69.9,13.7 -95.7,38.6 -141.9,147.5 -103.3,243.1 17.3,42.9 430.1,1055.2 1010.5,1569.6 77.2,68.3 195.3,61.2 263.8,-16 68.5,-77.3 61.4,-195.4 -15.9,-263.8 -514.1,-455.6 -907.9,-1420 -911.9,-1429.7 -29.4,-72.7 -99.4,-116.9 -173.3,-116.9"
         style="fill:#0f227a;fill-opacity:1;fill-rule:nonzero;stroke:none"
         id="path34" /><path
         d="m 13906.2,16225 h 0.5 -0.5 m -526.6,-439.7 c 24.4,-26 39.7,-40.2 40,-40.5 55.8,-51.7 75.1,-132.5 48.1,-203.7 -8.4,-22.4 -834,-2252.9 380.1,-2817.2 602.3,-280.1 1896.2,694.6 2704.6,2021.1 -792.4,1183.5 -1987,1319.7 -2638.6,1293.2 v 0 c -131.5,-5.3 -229.3,-17.4 -278.5,-24.7 -89.4,-62.5 -174.9,-138.9 -255.7,-228.2 m 700.6,-3482.5 c -138.7,0 -269.6,26.2 -390,82.1 -1361.7,633.1 -782.1,2666.5 -611.8,3175.6 -26.6,29.8 -57.7,66.3 -90.7,108.9 -52.2,67.2 -52.4,161.2 -0.4,228.7 142.5,184.9 302.2,336.1 474.7,449.5 20.4,13.4 43.3,22.7 67.3,27.3 5.8,1.1 146.2,27.7 369.3,36.8 603.5,24.8 2108.2,-78.7 3032.4,-1564.1 36.6,-58.9 37.6,-133.1 2.7,-193 -725.8,-1243.7 -1951.8,-2351.7 -2853.5,-2351.8"
         style="fill:#0f227a;fill-opacity:1;fill-rule:nonzero;stroke:none"
         id="path36" /><path
         d="m 21037.9,17102 c -823.6,0 -2760.9,974.5 -2893,1607.9 -78.9,378.1 -51.7,687.4 -20.4,865.8 -451,202.8 -1903.8,841.1 -2796.4,1063.1 -100.1,24.9 -161.1,126.2 -136.2,226.4 24.9,100.2 126.5,161.1 226.4,136.3 1096.1,-272.5 2923.5,-1113.4 3000.7,-1149 86.3,-39.8 128.9,-138 99.2,-228.2 -0.8,-2.6 -109,-351 -7.4,-838 31.7,-152 430.7,-498.2 1107.8,-840.5 610.5,-308.5 1234.5,-504.2 1484.1,-465.9 555.8,86 913.3,533.7 916.9,538.2 50,63.6 135.3,87.9 211.3,60 l 1330,-488.2 c 96.9,-35.6 146.6,-142.9 111.1,-239.8 -35.6,-96.9 -142.9,-146.8 -239.9,-111.1 l -1211.3,444.6 c -164.7,-169 -539.4,-492.3 -1061,-573.1 -37.1,-5.7 -77.9,-8.5 -121.9,-8.5"
         style="fill:#0f227a;fill-opacity:1;fill-rule:nonzero;stroke:none"
         id="path38" /><path
         d="m 16492,19163.9 c -4,0 -7.9,0.1 -11.9,0.4 -102.8,6.4 -181,94.8 -174.8,197.7 0.4,8.7 22.3,483.6 -265,713.6 -192.2,153.8 -494.2,173.8 -897.5,59.5 -99.3,-28.2 -202.7,29.4 -230.8,128.7 -28.2,99.3 29.5,202.7 128.7,230.8 527.8,149.8 943.5,106.3 1235.5,-129.1 438.9,-353.8 403.8,-999.1 402.1,-1026.4 -6.2,-99 -88.5,-175.2 -186.3,-175.2"
         style="fill:#0f227a;fill-opacity:1;fill-rule:nonzero;stroke:none"
         id="path40" /><path
         d="m 29290.9,20767.9 c -467.1,0 -957.6,199.5 -1134.3,295.2 -90.7,49.2 -124.4,162.6 -75.3,253.4 49.2,90.7 162.6,124.5 253.4,75.3 236.7,-128.2 884.6,-356 1267.7,-197.6 130.2,53.8 210.6,145.3 253.2,288 31.9,106.8 21.1,199.3 -34,291.3 -188.8,314.6 -819.1,502.8 -1046.1,548.8 -101.1,20.5 -166.5,119 -146.1,220.1 20.3,101.1 118.8,167.1 219.9,146.3 99.9,-20.1 985,-210.8 1292.5,-722.4 108.6,-180.7 133.5,-385.1 72,-591.1 -74.2,-248.3 -236.2,-430.3 -468.6,-526.4 -139.9,-57.9 -295.8,-80.9 -454.3,-80.9"
         style="fill:#0f227a;fill-opacity:1;fill-rule:nonzero;stroke:none"
         id="path42" /><path
         d="m 21365.6,22370.9 c 1695.9,-538 3820.3,-860.2 5126.2,-217.2 1305.8,642.9 3303.3,2265.2 4309.6,860.5 1196.7,-1670.4 -2454.3,-5691.1 -7471.1,-5889.3 0,0 -8040.3,-10212.4 -10508.5,-7993.5 -1310.1,1177.8 1039.3,3395.6 1039.3,3395.6 l -317.9,5431.4 c 0,0 -1347.9,97.4 -1352.4,1419.7 -6.1,1813.4 2288.5,5177.5 9174.8,2992.8"
         style="fill:#ea5656;fill-opacity:1;fill-rule:evenodd;stroke:none"
         id="path44" /><path
         d="m 17295.6,23062.1 c -1719,0 -2850,-488.3 -3571.1,-1017.9 -1116.2,-819.8 -1511.2,-1914.7 -1508.7,-2666 4.4,-1284.3 1316,-1393.9 1329.2,-1394.8 l 21.9,-1.6 1.3,-21.9 318.6,-5443.1 -8.5,-8 c -14.4,-13.6 -1442.5,-1375.2 -1428.7,-2509 4.1,-335.5 135,-621.5 389,-849.8 262.2,-235.8 603.6,-337.7 1013.9,-302.2 3106.1,267.2 9395,8212.4 9458.2,8292.6 l 7.1,9 11.5,0.5 c 2101.9,83.1 3731.7,817.1 4728.7,1418.3 1237.6,746.1 2212,1715.2 2673.4,2658.8 345.2,706 362.9,1335.4 49.7,1772.7 -800.8,1117.7 -2277.4,265.2 -3464,-419.7 -290,-167.4 -563.9,-325.5 -814.3,-448.8 -1578.9,-777.3 -4123.8,-108 -5144.8,215.9 -1625.1,515.5 -2963.9,715 -4062.4,715 M 13696.7,8791 c -354.3,0 -653.6,107.9 -891.6,321.8 -264.8,238.1 -401.2,536.3 -405.5,886.4 -13.4,1109.4 1316.3,2422.2 1435.9,2537.9 l -316,5398.7 c -176.1,20.7 -1349.5,205.7 -1353.7,1442.2 -2.6,763.6 397.8,1875.6 1529.2,2706.6 1191.1,874.8 3490.1,1638.7 7678.2,310.1 1015.1,-322 3544.9,-988 5107.6,-218.6 248.8,122.5 522.1,280.2 811.3,447.2 1204.1,695.1 2702.5,1560.1 3529.6,405.5 324.4,-452.9 308.3,-1100.5 -45.4,-1823.8 -465.5,-952 -1446.9,-1928.7 -2692.5,-2679.7 -1000.2,-603 -2634.1,-1339.2 -4741,-1424.9 -118.2,-149.3 -1664,-2092.4 -3550,-4042.2 -2625.1,-2713.9 -4622.2,-4147.2 -5936,-4260.1 -54.5,-4.8 -107.9,-7.1 -160.1,-7.1"
         style="fill:#0f227a;fill-opacity:1;fill-rule:nonzero;stroke:none"
         id="path46" /><path
         d="m 17295.1,22900.7 c -1675.7,0 -2775,-473 -3474.7,-986.9 -1068.5,-784.8 -1445,-1856.1 -1442.7,-2535 3.8,-1129.3 1131.5,-1230.3 1179.5,-1234 93.1,-7.3 167.1,-82.2 172.6,-175.4 l 317.9,-5431.5 c 3.3,-55.1 -18.1,-108.8 -58.2,-146.7 -13.9,-13.2 -1391.3,-1327.7 -1378,-2389.8 3.7,-292.4 113.3,-531.5 335.3,-731 230.8,-207.6 522.4,-293 891.8,-261.3 3036.5,261.1 9282.1,8151.7 9344.9,8231.4 33.8,43 84.8,69 139.5,71.1 3391.5,134.1 6356.2,2132.2 7263,3986.5 317.8,649.9 340.4,1220.8 63.5,1607.3 -715.4,998.5 -2062.7,220.7 -3251.4,-465.6 -292.4,-168.8 -568.6,-328.2 -823.8,-453.8 -1631.6,-803.2 -4225.6,-123 -5265.2,206.8 -1609.9,510.7 -2932.1,707.9 -4014,707.9 M 13695.3,8629.1 c -394.5,0 -729.7,121.8 -998.4,363.3 -299.8,269.6 -454.3,607.6 -459.1,1004.9 -13.4,1095.6 1142,2315.4 1431.8,2603.9 l -303.9,5191.9 c -544.9,98.6 -1358.1,515.5 -1361.8,1584.4 -2.7,803.4 414.9,1970.6 1595.2,2837.5 1221.4,897.2 3570.1,1683.3 7823,334 2075.2,-658.3 3939.5,-743.4 4987.2,-227.7 244,120.2 515,276.6 801.9,442.3 610.9,352.6 1303.3,752.3 1948.3,915.8 783.6,198.5 1387.1,11.4 1793.8,-556.3 360.7,-503.5 349.5,-1210 -31.5,-1989.2 -478.9,-979.2 -1482.8,-1980.5 -2754.4,-2747.2 -1004.6,-605.7 -2638.3,-1343.6 -4743.6,-1444.8 -662.1,-832.9 -6475.7,-8040.5 -9553.1,-8305.2 -59.7,-5.1 -118.2,-7.6 -175.4,-7.6"
         style="fill:#0f227a;fill-opacity:1;fill-rule:nonzero;stroke:none"
         id="path48" /><path
         d="m 14503.9,18322.2 c 0,0 -1135.3,105.1 -1556.6,-980.7 -421.4,-1085.8 353.8,-1734.8 353.8,-1734.8 0,0 -912.6,-2407 475.4,-3052.3 1388,-645.2 4812.3,3607.7 3143.2,5104.4 l -2415.8,663.4"
         style="fill:#ea5656;fill-opacity:1;fill-rule:evenodd;stroke:none"
         id="path50" /><path
         d="m 14099.5,12461.8 c -119.1,0 -231,22.3 -333.5,70 -1332.9,619.6 -570.5,2854.6 -494.1,3067.7 -101.5,94.2 -740,740.7 -347.9,1751.1 423.2,1090.7 1570.8,997.4 1582.2,996.5 l -4.6,-49.8 c -11.1,0.9 -1121.6,90.1 -1531,-964.8 -410.2,-1056.9 339,-1700.2 346.6,-1706.6 l 13.6,-11.4 -6.3,-16.6 c -9,-23.9 -888.4,-2392.8 462.5,-3020.8 729,-339.1 2017.1,720 2792.3,1895.4 692.8,1050.5 1141.7,2434.2 323.7,3167.7 l 33.4,37.2 c 841.6,-754.7 389,-2164.6 -315.3,-3232.4 -696,-1055.4 -1754.6,-1983.1 -2521.6,-1983.2"
         style="fill:#0f227a;fill-opacity:1;fill-rule:nonzero;stroke:none"
         id="path52" /><path
         d="m 14097.7,12300.2 c -141.2,-0.1 -275.4,26.8 -400,84.8 -1357.3,630.9 -785.4,2652.6 -612.8,3170 -295,313.3 -645.9,993.3 -311.8,1854.2 373.6,962.8 1306.6,1140.2 1748,1099.1 102.8,-9.6 178.4,-100.6 168.9,-203.4 -9.5,-102.6 -100.7,-178.4 -202.8,-168.9 -42.5,3.7 -1002.5,73.8 -1365.7,-862.1 -365.4,-941.6 272.9,-1501.1 300.3,-1524.4 60,-51.3 82.1,-135.2 54.1,-209 -8.5,-22.4 -834.6,-2252.3 379.4,-2816.6 571.1,-265.5 1756.8,576.1 2588.9,1837.7 655.7,994.2 1092.1,2293.2 350.7,2958 -76.9,69 -83.3,187.1 -14.4,263.9 68.9,76.9 187.1,83.4 263.9,14.4 918.3,-823.3 453.2,-2317.9 -288.2,-3442 -711.8,-1079.4 -1809.1,-2055.7 -2658.5,-2055.7"
         style="fill:#0f227a;fill-opacity:1;fill-rule:nonzero;stroke:none"
         id="path54" /><path
         d="m 23327.5,16932.4 c -37,0 -74.5,11 -107.1,33.9 -84.5,59.3 -105,175.8 -45.7,260.3 10.7,15.3 1074.3,1532.7 1401.8,2126.5 49.9,90.3 163.5,123.3 253.9,73.3 90.4,-49.8 123.3,-163.5 73.4,-253.9 -337.2,-611.3 -1378.9,-2097.6 -1423.1,-2160.5 -36.4,-51.9 -94.3,-79.6 -153.2,-79.6"
         style="fill:#0f227a;fill-opacity:1;fill-rule:nonzero;stroke:none"
         id="path56" /><path
         d="m 15441.3,21317.1 c -208.4,0 -431.3,-35.9 -658.7,-109.8 -600.5,-195.2 -1300.7,-715.4 -1297.6,-1539.2 1.4,-392.6 112.6,-698.9 330.6,-910.2 420.2,-407.3 1147.5,-387.5 1386.5,-380.7 40.4,1 70.7,1.6 88.7,0.9 158.9,-6.3 482.2,66 722.8,291.6 186.8,175.2 284.9,407.9 291.8,691.7 1.3,53.2 25.1,103.2 65.5,137.7 68.7,59.2 650.8,597.1 103,1356.9 -217,300.9 -592.5,461.1 -1032.6,461.1 m -387.5,-3316.2 c -363.7,0 -1044.3,48.5 -1498.4,488.7 -293,284 -442.4,680 -444.2,1177.2 -3.1,843.5 607.6,1587.8 1555.9,1895.9 865.1,281.2 1693.3,89.6 2110,-488.1 571.6,-792.7 211.7,-1493.3 -102.1,-1803.4 -26,-347.8 -165.4,-648.7 -405.8,-874.1 -305.3,-286.5 -719.2,-403.2 -993.4,-392.5 -13,0.5 -34.5,-0.4 -63.4,-1.1 -41.3,-1.2 -95.1,-2.6 -158.6,-2.6"
         style="fill:#0f227a;fill-opacity:1;fill-rule:nonzero;stroke:none"
         id="path58" /><path
         d="m 13826.1,13065 h 0.5 -0.5 m 3243,-2582.4 0.1,-0.1 -0.1,0.1 m 0.1,-0.3 v 0 0 m -3043.2,2369.4 18.8,-315.8 c 3.2,-55.1 -18.1,-108.9 -58.3,-146.9 -13.9,-13.2 -1391.5,-1328 -1378.1,-2390.3 3.6,-292.3 113.3,-531.4 335.2,-730.9 666.6,-599.2 1921,-188.8 3729.7,1220.4 -671.7,1817.3 -2115.8,2260.4 -2647.3,2363.5 m -342.8,-4222.5 c -391.1,0 -722.1,120.3 -989.5,360.6 -299.8,269.6 -454.3,607.6 -459.1,1004.8 -13.3,1095.6 1142,2315.7 1432,2604.4 l -27,455 c -5.3,88.2 51.9,167.2 135.5,190.8 10,3.2 20,5.8 30.1,7.5 14.1,2.4 28.5,3.2 42.9,2.2 24.1,-1.5 597.5,-41.5 1281.3,-401.5 628.8,-331.1 1474.9,-1007.4 1935.2,-2349.5 5.3,-15.7 7.9,-28.9 9.3,-37.5 16.9,-70.3 -8.3,-144.7 -65.8,-190.2 -914.4,-723.1 -1716.1,-1213.5 -2382.7,-1457.4 -344.6,-126.2 -659.2,-189.2 -942.2,-189.2"
         style="fill:#0f227a;fill-opacity:1;fill-rule:nonzero;stroke:none"
         id="path60" /><path
         d="m 13298,15414.9 c -23.3,0 -47,4.4 -69.9,13.7 -95.7,38.6 -141.9,147.5 -103.3,243.1 17.3,42.9 430.1,1055.2 1010.5,1569.6 77.2,68.3 195.3,61.2 263.8,-16 68.5,-77.3 61.4,-195.4 -15.9,-263.8 -514.1,-455.6 -907.9,-1420 -911.9,-1429.7 -29.4,-72.7 -99.4,-116.9 -173.3,-116.9"
         style="fill:#0f227a;fill-opacity:1;fill-rule:nonzero;stroke:none"
         id="path62" /><path
         d="m 13906.2,16225 h 0.5 -0.5 m -526.6,-439.7 c 24.4,-26 39.7,-40.2 40,-40.5 55.8,-51.7 75.1,-132.5 48.1,-203.7 -8.4,-22.4 -834,-2252.9 380.1,-2817.2 602.3,-280.1 1896.2,694.6 2704.6,2021.1 -792.4,1183.5 -1987,1319.7 -2638.6,1293.2 v 0 c -131.5,-5.3 -229.3,-17.4 -278.5,-24.7 -89.4,-62.5 -174.9,-138.9 -255.7,-228.2 m 700.6,-3482.5 c -138.7,0 -269.6,26.2 -390,82.1 -1361.7,633.1 -782.1,2666.5 -611.8,3175.6 -26.6,29.8 -57.7,66.3 -90.7,108.9 -52.2,67.2 -52.4,161.2 -0.4,228.7 142.5,184.9 302.2,336.1 474.7,449.5 20.4,13.4 43.3,22.7 67.3,27.3 5.8,1.1 146.2,27.7 369.3,36.8 603.5,24.8 2108.2,-78.7 3032.4,-1564.1 36.6,-58.9 37.6,-133.1 2.7,-193 -725.8,-1243.7 -1951.8,-2351.7 -2853.5,-2351.8"
         style="fill:#0f227a;fill-opacity:1;fill-rule:nonzero;stroke:none"
         id="path64" /><path
         d="m 21037.9,17102 c -823.6,0 -2760.9,974.5 -2893,1607.9 -78.9,378.1 -51.7,687.4 -20.4,865.8 -451,202.8 -1903.8,841.1 -2796.4,1063.1 -100.1,24.9 -161.1,126.2 -136.2,226.4 24.9,100.2 126.5,161.1 226.4,136.3 1096.1,-272.5 2923.5,-1113.4 3000.7,-1149 86.3,-39.8 128.9,-138 99.2,-228.2 -0.8,-2.6 -109,-351 -7.4,-838 31.7,-152 430.7,-498.2 1107.8,-840.5 610.5,-308.5 1234.5,-504.2 1484.1,-465.9 555.8,86 913.3,533.7 916.9,538.2 50,63.6 135.3,87.9 211.3,60 l 1330,-488.2 c 96.9,-35.6 146.6,-142.9 111.1,-239.8 -35.6,-96.9 -142.9,-146.8 -239.9,-111.1 l -1211.3,444.6 c -164.7,-169 -539.4,-492.3 -1061,-573.1 -37.1,-5.7 -77.9,-8.5 -121.9,-8.5"
         style="fill:#0f227a;fill-opacity:1;fill-rule:nonzero;stroke:none"
         id="path66" /><path
         d="m 16492,19163.9 c -4,0 -7.9,0.1 -11.9,0.4 -102.8,6.4 -181,94.8 -174.8,197.7 0.4,8.7 22.3,483.6 -265,713.6 -192.2,153.8 -494.2,173.8 -897.5,59.5 -99.3,-28.2 -202.7,29.4 -230.8,128.7 -28.2,99.3 29.5,202.7 128.7,230.8 527.8,149.8 943.5,106.3 1235.5,-129.1 438.9,-353.8 403.8,-999.1 402.1,-1026.4 -6.2,-99 -88.5,-175.2 -186.3,-175.2"
         style="fill:#0f227a;fill-opacity:1;fill-rule:nonzero;stroke:none"
         id="path68" /><path
         d="m 29290.9,20767.9 c -467.1,0 -957.6,199.5 -1134.3,295.2 -90.7,49.2 -124.4,162.6 -75.3,253.4 49.2,90.7 162.6,124.5 253.4,75.3 236.7,-128.2 884.6,-356 1267.7,-197.6 130.2,53.8 210.6,145.3 253.2,288 31.9,106.8 21.1,199.3 -34,291.3 -188.8,314.6 -819.1,502.8 -1046.1,548.8 -101.1,20.5 -166.5,119 -146.1,220.1 20.3,101.1 118.8,167.1 219.9,146.3 99.9,-20.1 985,-210.8 1292.5,-722.4 108.6,-180.7 133.5,-385.1 72,-591.1 -74.2,-248.3 -236.2,-430.3 -468.6,-526.4 -139.9,-57.9 -295.8,-80.9 -454.3,-80.9"
         style="fill:#0f227a;fill-opacity:1;fill-rule:nonzero;stroke:none"
         id="path70" /><path
         d="m 21365.6,22370.9 c 1695.9,-538 3820.3,-860.2 5126.2,-217.2 1305.8,642.9 3303.3,2265.2 4309.6,860.5 1196.7,-1670.4 -2454.3,-5691.1 -7471.1,-5889.3 0,0 -8040.3,-10212.4 -10508.5,-7993.5 -1310.1,1177.8 1039.3,3395.6 1039.3,3395.6 l -317.9,5431.4 c 0,0 -1347.9,97.4 -1352.4,1419.7 -6.1,1813.4 2288.5,5177.5 9174.8,2992.8"
         style="fill:#e8c49c;fill-opacity:1;fill-rule:evenodd;stroke:none"
         id="path72" /><path
         d="m 26775,21725 c 0,0 200,-2800 2750,-2300 l 1150,1650 335.1,935.3 -52.6,701.5 -445,606.1 -637.5,157.1 c 0,0 -1500,-450 -3100,-1750"
         style="fill:#ffffff;fill-opacity:1;fill-rule:nonzero;stroke:none"
         id="path74" /><path
         d="m 16984.2,10721.6 c -96.2,243.4 -205.4,463.1 -323.3,661.1 2107.2,1630.1 4452,4142.7 6081.2,6073 124.1,-44.5 276,-101.8 464.3,-174.5 -8.7,-14.8 -17.4,-29.6 -25.9,-44.4 -119.2,-150.8 -3293.9,-4146.2 -6196.3,-6515.2 m 6425.5,6874.8 c -97.5,51.9 -236,121.6 -392.2,188.2 394.5,475 738.5,906.3 1016.4,1269.7 104.9,137.2 206.5,237 298.6,305.3 113,34.7 224.5,72.1 335,112.3 70.7,-21.2 103,-89.2 78.9,-187.1 -2.7,0.9 -5.5,1.3 -8.3,1.3 -7.8,0 -15.7,-3.4 -21,-10 l -0.3,-0.4 -404.6,-500.7 c -134.1,-167 -267.3,-334.3 -399,-502.7 -131.3,-168.8 -263.7,-336.7 -387.4,-510.6 -39.1,-54.8 -77.9,-109.8 -116.1,-165.3"
         style="fill:#bda495;fill-opacity:1;fill-rule:nonzero;stroke:none"
         id="path76" /><path
         d="m 13355.3,18179.9 c -337.1,82.3 -974.7,350.2 -977.6,1198.9 -1.2,367.1 108.3,848.9 378,1338.1 -43,-435.7 -8.6,-983.9 364.1,-1244.3 35.8,-407 181.9,-737 435.6,-983 45.3,-43.9 92.8,-83.9 142,-120.3 -73.1,-30 -144.5,-65 -213.2,-105.6 -44.2,-25.8 -87.2,-53.8 -128.9,-83.8"
         style="fill:#bda495;fill-opacity:1;fill-rule:nonzero;stroke:none"
         id="path78" /><path
         d="m 13836.3,13068 c -3.5,-0.6 -6.7,-2.3 -10.2,-2.9 l 32.1,-540.2 c 0,0 -2349.6,-2218.3 -1039.5,-3396.1 866.5,-779 2422.4,-12 4073.5,1293.6 -2.3,6.9 -2.1,13.6 -4.4,20.4 -852.5,2485.9 -3051.5,2625.2 -3051.5,2625.2"
         style="fill:#18dde6;fill-opacity:1;fill-rule:evenodd;stroke:none"
         id="path80" /><path
         d="m 16115.3,10974.5 c -140.7,411.7 -545.8,797 -961.8,1102.5 80.5,54.1 158,111.5 233.2,172.2 343.9,-252.4 690.2,-604.5 975.3,-1095.6 -82.7,-61.2 -165,-121 -246.7,-179.1"
         style="fill:#a1f0f4;fill-opacity:1;fill-rule:nonzero;stroke:none"
         id="path82" /><path
         d="m 13693.2,9002.7 c -301.6,0 -546.8,88.2 -746.4,267.7 -187.8,168.8 -295.3,366.1 -326.1,599.9 193,-105.5 413.1,-154.8 656,-154.8 765.9,0 1758.1,490.5 2838.6,1259 30.3,-88.6 48.3,-178.4 51.6,-269 9.1,-252.2 -206.3,-621.9 -664.3,-1037.8 -508.1,-309.7 -955.8,-511.8 -1341.8,-605.7 -110.9,-26.1 -218.4,-43.9 -322.2,-52.9 -49.8,-4.3 -98.3,-6.4 -145.4,-6.4"
         style="fill:#16b8d0;fill-opacity:1;fill-rule:nonzero;stroke:none"
         id="path84" /><path
         d="m 15502.6,9667.7 c 458,415.9 673.4,785.6 664.3,1037.8 -3.3,90.6 -21.3,180.4 -51.6,269 81.7,58.1 164,117.9 246.7,179.1 115.1,-198.3 220.3,-419.3 311.3,-665.4 -420.4,-327.5 -810.7,-601 -1170.7,-820.5"
         style="fill:#84c7dc;fill-opacity:1;fill-rule:nonzero;stroke:none"
         id="path86" /><path
         d="m 21000.3,16959.2 c -734.8,0 -2759.4,1085.4 -2942.9,1634.8 -151,452.3 45.4,719.9 2.9,934.9 -33.6,169.8 -416.2,423.9 -981.7,667.9 0.6,32.6 -0.1,65.7 -2.2,99.3 509.6,-153.8 943.2,-356.9 1168.5,-680.1 86.4,-124 67.6,-172.9 21.9,-291.3 -48.9,-126.9 -115.8,-300.7 -53.3,-600.5 125.1,-599.4 2046.5,-1552.2 2825.2,-1552.1 39.9,0 76.9,2.5 110.4,7.7 362,56 494.5,222.2 600.8,355.8 97.1,121.7 167.1,209.7 411.4,225.2 14.1,0.9 28.6,1.3 43.3,1.3 193.9,0 437.1,-76 656.1,-165.4 -39.1,-46.7 -78.6,-93.6 -118.6,-141 -290.7,104.3 -428.4,138.7 -523.8,138.7 -55.7,0 -97,-11.8 -145.8,-28.2 -300.3,-100.7 -273.8,-485.5 -982.2,-600.4 -27.3,-4.5 -57.4,-6.6 -90,-6.6"
         style="fill:#f5e6d6;fill-opacity:1;fill-rule:nonzero;stroke:none"
         id="path88" /><path
         d="m 23206.4,17281.2 c -188.3,72.7 -340.2,130 -464.3,174.5 40,47.4 79.5,94.3 118.6,141 163.2,-66.6 313,-140.7 418.9,-196.3 -24.9,-39.4 -49.4,-79.1 -73.2,-119.2"
         style="fill:#e3d9d3;fill-opacity:1;fill-rule:nonzero;stroke:none"
         id="path90" /><path
         d="m 30675.2,21497.3 c 40.8,552.3 -67.7,1373.2 -970.4,1716.3 29.8,53.9 58.2,109.3 85,166.1 334.3,-15.9 629.7,-153.3 859.7,-474.3 248.2,-346.5 255.8,-841.2 25.7,-1408.1"
         style="fill:#fefefe;fill-opacity:1;fill-rule:nonzero;stroke:none"
         id="path92" /><path
         d="m 17295.1,22900.7 c -1675.7,0 -2775,-473 -3474.7,-986.9 -1068.5,-784.8 -1445,-1856.1 -1442.7,-2535 3.8,-1129.3 1131.5,-1230.3 1179.5,-1234 93.1,-7.3 167.1,-82.2 172.6,-175.4 l 317.9,-5431.5 c 3.3,-55.1 -18.1,-108.8 -58.2,-146.7 -13.9,-13.2 -1391.3,-1327.7 -1378,-2389.8 3.7,-292.4 113.3,-531.5 335.3,-731 230.8,-207.6 522.4,-293 891.8,-261.3 3036.5,261.1 9282.1,8151.7 9344.9,8231.4 33.8,43 84.8,69 139.5,71.1 3391.5,134.1 6356.2,2132.2 7263,3986.5 317.8,649.9 340.4,1220.8 63.5,1607.3 -715.4,998.5 -2062.7,220.7 -3251.4,-465.6 -292.4,-168.8 -568.6,-328.2 -823.8,-453.8 -1631.6,-803.2 -4225.6,-123 -5265.2,206.8 -1609.9,510.7 -2932.1,707.9 -4014,707.9 M 13695.3,8629.1 c -394.5,0 -729.7,121.8 -998.4,363.3 -299.8,269.6 -454.3,607.6 -459.1,1004.9 -13.4,1095.6 1142,2315.4 1431.8,2603.9 l -303.9,5191.9 c -544.9,98.6 -1358.1,515.5 -1361.8,1584.4 -2.7,803.4 414.9,1970.6 1595.2,2837.5 1221.4,897.2 3570.1,1683.3 7823,334 2075.2,-658.3 3939.5,-743.4 4987.2,-227.7 244,120.2 515,276.6 801.9,442.3 610.9,352.6 1303.3,752.3 1948.3,915.8 783.6,198.5 1387.1,11.4 1793.8,-556.3 360.7,-503.5 349.5,-1210 -31.5,-1989.2 -478.9,-979.2 -1482.8,-1980.5 -2754.4,-2747.2 -1004.6,-605.7 -2638.3,-1343.6 -4743.6,-1444.8 -662.1,-832.9 -6475.7,-8040.5 -9553.1,-8305.2 -59.7,-5.1 -118.2,-7.6 -175.4,-7.6"
         style="fill:#0f227a;fill-opacity:1;fill-rule:nonzero;stroke:none"
         id="path94" /><path
         d="m 23174.7,17226.6 c 105.9,185.6 227.3,361.5 351.1,535.1 123.7,173.9 256.1,341.8 387.4,510.6 131.7,168.4 264.9,335.7 399,502.7 l 404.6,500.7 0.3,0.4 c 9.4,11.6 26.4,13.4 38,4 9.2,-7.4 12.2,-19.7 8.4,-30.2 -74.2,-205.5 -167.9,-401.6 -264,-595.1 -97.6,-192.9 -199.5,-383.1 -306.3,-570 -107,-186.8 -214.6,-373.2 -333,-552.3 -118.1,-179.3 -240,-355.4 -379.5,-520.6 -66.9,-79.1 -185.3,-89 -264.5,-22.2 -70.2,59.4 -85.9,159.2 -41.9,236.3 l 0.4,0.6"
         style="fill:#0f227a;fill-opacity:1;fill-rule:nonzero;stroke:none"
         id="path96" /><path
         d="m 13826.1,13065 h 0.5 -0.5 m 3243,-2582.4 0.1,-0.1 -0.1,0.1 m 0.1,-0.3 v 0 0 m -3043.2,2369.4 18.8,-315.8 c 3.2,-55.1 -18.1,-108.9 -58.3,-146.9 -13.9,-13.2 -1391.5,-1328 -1378.1,-2390.3 3.6,-292.3 113.3,-531.4 335.2,-730.9 666.6,-599.2 1921,-188.8 3729.7,1220.4 -671.7,1817.3 -2115.8,2260.4 -2647.3,2363.5 m -342.8,-4222.5 c -391.1,0 -722.1,120.3 -989.5,360.6 -299.8,269.6 -454.3,607.6 -459.1,1004.8 -13.3,1095.6 1142,2315.7 1432,2604.4 l -27,455 c -5.3,88.2 51.9,167.2 135.5,190.8 10,3.2 20,5.8 30.1,7.5 14.1,2.4 28.5,3.2 42.9,2.2 24.1,-1.5 597.5,-41.5 1281.3,-401.5 628.8,-331.1 1474.9,-1007.4 1935.2,-2349.5 5.3,-15.7 7.9,-28.9 9.3,-37.5 16.9,-70.3 -8.3,-144.7 -65.8,-190.2 -914.4,-723.1 -1716.1,-1213.5 -2382.7,-1457.4 -344.6,-126.2 -659.2,-189.2 -942.2,-189.2"
         style="fill:#0f227a;fill-opacity:1;fill-rule:nonzero;stroke:none"
         id="path98" /><path
         d="m 21038.7,17172.1 c -778.7,-0.1 -2700.1,952.7 -2825.2,1552.1 -62.5,299.8 4.4,473.6 53.3,600.5 45.7,118.4 64.5,167.3 -21.9,291.3 -374.1,536.5 -1322.1,742.1 -2239,940.7 -220.2,47.8 -447.9,97.2 -660.8,150.1 -62.6,15.5 -100.8,78.9 -85.2,141.5 15.5,62.6 79,101 141.5,85.1 209.5,-52 425.4,-98.8 654,-148.3 960.9,-208.3 1954.6,-423.7 2381.2,-1035.5 157.4,-225.7 99.4,-376.2 48.2,-508.9 -44.8,-116.2 -91.1,-236.4 -42.6,-468.7 93.8,-449.9 2066.7,-1455.8 2671.2,-1361.4 271.9,42.1 356.2,147.9 453.8,270.5 108.6,136.3 231.7,290.7 579.3,312.8 535.1,35.2 1374,-457.9 1409.5,-478.9 55.5,-32.8 73.9,-104.4 41.1,-160 -32.8,-55.4 -104.5,-73.9 -160,-41.1 -8.1,4.8 -812.2,476.5 -1275.8,446.9 -244.3,-15.5 -314.3,-103.5 -411.4,-225.2 -106.3,-133.6 -238.8,-299.8 -600.8,-355.8 -33.5,-5.2 -70.5,-7.7 -110.4,-7.7"
         style="fill:#0f227a;fill-opacity:1;fill-rule:nonzero;stroke:none"
         id="path100" /><path
         d="m 29865.5,21567.3 c -211.7,176.3 -619.3,446.2 -1255.7,592.5 120.4,52.1 238.3,119.2 351.8,200 84.4,-57.2 168.3,-106.5 250.9,-153.9 133.7,-73.7 263.9,-144.9 376.1,-226.5 112.3,-80.8 203.1,-171.9 246.6,-263.9 21.6,-46.3 31.8,-93.5 30.6,-145.7 -0.1,-0.8 -0.2,-1.6 -0.3,-2.5"
         style="fill:#fefefe;fill-opacity:1;fill-rule:nonzero;stroke:none"
         id="path102" /><path
         d="m 28429.2,20999.2 c -294.1,194.8 -387.4,428.6 -416.5,570.8 15.5,25.8 34.1,48.7 55.3,68.4 59.5,55.5 138.5,86.1 219.9,86.1 44.2,0 89.1,-9.1 132,-28 477.2,-210.9 816.8,-282.8 1058,-282.8 170.5,0 291.8,35.9 377.9,84 l -1.8,-8.9 c -8,-28 -16.8,-58.8 -29.9,-83.9 -46.9,-106.8 -131.4,-176.4 -246.5,-212.3 -85.2,-26.9 -183.4,-34.8 -286.2,-34.8 -35.9,0 -72.3,1 -108.9,2.4 -142.6,6 -291,24.3 -443.5,42.6 -153.4,18.2 -309.1,38 -478.5,52 l -1.5,0.1 c -0.9,0.1 -1.8,0.1 -2.7,0.1 -7.7,0 -15.3,-2.6 -21.6,-7.9 -14.1,-11.9 -15.8,-33 -3.9,-47.1 62.1,-73.2 133.4,-134.3 210.1,-186.5 -3.9,-4.8 -7.8,-9.5 -11.7,-14.3"
         style="fill:#cfd3e4;fill-opacity:1;fill-rule:nonzero;stroke:none"
         id="path104" /><path
         d="m 28818.6,22536 c 178,42.6 350.4,29.4 517.9,-9.5 166.5,-41.9 328.3,-111.8 482.8,-211 77.3,-49.5 151.1,-110.5 218.9,-183.5 66.9,-73.5 127.8,-161.4 167,-264.5 40.1,-102.3 55.7,-218 44.9,-326.4 -3.5,-26.7 -6.2,-54 -11.4,-80 l -19.4,-76.2 c -16.5,-48.5 -31.8,-95 -55.6,-141.6 -44.6,-92.4 -108.6,-180.7 -187.8,-252.4 -79.2,-71.7 -171.4,-126 -265.3,-163 -189,-74.5 -380.1,-87.1 -558.2,-69.9 -178.8,17.6 -347.3,66.5 -503.6,138.2 -155.1,73.5 -302.5,167.5 -418,303.8 -11.9,14.1 -10.2,35.2 3.9,47.1 7,6 15.8,8.5 24.3,7.8 l 1.5,-0.1 c 169.4,-14 325.1,-33.8 478.5,-52 152.5,-18.3 300.9,-36.6 443.5,-42.6 141.6,-5.5 280.2,-3.9 395.1,32.4 115.1,35.9 199.6,105.5 246.5,212.3 13.1,25.1 21.9,55.9 29.9,83.9 l 8.4,41.3 c 1.9,13.5 1.8,26.6 3.4,39.7 1.2,52.2 -9,99.4 -30.6,145.7 -43.5,92 -134.3,183.1 -246.6,263.9 -112.2,81.6 -242.4,152.8 -376.1,226.5 -133.1,76.4 -269.6,157.6 -406.1,269.1 l -1.5,1.1 c -14.7,12 -16.8,33.6 -4.9,48.2 5,6.1 11.6,10 18.6,11.7"
         style="fill:#0f227a;fill-opacity:1;fill-rule:nonzero;stroke:none"
         id="path106" /><path
         d="m 22289.2,19054.3 c -2686.3,0 -5011.2,1526.3 -6179,3759.4 260.1,40.3 538.9,67.9 837.3,80.1 1242.4,-1737.6 3339.1,-2881.2 5711.8,-2881.2 1567.5,0 3014.4,499.1 4174.3,1338.9 29.7,-138.9 73.8,-306.4 138.6,-484.5 -664.5,-604.4 -1445.3,-1082.1 -2304.7,-1395.1 -15.4,4.6 -32.6,7 -51.4,7 -73.4,0 -171.5,-36.3 -283.6,-119.3 -646.2,-198.5 -1332.2,-305.3 -2043.3,-305.3"
         style="fill:#bda495;fill-opacity:1;fill-rule:nonzero;stroke:none"
         id="path108" /><path
         d="m 26972.2,20867 c -64.8,178.1 -108.9,345.6 -138.6,484.5 303.3,219.6 587.3,462.8 848.3,726.2 103.9,-29.1 209.9,-44 316.6,-45.8 -298.6,-425.6 -643.1,-816.3 -1026.3,-1164.9"
         style="fill:#cfd3e4;fill-opacity:1;fill-rule:nonzero;stroke:none"
         id="path110" /><path
         d="m 24332.5,19359.6 c 112.1,83 210.2,119.3 283.6,119.3 18.8,0 36,-2.4 51.4,-7 -110.5,-40.2 -222,-77.6 -335,-112.3"
         style="fill:#9a8a90;fill-opacity:1;fill-rule:nonzero;stroke:none"
         id="path112" /><path
         d="m 16110.2,22813.7 c -24.8,47.5 -49.1,95.2 -72.9,143.3 251.5,45.4 517.2,79 797.9,99 36.5,-54.5 74.1,-108.8 112.3,-162.2 -298.4,-12.2 -577.2,-39.8 -837.3,-80.1"
         style="fill:#0f227a;fill-opacity:1;fill-rule:nonzero;stroke:none"
         id="path114" /><path
         d="m 26950.4,24712.9 c 371.2,1081.5 1296.7,1743.9 2067.3,1479.4 770.6,-264.4 1094.4,-1355.5 723.3,-2437 -371.1,-1081.5 -1296.7,-1743.9 -2067.3,-1479.4 -770.6,264.4 -1094.4,1355.5 -723.3,2437"
         style="fill:#18dde6;fill-opacity:1;fill-rule:evenodd;stroke:none"
         id="path116" /><path
         d="m 28029.2,22404 c -0.1,0 -0.2,0 -0.2,0 -14.5,0 -29,0.3 -43.5,1 241.8,278.7 460,576.8 651.4,891.2 381.3,132.9 747.4,438.3 1021.1,864.4 -23.1,-114.1 -54.3,-229.4 -93.8,-344.6 -289,-842.3 -933.6,-1412 -1535,-1412"
         style="fill:#19bccd;fill-opacity:1;fill-rule:nonzero;stroke:none"
         id="path118" /><path
         d="m 28636.9,23296.2 c 13.8,22.7 27.3,45.2 40.9,68.1 381.3,151 743.5,480.1 1003.8,931 -6.6,-44.7 -14.5,-89.5 -23.6,-134.7 -273.7,-426.1 -639.8,-731.5 -1021.1,-864.4"
         style="fill:#16b8d0;fill-opacity:1;fill-rule:nonzero;stroke:none"
         id="path120" /><path
         d="m 29701.8,24833.4 c -66.9,142 -156.5,293.4 -276.4,445 20.6,97.8 38.9,196.2 54.9,295.6 123.1,-204 199.2,-458.9 221.5,-740.6"
         style="fill:#a1f0f4;fill-opacity:1;fill-rule:nonzero;stroke:none"
         id="path122" /><path
         d="m 27127.2,24652.2 c -337.1,-982.3 -64.7,-1969 607.2,-2199.6 95.8,-32.9 194.6,-48.6 294.6,-48.6 601.5,-0.1 1246.1,569.7 1535.2,1412 337,982.2 64.7,1969 -607.2,2199.6 -671.9,230.6 -1492.7,-381.1 -1829.8,-1363.4 m 893.1,-2620.5 c -137.8,0 -274.4,21.8 -407.2,67.4 -866.8,297.4 -1243.4,1497.2 -839.4,2674.4 403.9,1177.3 1437.6,1893 2304.6,1595.6 866.8,-297.5 1243.4,-1497.2 839.4,-2674.4 -342,-996.9 -1135.9,-1663 -1897.4,-1663"
         style="fill:#0f227a;fill-opacity:1;fill-rule:nonzero;stroke:none"
         id="path124" /><path
         d="m 15945.8,26568.6 c 0,3517.6 3005.8,6369.2 6713.5,6369.2 3707.7,0 6713.4,-2851.6 6713.4,-6369.2 0,-3517.5 -3005.7,-6369.1 -6713.4,-6369.1 -3707.7,0 -6713.5,2851.6 -6713.5,6369.1"
         style="fill:#e8c49c;fill-opacity:1;fill-rule:evenodd;stroke:none"
         id="path126" /><path
         d="m 29087.7,27640.1 c -94,259.2 -213.4,548.3 -363.6,852 40.2,16.9 80.2,34.3 120,52.2 104.3,-292.3 186.2,-594.3 243.6,-904.2 m -10461.5,3786 c 988.2,737.8 2205.9,1211.3 3533.6,1306.9 -4.2,-72.4 -6.2,-140.5 -6.2,-207 0,-39.6 0.6,-79.1 1.7,-118.5 -1414,-38.9 -2627.5,-476.1 -3529.1,-981.4"
         style="fill:#f5e6d6;fill-opacity:1;fill-rule:nonzero;stroke:none"
         id="path128" /><path
         d="m 22677.8,32937.8 c -106.6,0 -210.1,-10 -315.4,-14.6 -13,-130.8 -21.9,-263.1 -21.9,-397.2 0,-2333.6 2008.8,-4225.3 4486.7,-4225.3 770.8,0 1496.5,182.7 2130.2,505.2 -955.6,2412.4 -3402.9,4131.9 -6279.6,4131.9"
         style="fill:#ea5656;fill-opacity:1;fill-rule:evenodd;stroke:none"
         id="path130" /><path
         d="m 22385.2,32899.3 c -13.4,-140.6 -19.7,-259.7 -19.7,-373.3 0,-2316 2001.5,-4200.3 4461.6,-4200.3 732.7,0 1457.8,170.1 2098.6,492.2 -981.2,2450.3 -3488.9,4094.9 -6247.9,4094.9 -68.7,0 -137.6,-4.3 -204.2,-8.4 -29.5,-1.9 -58.9,-3.7 -88.4,-5.1 m 4441.9,-4623.6 c -2487.7,0 -4511.6,1906.7 -4511.6,4250.3 0,121 7,248 22,399.6 l 2.1,21.6 21.7,1 c 36.5,1.6 72.9,3.9 109.2,6.1 67.4,4.1 137.1,8.5 207.3,8.5 1397.3,0 2736.9,-403 3874.2,-1165.5 1111.2,-745.1 1951,-1776.4 2428.6,-2982.2 l 8.4,-21.2 -20.3,-10.3 c -652.7,-332.2 -1393.3,-507.9 -2141.6,-507.9"
         style="fill:#0f227a;fill-opacity:1;fill-rule:nonzero;stroke:none"
         id="path132" /><path
         d="m 22659.3,20386.4 c -3598.8,0 -6526.6,2773.4 -6526.6,6182.3 0,30.1 0.3,60.5 0.7,90.6 92.3,-24.8 186.5,-36.7 281.4,-36.7 6.2,0 12.3,0 18.5,0.1 6.3,-0.1 12.5,-0.1 18.7,-0.1 1.4,0 2.8,0 4.1,0 535.3,-3037 2744.6,-5469.1 6601.6,-5668.5 101.7,-5.3 202.3,-7.8 302.2,-7.8 1851.7,0 3386.7,886.3 4561.8,1969.4 -1188.9,-1532.8 -3105.1,-2529.3 -5262.4,-2529.3"
         style="fill:#bda495;fill-opacity:1;fill-rule:nonzero;stroke:none"
         id="path134" /><path
         d="m 22659.3,32750.9 c -3598.8,0 -6526.6,-2773.4 -6526.6,-6182.2 0,-3408.9 2927.8,-6182.3 6526.6,-6182.3 3598.7,0 6526.5,2773.4 6526.5,6182.3 0,3408.8 -2927.8,6182.2 -6526.5,6182.2 m 0,-12738.3 c -3804.9,0 -6900.3,2941.1 -6900.3,6556.1 0,3615 3095.4,6556 6900.3,6556 3804.8,0 6900.3,-2941 6900.3,-6556 0,-3615 -3095.5,-6556.1 -6900.3,-6556.1"
         style="fill:#0f227a;fill-opacity:1;fill-rule:nonzero;stroke:none"
         id="path136" /><path
         d="m 18321.2,27168.2 c 458,2330.2 3050.4,4031.6 5666,3487.2 2615.6,-544.5 4790.7,-2842.7 4284.9,-5382.7 -531.5,-2669.4 -3409.6,-3950.3 -6025.2,-3405.9 -2615.5,544.4 -4383.5,2971.1 -3925.7,5301.4"
         style="fill:#ffffff;fill-opacity:1;fill-rule:evenodd;stroke:none"
         id="path138" /><path
         d="m 23440.2,21931.6 c -385.7,0 -774.1,38.8 -1155.2,118.2 -1963.9,408.7 -3456.1,1944.3 -3782.1,3672.9 137.6,-125.8 282.5,-232.7 433.6,-311 131.1,-281 293.7,-554.4 486.8,-816.5 751.6,-1020 1863.4,-1726.9 3130.6,-1990.7 407.5,-84.8 815.5,-125.8 1216.8,-125.8 1510,0 2923.6,580.1 3840.7,1584.2 -304.3,-507.7 -727.4,-945.8 -1257.3,-1296.4 -824.2,-545.3 -1859.9,-834.9 -2913.9,-834.9 m -4744.3,4120.2 c -89.4,86.9 -175.8,183.6 -258.5,286.3 -6.4,263.8 15.3,529.6 67.2,794 9.5,48.2 20,96.2 31.4,144 -10.1,-410.5 44,-822 159.9,-1224.3"
         style="fill:#d2d7e1;fill-opacity:1;fill-rule:nonzero;stroke:none"
         id="path140" /><path
         d="m 23770.7,22478.7 c -401.3,0 -809.3,41 -1216.8,125.8 -1267.2,263.8 -2379,970.7 -3130.6,1990.7 -193.1,262.1 -355.7,535.5 -486.8,816.5 15.3,-8 30.8,-15.7 46.3,-23 11.1,-5.3 22.5,-10.5 34.1,-15.6 639.9,-1319 1940.6,-2385.3 3547.2,-2719.7 404.2,-84.1 809,-124.7 1207,-124.7 1585.2,0 3062.3,644.2 3960.2,1749.8 -37.7,-73.2 -77.7,-145.1 -119.9,-215.6 -917.1,-1004.1 -2330.7,-1584.2 -3840.7,-1584.2 m -4994.3,3498.4 c -27.1,23.9 -54,49 -80.5,74.7 -115.9,402.3 -170,813.8 -159.9,1224.3 18.5,77 39.6,153.6 63.2,229.5 -42.6,-518.2 21.8,-1034.8 177.2,-1528.5"
         style="fill:#cfd3e4;fill-opacity:1;fill-rule:nonzero;stroke:none"
         id="path142" /><path
         d="m 18504.6,27132.1 c -439.5,-2236.9 1291.7,-4564.3 3780.4,-5082.3 1422.1,-296 2943.3,-28.2 4069.1,716.7 925.6,612.4 1525.5,1491.7 1734.8,2542.7 508,2551.2 -1753.4,4666.5 -4139.8,5163.2 -1229.3,256 -2543,-1.2 -3604.3,-705.2 -966.4,-641.2 -1637.1,-1601.6 -1840.2,-2635.1 m 4933.1,-5573.9 c -410.8,0 -823.6,41.3 -1228.8,125.6 -1306.4,272 -2452.7,1001.1 -3227.8,2053.2 -776.1,1053.4 -1075.6,2284.7 -843.2,3467.2 222.2,1130.8 951.3,2178.5 2000.3,2874.4 1143.9,758.9 2560.7,1035.8 3887,759.7 1333.6,-277.6 2579.4,-1008.6 3418,-2005.6 901.2,-1071.5 1260.7,-2348.8 1012.2,-3596.4 -229.2,-1151 -884.5,-2112.9 -1895.1,-2781.5 -884.8,-585.4 -1995.2,-896.6 -3122.6,-896.6"
         style="fill:#0f227a;fill-opacity:1;fill-rule:nonzero;stroke:none"
         id="path144" /><path
         d="m 15377,29117.8 c 371.1,1081.5 1296.6,1743.8 2067.2,1479.4 770.6,-264.4 1094.4,-1355.5 723.3,-2437 -371.1,-1081.5 -1296.6,-1743.9 -2067.2,-1479.5 -770.6,264.5 -1094.4,1355.5 -723.3,2437.1"
         style="fill:#18dde6;fill-opacity:1;fill-rule:evenodd;stroke:none"
         id="path146" /><path
         d="m 18144,28045.3 c 5.7,30.6 10.9,61.3 15.5,91.8 2.7,7.7 5.4,15.4 8,23.1 100.7,293.3 150.2,587.2 153.6,865.2 3.5,-295.8 -45.7,-611.3 -153.7,-926.1 -6.5,-19.1 -16.5,-35.3 -23.4,-54"
         style="fill:#f5e6d6;fill-opacity:1;fill-rule:nonzero;stroke:none"
         id="path148" /><path
         d="m 18159.5,28137.1 c 9.8,64.5 17.1,128.7 22.1,192.1 29.4,111 50.8,221.5 67.4,331.3 -19.1,-38.3 -38.9,-76 -59.4,-112.8 -4.7,726.3 -326.6,1335.5 -876.3,1524.1 -114.3,39.2 -232,58 -350.8,58 -134.9,0 -271.3,-24.3 -405.6,-70.4 -5.3,3.8 -10.7,7.4 -16.2,10.8 -68.4,43.6 -142.7,64.3 -220.1,64.3 -155,0 -322.4,-82.9 -479.3,-231.7 352.9,432.8 809.8,691.6 1251.6,691.6 19,0 38,-0.4 56.9,-1.4 99.8,-5.1 198.6,-23.9 294.9,-56.9 546.3,-187.5 867.8,-790.3 876.4,-1510.7 -3.4,-278 -52.9,-571.9 -153.6,-865.2 -2.6,-7.7 -5.3,-15.4 -8,-23.1"
         style="fill:#a1f0f4;fill-opacity:1;fill-rule:nonzero;stroke:none"
         id="path150" /><path
         d="m 15397.6,29211 c 278,699.5 789.8,1084.3 1143.1,859.2 353.4,-224.9 414.4,-974.4 136.4,-1674 -278,-699.5 -789.8,-1084.3 -1143.1,-859.3 -353.4,225 -414.4,974.5 -136.4,1674.1"
         style="fill:#ffffff;fill-opacity:1;fill-rule:evenodd;stroke:none"
         id="path152" /><path
         d="m 15566.2,27029.1 c -393,470.3 -502.3,1281.9 -225.6,2088.4 42.2,122.9 93.5,239 149,350.4 -3.7,-24.4 -7.1,-48.7 -10.1,-72.9 -29,-58.5 -56.5,-120 -81.9,-184 -125.5,-315.8 -181.9,-641.7 -173.5,-925 -12.6,-493.9 119.9,-940 370,-1245.9 -9.4,-3.7 -18.5,-7.3 -27.9,-11"
         style="fill:#cfd3e4;fill-opacity:1;fill-rule:nonzero;stroke:none"
         id="path154" /><path
         d="m 15764.8,26839.5 c -72.5,54.5 -138.8,118.1 -198.6,189.6 9.4,3.7 18.5,7.3 27.9,11 52.2,-63.9 109.7,-121.8 171.9,-172.7 -0.4,-9.3 -0.8,-18.5 -1.2,-27.9"
         style="fill:#0ca9e4;fill-opacity:1;fill-rule:nonzero;stroke:none"
         id="path156" /><path
         d="m 16414.8,26622.6 c -94.9,0 -189.1,11.9 -281.4,36.7 0.1,3.5 0.1,7.1 0.2,10.6 98.1,-30.1 198.5,-45.5 299.7,-47.2 -6.2,-0.1 -12.3,-0.1 -18.5,-0.1"
         style="fill:#9a8a90;fill-opacity:1;fill-rule:nonzero;stroke:none"
         id="path158" /><path
         d="m 16133.4,26659.3 c -23.5,6.3 -46.8,13.4 -70,21.4 -108.7,37.3 -208.5,91 -298.6,158.8 0.4,9.4 0.8,18.6 1.2,27.9 99.4,-81.1 211.1,-144.4 334.3,-186.7 11.1,-3.8 22.1,-7.4 33.3,-10.8 -0.1,-3.5 -0.1,-7.1 -0.2,-10.6"
         style="fill:#0f227a;fill-opacity:1;fill-rule:nonzero;stroke:none"
         id="path160" /><path
         d="m 16433.3,26622.7 c -101.2,1.7 -201.6,17.1 -299.7,47.2 -11.2,3.4 -22.2,7 -33.3,10.8 -123.2,42.3 -234.9,105.6 -334.3,186.7 -62.2,50.9 -119.7,108.8 -171.9,172.7 -250.1,305.9 -382.6,752 -370,1245.9 10.1,-344.3 116,-625.6 309.9,-749.1 68.4,-43.5 142.7,-64.2 220.1,-64.2 122.9,0 253.6,52.2 380.8,148 61.4,-36.3 126.7,-66.6 195.7,-90.3 114.2,-39.2 231.8,-58 350.5,-58 190.2,0 383.2,48.3 569.4,137.8 62.7,-137.3 143.7,-305.5 240.6,-488 -316.8,-310.9 -691.9,-493.5 -1057.8,-499.5 m 1320.8,806.2 c -73.1,143.7 -134.6,274.4 -183,381.5 236.5,183.5 450.4,434.9 618.5,737.3 0.5,-71.8 -2.1,-144.7 -8,-218.5 -14.7,-55.9 -31.6,-111.9 -50.8,-168 -93.9,-273.6 -223.3,-520.5 -376.7,-732.3"
         style="fill:#16b8d0;fill-opacity:1;fill-rule:nonzero;stroke:none"
         id="path162" /><path
         d="m 18181.6,28329.2 c 5.9,73.8 8.5,146.7 8,218.5 20.5,36.8 40.3,74.5 59.4,112.8 -16.6,-109.8 -38,-220.3 -67.4,-331.3"
         style="fill:#84c7dc;fill-opacity:1;fill-rule:nonzero;stroke:none"
         id="path164" /><path
         d="m 15754.1,27472.7 c -77.4,0 -151.7,20.7 -220.1,64.2 -193.9,123.5 -299.8,404.8 -309.9,749.1 -8.4,283.3 48,609.2 173.5,925 25.4,64 52.9,125.5 81.9,184 -96.3,-775.1 152,-1476.9 655.4,-1774.3 -127.2,-95.8 -257.9,-148 -380.8,-148"
         style="fill:#cfd3e4;fill-opacity:1;fill-rule:nonzero;stroke:none"
         id="path166" /><path
         d="m 15553.7,29057.1 c -337,-982.3 -64.6,-1969.1 607.2,-2199.6 95.8,-32.9 194.6,-48.6 294.6,-48.6 601.5,-0.1 1246.2,569.7 1535.3,1411.9 166.9,486.7 189.7,987.8 64.1,1411.1 -119,400.8 -357.4,680.8 -671.3,788.6 -314.1,107.7 -674.1,33 -1014,-210.2 -359.1,-257 -648.9,-666.6 -815.9,-1153.2 z m 893.1,-2620.5 c -137.8,0 -274.4,21.8 -407.2,67.4 -866.8,297.4 -1243.3,1497.2 -839.4,2674.4 192,559.5 530.1,1034 951.9,1335.8 440.9,315.6 921.4,407.9 1352.8,259.8 431.4,-148.1 754,-515.8 908.3,-1035.7 147.6,-497.2 123.1,-1079.2 -68.9,-1638.7 -342.1,-996.9 -1136,-1663 -1897.5,-1663"
         style="fill:#0f227a;fill-opacity:1;fill-rule:nonzero;stroke:none"
         id="path168" /><path
         d="m 22677.8,32937.8 c -106.6,0 -210.1,-10 -315.4,-14.6 -13,-130.8 -21.9,-263.1 -21.9,-397.2 0,-1490.2 819.2,-2800.3 2056.6,-3552.5 700.3,-425.7 1534.6,-672.8 2430.1,-672.8 770.8,0 1496.5,182.7 2130.2,505.2 -955.6,2412.4 -3402.9,4131.9 -6279.6,4131.9"
         style="fill:#18dde6;fill-opacity:1;fill-rule:evenodd;stroke:none"
         id="path170" /><path
         d="m 28405.1,29062.9 c -349.9,586 -813.9,1190.5 -1439.2,1724.2 -26.5,-18.8 -65.3,-27.9 -113.5,-27.9 -154.5,0 -406.2,93.2 -663.3,257.2 -354.4,226.1 -583.3,500.5 -530,627.8 -281.5,140.2 -576.7,270.8 -900.8,376.7 -780.3,254.8 -1526.5,369.4 -2229.1,385 -1.2,40 -1.8,79.9 -1.8,120.1 0,69.6 2.5,141.5 7.7,219.9 48.5,2.8 95.5,5 142.7,5 2555.5,0 4889.6,-1443.7 5939.1,-3632.5 -71.1,-19.6 -141.6,-38.1 -211.8,-55.5"
         style="fill:#a1f0f4;fill-opacity:1;fill-rule:nonzero;stroke:none"
         id="path172" /><path
         d="m 15571.3,29142 c -263,-661.9 -177.9,-1294.1 63.1,-1447.5 61.8,-39.3 132.5,-45.4 215.8,-18.5 236.7,76.5 493.1,386.3 653.2,789.2 263.1,661.8 177.9,1294 -63.1,1447.4 -61.9,39.5 -132.6,45.6 -215.9,18.6 -236.6,-76.5 -493,-386.3 -653.1,-789.3 z m 182,-1856.5 c -113.7,0 -221.8,31.4 -319.7,93.8 -431.9,274.9 -524,1109.9 -209.7,1900.7 v 0 c 205.8,517.7 536.8,894.1 885.5,1006.8 190.6,61.7 374.4,41.3 531.7,-58.9 431.9,-275 524,-1109.9 209.6,-1900.7 -205.7,-517.7 -536.7,-894.1 -885.4,-1006.8 -72,-23.3 -143,-34.9 -212,-34.9"
         style="fill:#0f227a;fill-opacity:1;fill-rule:nonzero;stroke:none"
         id="path174" /><path
         d="m 22535.1,32745.9 c -5.2,-78.4 -7.7,-150.3 -7.7,-219.9 0,-2226.8 1928.9,-4038.4 4299.7,-4038.4 656.3,0 1306.1,141.3 1890.3,409.7 -994.8,2312.1 -3399,3853.6 -6039.6,3853.6 -47.2,0 -94.2,-2.2 -142.7,-5 m 4292,-4632 c -2577,0 -4673.5,1979.3 -4673.5,4412.1 0,126.5 7.2,258.5 22.8,415.6 9.2,92.5 84.9,164.2 177.7,168.3 35.6,1.6 71,3.8 106.4,6 69.8,4.3 142.1,8.8 217.3,8.8 1429.5,0 2800.3,-412.5 3964.3,-1193 1138.6,-763.4 1999.2,-1820.5 2489,-3057 35.5,-89.7 -3,-191.6 -89,-235.4 -675.4,-343.7 -1441.3,-525.4 -2215,-525.4"
         style="fill:#0f227a;fill-opacity:1;fill-rule:nonzero;stroke:none"
         id="path176" /><path
         d="m 22115.9,27648.6 c 144.6,446.4 505,729.5 805.1,632.3 300.1,-97.2 426.1,-537.8 281.6,-984.2 -144.6,-446.3 -505,-729.4 -805.1,-632.2 -300.1,97.1 -426.1,537.8 -281.6,984.1"
         style="fill:#0f227a;fill-opacity:1;fill-rule:evenodd;stroke:none"
         id="path178" /><path
         d="m 22628.7,27705.8 c 46.8,144.6 163.5,236.3 260.7,204.8 97.2,-31.5 138,-174.2 91.2,-318.7 -46.8,-144.7 -163.6,-236.3 -260.8,-204.9 -97.1,31.5 -137.9,174.3 -91.1,318.8"
         style="fill:#fdfefd;fill-opacity:1;fill-rule:evenodd;stroke:none"
         id="path180" /><path
         d="m 22758.9,26117.1 c 443.2,217.1 2277.1,-472.1 2413.3,-995.1 136.2,-523.1 -865.9,-1716.3 -2179.2,-1217.5 -1151.7,437.5 -839.1,1916.2 -234.1,2212.6"
         style="fill:#0f227a;fill-opacity:1;fill-rule:evenodd;stroke:none"
         id="path182" /><path
         d="m 22480.9,25555.9 c -58.9,0 -115.2,-11.3 -172.3,-19 -203.4,-561.4 -106.5,-1336 677.5,-1633.8 321.6,-122.1 624.3,-141 896.5,-94.9 5.7,57.9 16,114.2 16,173.8 0,869.4 -634.7,1573.9 -1417.7,1573.9"
         style="fill:#d7557a;fill-opacity:1;fill-rule:evenodd;stroke:none"
         id="path184" /><path
         d="m 22327.1,25514.3 c -200.1,-569.7 -76.8,-1305 667.8,-1587.8 287.7,-109.3 578.5,-141.6 864.8,-96.7 1.3,11.3 2.7,22.5 4.1,33.8 5,40.3 9.8,78.4 9.8,118.4 0,854.1 -624.7,1548.9 -1392.7,1548.9 -42.9,0 -84.1,-6.2 -127.7,-12.8 -8.7,-1.3 -17.4,-2.6 -26.1,-3.8 m 1281.5,-1754.1 c -210.4,0 -421.8,39.9 -631.4,119.5 -782.5,297.2 -907.2,1071.8 -692.1,1665.7 l 5.2,14.3 15,2 c 13.5,1.8 27,3.8 40.4,5.9 43.5,6.5 88.5,13.3 135.2,13.3 795.5,0 1442.7,-717.3 1442.7,-1598.9 0,-43.1 -5.2,-84.5 -10.2,-124.6 -2.1,-17.2 -4.2,-34.4 -6,-51.6 l -1.9,-19 -18.8,-3.2 c -92.3,-15.6 -185.1,-23.4 -278.1,-23.4"
         style="fill:#0f227a;fill-opacity:1;fill-rule:nonzero;stroke:none"
         id="path186" /><path
         d="m 22841.1,25949.3 c -259.4,-127.1 -455,-563.8 -436,-973.4 11.4,-246.4 111.5,-690.6 654.3,-896.7 785.9,-298.4 1349,98.4 1554.6,282.9 285.7,256.3 416.2,563.7 377.3,712.8 -29.3,112.7 -279.6,334.3 -759.7,554.6 -621.7,285.3 -1231.8,397.6 -1390.5,319.8 m 777.2,-2348.8 c -229.7,0 -463.2,42.6 -691.7,129.3 -542.1,205.9 -868.3,653.8 -894.9,1228.8 -26.1,563.2 251.2,1133.4 645,1326.4 391.3,191.6 1290.1,-122.7 1710.8,-315.8 392.3,-180 878.2,-465 965.6,-800.1 81.5,-313.2 -115.1,-749.3 -489.4,-1085.2 -354.5,-318 -792.6,-483.4 -1245.4,-483.4"
         style="fill:#0f227a;fill-opacity:1;fill-rule:nonzero;stroke:none"
         id="path188" /><path
         d="m 20852.4,25088.5 c -1.3,0 -2.6,0 -3.9,0 -52.7,1.1 -1297.1,29.7 -1865.7,300.2 -1074.5,511.1 -1850.8,2490.6 -1883.3,2574.6 -37.3,96.2 10.5,204.4 106.7,241.7 96.4,37.1 204.5,-10.5 241.8,-106.8 7.5,-19.1 755,-1924.8 1695.3,-2372 496.2,-236.1 1700.8,-263.7 1712.9,-263.9 103.2,-2.2 185.1,-87.6 183,-190.8 -2.1,-101.8 -85.3,-183 -186.8,-183"
         style="fill:#0f227a;fill-opacity:1;fill-rule:nonzero;stroke:none"
         id="path190" /><path
         d="m 20892.9,25867.4 910.2,-103.7 c 332.5,-37.9 571.3,-338.2 533.4,-670.7 -37.9,-332.6 -338.2,-571.4 -670.7,-533.5 l -910.2,103.7 c -332.5,38 -571.3,338.3 -533.4,670.8 37.9,332.5 338.2,571.3 670.7,533.4"
         style="fill:#ecb35b;fill-opacity:1;fill-rule:evenodd;stroke:none"
         id="path192" /><path
         d="m 20823.9,25846.4 c -291.2,0 -543.1,-219.2 -576.9,-515.2 -36.2,-318.3 193.2,-606.8 511.5,-643.1 l 910.1,-103.7 c 154.3,-17.8 306,25.9 427.5,122.5 121.4,96.6 198,234.7 215.6,388.9 17.5,154.2 -26,306 -122.6,427.4 -96.5,121.5 -234.7,198 -388.8,215.6 l -910.2,103.8 c -22.2,2.5 -44.3,3.8 -66.2,3.8 m 911.8,-1315.9 c -24.2,0 -48.4,1.4 -72.8,4.2 l -910.1,103.7 c -345.7,39.4 -594.8,352.8 -555.4,698.4 39.4,345.7 352.6,594.5 698.3,555.5 l 910.2,-103.8 c 167.5,-19.1 317.5,-102.2 422.4,-234.2 104.9,-131.8 152.1,-296.7 133,-464.2 -19,-167.4 -102.2,-317.4 -234.1,-422.3 -112.7,-89.7 -249.6,-137.3 -391.5,-137.3"
         style="fill:#0f227a;fill-opacity:1;fill-rule:nonzero;stroke:none"
         id="path194" /><path
         d="m 20892.9,25867.4 910.2,-103.7 c 332.5,-37.9 571.3,-338.2 533.4,-670.7 -37.9,-332.6 -338.2,-571.4 -670.7,-533.5 l -910.2,103.7 c -332.5,38 -571.3,338.3 -533.4,670.8 37.9,332.5 338.2,571.3 670.7,533.4"
         style="fill:#18dde6;fill-opacity:1;fill-rule:evenodd;stroke:none"
         id="path196" /><path
         d="m 22235.6,24807.5 c 0.1,4.5 0.2,9 0.2,13.5 53.5,78.6 89.2,170.9 100.7,272 37.9,332.5 -200.9,632.8 -533.4,670.7 l -910.2,103.7 c -19.3,2.2 -38.5,3.5 -57.5,3.9 4,0.1 8,0.1 12.1,0.1 22.5,0 45.3,-1.3 68.2,-3.9 l 911.1,-103.6 c 332.5,-37.9 570.8,-337.7 532.9,-670.2 -12.5,-110.2 -62.3,-203.2 -124.1,-286.2"
         style="fill:#9ea5c9;fill-opacity:1;fill-rule:nonzero;stroke:none"
         id="path198" /><path
         d="m 22235.8,24821 c 0,9.6 -0.2,19.2 -0.6,28.8 43.6,72.3 72.7,154.8 82.9,244.1 11.3,99 -7.9,191.6 -40.9,278.9 -27.7,-86.4 -74.1,-163.5 -134.2,-226.1 -93.6,149.6 -251,256.8 -440.3,278.4 l -909.6,103.7 c -22,2.5 -43.8,3.7 -65.3,3.7 -123.2,0 -237.7,-39.9 -333.6,-107.1 -23.8,60.2 -37.7,125.3 -39.8,192.7 101,141.1 260.3,235.1 438.7,250.9 14,1.2 28.1,2 42.3,2.3 19,-0.4 38.2,-1.7 57.5,-3.9 l 910.2,-103.7 c 332.5,-37.9 571.3,-338.2 533.4,-670.7 -11.5,-101.1 -47.2,-193.4 -100.7,-272"
         style="fill:#a1f0f4;fill-opacity:1;fill-rule:nonzero;stroke:none"
         id="path200" /><path
         d="m 21715.6,24555.5 c -22.8,0 -45.9,1.3 -69.1,4 l -909.6,103.6 c -332.5,37.9 -570.9,339.2 -532.9,671.7 14.2,125.2 73.9,229.4 150.3,318.3 0,-1.8 -0.1,-3.5 -0.1,-5.2 -70.8,-86.9 -118.4,-194.3 -132,-313.9 -37.9,-332.5 200.9,-632.8 533.4,-670.8 l 910.2,-103.7 c 20.3,-2.3 40.5,-3.6 60.5,-3.9 -3.6,0 -7.1,-0.1 -10.7,-0.1"
         style="fill:#0f227a;fill-opacity:1;fill-rule:nonzero;stroke:none"
         id="path202" /><path
         d="m 21726.3,24555.6 c -20,0.3 -40.2,1.6 -60.5,3.9 l -910.2,103.7 c -332.5,38 -571.3,338.3 -533.4,670.8 13.6,119.6 61.2,227 132,313.9 -0.2,-10 -0.1,-19.9 0.2,-29.8 -58,-80.9 -96.7,-177.4 -108.8,-283.5 -2.1,-18.3 0.4,-35.9 0,-54 41.7,56 91.9,105.1 148.6,144.8 72.9,-184.3 239.4,-323.5 450.7,-347.6 l 843.9,-96.3 c 21.1,-2.4 42,-3.6 62.7,-3.6 152.7,0 291.2,64.2 391.5,168.8 54.6,-87.4 87.4,-189.2 92.2,-296.9 -105.8,-175.4 -296.8,-290.4 -508.9,-294.2"
         style="fill:#16b8d0;fill-opacity:1;fill-rule:nonzero;stroke:none"
         id="path204" /><path
         d="m 22235.2,24849.8 c -4.8,107.7 -37.6,209.5 -92.2,296.9 60.1,62.6 106.5,139.7 134.2,226.1 33,-87.3 52.2,-179.9 40.9,-278.9 -10.2,-89.3 -39.3,-171.8 -82.9,-244.1 m -1989.6,430.8 c 0.4,18.1 -2.1,35.7 0,54 12.1,106.1 50.8,202.6 108.8,283.5 2.1,-67.4 16,-132.5 39.8,-192.7 -56.7,-39.7 -106.9,-88.8 -148.6,-144.8"
         style="fill:#84c7dc;fill-opacity:1;fill-rule:nonzero;stroke:none"
         id="path206" /><path
         d="m 20824,25684.5 c -210,0 -391.8,-158.1 -416.1,-371.7 -26.2,-229.6 139.3,-437.7 368.9,-463.9 l 910.1,-103.7 c 111.1,-12.8 220.8,18.7 308.4,88.4 87.6,69.7 142.8,169.3 155.5,280.5 12.7,111.3 -18.7,220.8 -88.3,308.4 -69.7,87.6 -169.4,142.8 -280.6,155.5 l -910.1,103.7 c -16.1,1.9 -32,2.8 -47.8,2.8 z m 912,-1315.9 c -30.3,0 -60.8,1.8 -91.4,5.2 l -910.1,103.7 c -434.4,49.6 -747.5,443.3 -698,877.6 49.6,434.4 442.9,747.8 877.6,698 l 910.2,-103.7 c 210.4,-24 398.8,-128.5 530.7,-294.3 131.8,-165.7 191.2,-372.9 167.2,-583.3 -24,-210.4 -128.5,-398.9 -294.2,-530.7 -141.7,-112.7 -313.6,-172.5 -492,-172.5"
         style="fill:#0f227a;fill-opacity:1;fill-rule:nonzero;stroke:none"
         id="path208" /><path
         d="m 23727.8,17336.5 c 45.1,64.7 89,130.1 132.4,196 115.2,174.3 220.2,355.5 324.4,537.2 8.3,0 16.7,-0.1 25.1,-0.1 1399.7,0.2 2919,669 4134.5,1376.1 173.4,-49.9 365.9,-78.7 579.3,-80.4 -1308.7,-1033.7 -3161.6,-1859.1 -5195.7,-2028.8"
         style="fill:#bda495;fill-opacity:1;fill-rule:nonzero;stroke:none"
         id="path210" /><path
         d="m 28923.5,19365.3 c -213.4,1.7 -405.9,30.5 -579.3,80.4 807.1,469.6 1480.6,956.2 1896.3,1274.9 -329.1,-466.2 -776.7,-928.6 -1317,-1355.3"
         style="fill:#cfd3e4;fill-opacity:1;fill-rule:nonzero;stroke:none"
         id="path212" /><path
         d="m 23505.1,17041.1 c 78.9,95.5 152.2,194.5 222.7,295.4 2034.1,169.7 3887,995.1 5195.7,2028.8 540.3,426.7 987.9,889.1 1317,1355.3 265.9,203.8 426.3,339 449,357.3 -890.1,-1763 -3682.3,-3823.8 -7184.4,-4036.8"
         style="fill:#0f227a;fill-opacity:1;fill-rule:nonzero;stroke:none"
         id="path214" /><path
         d="m 23297.4,17030.7 188.9,267.4 c 3.4,-0.3 6.7,-0.4 10.1,-0.4 39.9,0 78.9,20.5 100.7,57.3 20.1,34.2 20.9,74.4 5.7,108 l 431.1,610.2 c 50.3,-2 100.1,-3.2 150.7,-3.5 -104.2,-181.7 -209.2,-362.9 -324.4,-537.2 -43.4,-65.9 -87.3,-131.3 -132.4,-196 -70.5,-100.9 -143.8,-199.9 -222.7,-295.4 -68.9,-4.2 -138.3,-7.7 -207.7,-10.4"
         style="fill:#0f227a;fill-opacity:1;fill-rule:nonzero;stroke:none"
         id="path216" /><path
         d="m 23496.4,17297.7 c -3.4,0 -6.7,0.1 -10.1,0.4 l 116.5,164.9 c 15.2,-33.6 14.4,-73.8 -5.7,-108 -21.8,-36.8 -60.8,-57.3 -100.7,-57.3"
         style="fill:#0f227a;fill-opacity:1;fill-rule:nonzero;stroke:none"
         id="path218" /><path
         d="m 14503.9,18322.2 c 0,0 -1135.3,105.1 -1556.6,-980.7 -421.4,-1085.8 353.8,-1734.8 353.8,-1734.8 0,0 -912.6,-2407 475.4,-3052.3 1388,-645.2 4812.3,3607.7 3143.2,5104.4 l -2415.8,663.4"
         style="fill:#e8c49c;fill-opacity:1;fill-rule:evenodd;stroke:none"
         id="path220" /><path
         d="m 16656.1,14923.8 c -96.6,136.2 -198.7,258.7 -304.3,368.6 418.7,648 736.9,1343.3 824.4,1782.1 53.8,-191.2 60.9,-393.5 44.1,-593.5 -10.9,-101.7 -26.4,-203 -47.8,-303.9 -23,-100.7 -48.7,-200.9 -82,-299.6 -61.7,-198.4 -144.3,-391.8 -235.5,-581 -61.6,-126.4 -128.1,-250.7 -198.9,-372.7 m -2993.4,1282 124.7,230.6 c -22.7,-67.1 -47.4,-142.7 -72.6,-224.8 -19,-2 -36.4,-3.9 -52.1,-5.8"
         style="fill:#bfa892;fill-opacity:1;fill-rule:nonzero;stroke:none"
         id="path222" /><path
         d="m 16351.8,15292.4 c -11.7,12.1 -23.2,24 -35,35.8 446.9,691.7 776.8,1434.4 827.2,1850.6 11.4,-31.6 21.4,-63.8 30,-96.4 0.7,-2.6 1.5,-5.3 2.2,-7.9 -87.5,-438.8 -405.7,-1134.1 -824.4,-1782.1 m -2750.3,905.1 115.4,213.5 c 89.6,144.5 169.5,264.1 220.6,338.9 l 15.4,-7.3 c -2.5,-6.2 -87.2,-217.2 -181.9,-525.9 -20,-1.6 -38.8,-3.4 -56.2,-5.1 25.2,82.1 49.9,157.7 72.6,224.8 l -124.7,-230.6 c -25,-3.1 -45.5,-6 -61.2,-8.3"
         style="fill:#bda495;fill-opacity:1;fill-rule:nonzero;stroke:none"
         id="path224" /><path
         d="m 15671.5,12505.2 c -135,103.8 -267.9,191.6 -394.5,265.7 103.1,73 202.1,150.4 298.1,230.6 346.9,292.2 657,621.1 929.1,979.2 174.6,227.6 333.4,467.8 473.2,719.4 -275.3,-757.3 -690.3,-1581.4 -1305.9,-2194.9"
         style="fill:#bda495;fill-opacity:1;fill-rule:nonzero;stroke:none"
         id="path226" /><path
         d="m 13449,11564 c -57.2,0 -115.6,1.5 -174.4,4.4 256,347.3 516.7,623.6 640.7,749.3 18.9,-3.5 37.8,-6.7 56.6,-8.9 40.8,-4.6 81.3,-6.8 121.2,-6.8 91.2,0 179.9,11.2 264.6,28.9 98.9,21 192.8,50.5 282.9,85.8 160.3,-96.4 337.5,-210.9 512.9,-339.7 -470.9,-316.3 -1033.5,-513 -1704.5,-513"
         style="fill:#16b8d0;fill-opacity:1;fill-rule:nonzero;stroke:none"
         id="path228" /><path
         d="m 15153.5,12077 c -175.4,128.8 -352.6,243.3 -512.9,339.7 93.7,36.7 183.1,79.7 269.6,126.1 154,-78.6 314.9,-175.1 476.5,-293.6 -75.2,-60.7 -152.7,-118.1 -233.2,-172.2"
         style="fill:#84c7dc;fill-opacity:1;fill-rule:nonzero;stroke:none"
         id="path230" /><path
         d="m 13274.6,11568.4 c -0.5,0 -0.9,0 -1.3,0 257,348.4 518.5,625.1 641.3,749.4 0.2,0 0.4,-0.1 0.7,-0.1 -124,-125.7 -384.7,-402 -640.7,-749.3"
         style="fill:#0f227a;fill-opacity:1;fill-rule:nonzero;stroke:none"
         id="path232" /><path
         d="m 13273.3,11568.4 c -44.9,2.3 -89.9,5.4 -135.7,9.3 -4,0.4 -7.9,0.5 -11.7,0.5 -21.8,0 -40.5,-5.1 -62.8,-7.7 223.2,332 467.3,620.3 641,811.9 6.1,-2.8 12.6,-5.4 19.3,-8 l 48.6,-19.3 c 32.7,-11.8 66.2,-20 99.5,-29.3 14.3,-2.6 28.7,-5.4 43.1,-8 -122.8,-124.3 -384.3,-401 -641.3,-749.4 m 2113.4,680.8 c -161.6,118.5 -322.5,215 -476.5,293.6 36.1,19.3 71.8,39.3 106.9,59.6 89.7,52.7 176.2,109.2 259.9,168.5 126.6,-74.1 259.5,-161.9 394.5,-265.7 -90.5,-90.1 -185.5,-175.9 -284.8,-256"
         style="fill:#0f227a;fill-opacity:1;fill-rule:nonzero;stroke:none"
         id="path234" /><path
         d="m 13261.7,15933.3 c -32.6,45.9 -63,93.5 -89.6,143 -67,124.4 -117.6,257.6 -141.4,396 -48,276.2 -7.6,568.4 106.2,838 13.5,33 28.1,65.3 43.9,96.9 24.5,-257 169.6,-574.7 737,-574.7 25.3,0 51.4,0.6 78.4,1.9 0,0 -21.9,-30.6 -58.7,-84.5 l -29.8,14.1 -190.8,-353 c -41.7,-67.2 -85.5,-139.8 -129.5,-215.7 -15,-2.4 -22.8,-3.9 -22.8,-3.9 -110.8,-72.8 -211.5,-160.2 -302.9,-258.1"
         style="fill:#bda495;fill-opacity:1;fill-rule:nonzero;stroke:none"
         id="path236" /><path
         d="m 13716.9,16411 190.8,353 29.8,-14.1 c -51.1,-74.8 -131,-194.4 -220.6,-338.9"
         style="fill:#9a8a90;fill-opacity:1;fill-rule:nonzero;stroke:none"
         id="path238" /><path
         d="m 14486.7,18136.1 c -9,0.7 -29.9,1.6 -45.9,1.7 -17.2,0.4 -35,0.2 -52.7,-0.3 -35.5,-0.7 -71.4,-3.1 -107.2,-6.5 -71.7,-7 -143.1,-18.5 -213,-34.8 -139.8,-32.9 -274.2,-83.6 -394.8,-155 -243.2,-140.6 -427.2,-364.1 -536.2,-630.9 -113.8,-269.6 -154.2,-561.8 -106.2,-838 23.8,-138.4 74.4,-271.6 141.4,-396 33.5,-62.3 72.9,-121.5 115.2,-178.1 22.1,-27.4 43.7,-55.4 67.3,-80.7 11.4,-13.4 23.3,-25.3 35.1,-37.3 6,-6.2 11.8,-12.1 17.4,-17.1 l 14,-13.1 5.9,-5.4 c 57.5,-53.6 74.2,-134.6 48.9,-204.1 -33.7,-92.3 -66.5,-196.5 -95.2,-296.8 -29.1,-101.5 -55,-204 -77.9,-306.9 -46.7,-205.8 -79.3,-413.8 -97.4,-621.1 -16.7,-207.2 -15.9,-413.9 9.7,-613.3 28.6,-197.9 81.8,-389.6 175.6,-552.2 94.5,-161.3 223.1,-297 388.1,-385.5 l 62,-33 c 10.7,-6.3 20.2,-10.3 29.1,-13.4 l 27.4,-11.1 c 18.6,-6.7 38.4,-11 57.5,-17.1 20.4,-2.9 40.2,-7.8 61,-10.1 83.2,-9.5 173.5,-2.6 265,16.7 184,38.5 369.8,124.2 545,228.9 175.8,105.4 343.2,231 502.9,366.8 318.3,274.2 602.4,592.2 859.6,928.4 254,338.9 482.5,697.5 666.7,1075.7 91.2,189.2 173.8,382.6 235.5,581 33.3,98.7 59,198.9 82,299.6 21.4,100.9 36.9,202.2 47.8,303.9 17.1,202.8 9.5,407.9 -46.3,601.4 -51.1,195.4 -156,374.1 -295.9,530 l -1,1 c -23,25.7 -20.9,65.3 4.8,88.3 22.6,20.3 56,21.1 79.4,3.5 182.8,-137.6 333.5,-329.4 423.2,-548.3 44.7,-109.1 78.7,-223.2 98.5,-339.1 19.9,-115.8 28.5,-233 29.1,-349.5 -0.2,-233.2 -37.3,-462.6 -92,-684.6 -56.8,-222 -134.5,-436.3 -224,-644.4 -183.4,-414.4 -418.2,-801.9 -691.9,-1158.6 -272.1,-358.1 -582.2,-687 -929.1,-979.2 -174.1,-145.4 -358,-281.5 -558,-399.1 -200.5,-115.8 -414.9,-219.5 -659.4,-271.5 -121.8,-25.5 -251.8,-37.4 -385.8,-22.1 -33.4,3.8 -67,11.1 -100.4,17 -33.3,9.3 -66.8,17.5 -99.5,29.3 l -48.6,19.3 c -16.7,6.5 -32.1,13.3 -45.1,20.8 l -82.7,43.8 c -220.9,118.6 -405.2,310.1 -529.3,525.6 -124.5,216.9 -188,454.7 -221.6,687.6 -30.1,233.9 -30.1,466.2 -11.8,694.1 19.8,227.7 55.3,452 105.1,672.1 24.6,110.2 52.2,219.5 83.3,327.9 31.5,109.5 63.9,213.9 105.1,326.7 l 54.8,-209.5 c -13.3,11.2 -21.5,19.2 -30.4,27.6 -9.3,8.5 -17.7,16.8 -25.6,25.1 -16.5,16.6 -32.8,33.3 -47.6,50.4 -31.1,33.5 -58.8,69 -87,104.3 -54,71.9 -103.7,146.9 -146.5,226.1 -85.3,157.9 -149.9,329.4 -181,508.1 -9.5,44.2 -12,89.6 -18,134.4 -2.3,22.5 -5.6,44.9 -6.9,67.4 l -0.8,67.6 c 0.6,45 -2.9,90.5 1.6,135.1 l 13.5,133.7 c 2.8,45.1 15,87.8 23.5,131.4 9.8,43.3 17.5,87.4 29.5,129.8 l 41.1,125.3 c 13.9,41.7 26.7,83.7 45.3,124.2 68.5,163.3 158.5,321.8 277,460.1 116.6,139.3 258.9,258.2 415.3,349.6 156.2,92.2 326.1,155.9 498.9,196.5 86.6,20.2 174.1,34.3 262.4,42.9 44.2,4.1 88.4,7.1 133.3,8.1 22.4,0.6 44.9,0.8 67.9,0.4 24,-0.5 43.3,-0.9 74.4,-3.3 102.9,-8.2 179.7,-98.2 171.5,-201.1 -8.1,-102.9 -98.1,-179.7 -201,-171.5 l -4.9,0.4"
         style="fill:#0f227a;fill-opacity:1;fill-rule:nonzero;stroke:none"
         id="path240" /><path
         d="m 13906.2,16225 c -211.7,-8.6 -341.6,-33.6 -341.6,-33.6 -164.5,-108.1 -306.8,-248.4 -429.3,-407.4 86.5,-111.5 157.7,-176.7 157.7,-176.7 0,0 -912,-2407.7 476,-3052.9 779.8,-362.5 2202.4,822 3003.3,2194.4 -858.6,1380.1 -2232.1,1501.9 -2866.1,1476.2"
         style="fill:#18dde6;fill-opacity:1;fill-rule:evenodd;stroke:none"
         id="path242" /><path
         d="m 14083,12473.9 c -9.9,0 -19.8,0.2 -29.6,0.6 -26.9,0.8 -52.9,3.9 -78.9,7.2 -24.1,3.4 -48.3,6.2 -71.5,11.7 -0.2,0.1 -0.4,0.1 -0.6,0.1 -0.3,0 -0.5,0 -0.8,-0.1 -0.3,0 -0.6,0 -0.9,0 -0.2,0 -0.5,0 -0.7,0 -5.5,1.4 -10.5,4.4 -16,5.9 -38.1,10.2 -75.4,22.9 -111,39.4 -607.3,282.3 -776.5,894.7 -774.1,1495.3 1.4,-598.1 172.8,-1202 770.1,-1479.6 96.6,-44.9 203.1,-66.1 317.1,-66.1 727.6,0 1759.5,863 2469.5,1915.8 l 45.9,60.4 c -380.6,-582.6 -861.9,-1113.8 -1342.2,-1480.5 -129.4,-98.9 -259.7,-182.6 -386.9,-255.5 -19.6,-11.1 -38.9,-21.7 -58.4,-32.1 -104.1,-56.5 -205.5,-100.1 -305.1,-135.8 -40.6,-14.3 -81.6,-30.4 -121.2,-40.9 -30,-8.2 -59.7,-16 -89,-21.9 -74,-14.5 -146.5,-23.9 -215.7,-23.9 m 2660.8,2218.9 c -0.8,1.1 -1.6,2.4 -2.5,3.6 8,13.5 16,26.9 23.9,40.4 0.8,-1.2 1.6,-2.5 2.3,-3.7 -7.8,-13.5 -15.7,-26.9 -23.7,-40.3"
         style="fill:#0f227a;fill-opacity:1;fill-rule:nonzero;stroke:none"
         id="path244" /><path
         d="m 14086.1,12488.3 c -114,0 -220.5,21.2 -317.1,66.1 -597.3,277.6 -768.7,881.5 -770.1,1479.6 0.3,70.8 3,141.5 7.6,211.5 43.9,663 263.1,1260.9 281.8,1311.1 l 261.2,481.8 c 31.8,-1.5 80.5,-4.2 143,-9.2 -247.8,-872.8 -478,-2264.5 534.6,-2401.3 36,-4.9 72.2,-7.3 108.7,-7.3 594.4,0 1254.3,628.6 1789.5,1378.9 239.5,-318.7 279.9,-653.1 147.5,-967.1 l 282.8,371.7 c -710,-1052.8 -1741.9,-1915.8 -2469.5,-1915.8 m 2655.2,2208.1 c -49.3,73.4 -205,294.1 -451.3,543.6 10.8,16.4 21.6,32.9 32.2,49.4 156.5,-159.3 307.2,-335 443,-552.6 -7.9,-13.5 -15.9,-26.9 -23.9,-40.4 m -3181.3,1361.4 67,123.7 c 16.4,2.7 72.5,6.7 113.9,11.6 -9,-29.2 -18.1,-59.4 -27.1,-90.2 -50.9,-13.2 -102,-28.2 -153.8,-45.1"
         style="fill:#16b8d0;fill-opacity:1;fill-rule:nonzero;stroke:none"
         id="path246" /><path
         d="m 16601.5,14464.5 c 49.2,75.3 96.7,151.5 142.3,228.3 9.6,-14.4 14.5,-22.2 14.5,-22.2 l -156.8,-206.1"
         style="fill:#9ea5c9;fill-opacity:1;fill-rule:nonzero;stroke:none"
         id="path248" /><path
         d="m 16125.3,14999.5 c -26.8,35.7 -56.1,71.2 -88,106.5 -651,720.6 -1879.1,885.9 -2344.8,923.2 7.1,25.1 14.1,49.5 21.3,73.7 204.7,53.1 401.3,76.7 589.5,76.7 876.1,0 1564.6,-512.1 1986.7,-939.6 -53.4,-81.1 -108.3,-161.5 -164.7,-240.5 m -2575.8,1038.9 c -27.6,1.2 -42.5,1.5 -42.5,1.5 17.7,6.2 35.4,12.2 53,17.9 l -10.5,-19.4"
         style="fill:#a1f0f4;fill-opacity:1;fill-rule:nonzero;stroke:none"
         id="path250" /><path
         d="m 16555.6,14404.1 c 64.7,96 126.8,193.7 185.7,292.3 0.9,-1.2 1.7,-2.5 2.5,-3.6 -45.6,-76.8 -93.1,-153 -142.3,-228.3 l -45.9,-60.4"
         style="fill:#9ea5c9;fill-opacity:1;fill-rule:nonzero;stroke:none"
         id="path252" /><path
         d="m 16272.8,14032.4 c 132.4,314 92,648.4 -147.5,967.1 56.4,79 111.3,159.4 164.7,240.5 246.3,-249.5 402,-470.2 451.3,-543.6 -58.9,-98.6 -121,-196.3 -185.7,-292.3 l -282.8,-371.7 m -2580.3,1996.8 c -62.5,5 -111.2,7.7 -143,9.2 l 10.5,19.4 c 51.8,16.9 102.9,31.9 153.8,45.1 -7.2,-24.2 -14.2,-48.6 -21.3,-73.7"
         style="fill:#a1e1eb;fill-opacity:1;fill-rule:nonzero;stroke:none"
         id="path254" /><path
         d="m 13124.8,15671.8 c 21.7,79.5 48.4,149.7 79.7,221.1 14.9,35.5 31.2,70.5 48.7,104.8 16.8,34.7 34.2,69.1 53.4,102.6 73.1,135.8 161.4,263.6 254.6,387.5 94.3,123.4 196.3,241.6 308,350.7 113.7,107.3 236,207.2 372.4,282.8 13.2,7.3 29.8,2.6 37.1,-10.6 5.2,-9.4 4.3,-20.4 -1.2,-28.6 l -0.5,-0.7 c -85.3,-125.5 -161.1,-250.5 -231.5,-378.7 -70.1,-128.4 -133.9,-259.3 -196.6,-390.3 -62.1,-131.5 -118,-265.8 -181,-396.1 -61.6,-130 -125.1,-263.8 -196.5,-384.4 l -3.3,-5.6 c -53,-89.4 -168.4,-118.9 -257.8,-66 -74.5,44.1 -107.3,131.8 -85.5,211.5"
         style="fill:#0f227a;fill-opacity:1;fill-rule:nonzero;stroke:none"
         id="path256" /><path
         d="m 13906.2,16225 h 0.5 z m -526.6,-439.7 c 24.4,-26 39.7,-40.2 40,-40.5 55.8,-51.7 75.1,-132.5 48.1,-203.7 -8.4,-22.4 -834,-2252.9 380.1,-2817.2 602.3,-280.2 1896.2,694.6 2704.6,2021.1 -792.4,1183.5 -1987,1319.7 -2638.6,1293.2 v 0 c -131.5,-5.3 -229.2,-17.4 -278.5,-24.7 -89.4,-62.5 -174.9,-138.9 -255.7,-228.2 z m 700.6,-3482.5 c -138.7,0 -269.6,26.2 -390,82.1 -1361.8,633.1 -782.1,2666.5 -611.8,3175.6 -26.6,29.8 -57.6,66.3 -90.7,108.9 -52.2,67.2 -52.4,161.2 -0.4,228.6 142.5,185 302.2,336.2 474.7,449.6 20.4,13.4 43.3,22.7 67.3,27.3 5.8,1.1 146.2,27.7 369.3,36.8 603.5,24.8 2108.2,-78.7 3032.4,-1564.1 36.6,-58.9 37.6,-133.1 2.7,-193 -725.8,-1243.7 -1951.8,-2351.7 -2853.5,-2351.8"
         style="fill:#0f227a;fill-opacity:1;fill-rule:nonzero;stroke:none"
         id="path258" /><path
         d="m 16492.2,19356.9 c 0,0 803.1,679.4 133.3,1608.4 -825.7,1144.9 -3333.4,338.5 -3327.4,-1297.9 5.4,-1500.1 1458.9,-1488.9 1885.4,-1477.7 46.6,1.2 81,2.4 99.8,1.7 350.5,-14.1 1187,255.4 1208.9,1165.5"
         style="fill:#ffffff;fill-opacity:1;fill-rule:evenodd;stroke:none"
         id="path260" /><path
         d="m 16305.3,19362.5 -13.5,104.8 c -4.5,37.1 -11.7,73.9 -17.5,110.5 -14.4,72.7 -31.4,143.4 -54.1,210 -46.8,132.5 -110.4,249.5 -214.1,334 -51.9,41.5 -111.8,78.2 -180.1,105.1 -69.2,23.7 -143.7,46.3 -223.2,55.8 -158.6,24.9 -329.6,18 -503.8,6.4 h -0.4 c -15,-1 -28,10.4 -29,25.4 -0.7,11.2 5.5,21.2 14.8,26 158.7,80.7 330.8,142 518.8,164.8 47.1,4.8 94.6,9.4 143.5,8.2 48.6,2.2 98.1,-4.7 147.9,-10.1 99.2,-16.4 201.1,-46.3 294.5,-98.6 93.6,-51.5 180,-121 249,-203.1 70,-81.7 122.2,-174.7 161,-269.6 38.9,-95.1 64,-193.1 77.2,-291.1 6.8,-49 10.2,-98.1 11.2,-147.4 0.4,-24.6 -0.4,-49.3 -1.5,-74.3 -1.4,-26.3 -3.3,-47.2 -7.7,-80.2 -13.7,-102.2 -107.6,-173.9 -209.8,-160.3 -85.6,11.5 -149.8,79.3 -160.4,161 l -2.8,22.7"
         style="fill:#0f227a;fill-opacity:1;fill-rule:nonzero;stroke:none"
         id="path262" /><path
         d="m 15441.3,21317.1 c -208.4,0 -431.3,-35.9 -658.7,-109.8 -600.5,-195.2 -1300.7,-715.4 -1297.6,-1539.2 1.4,-392.6 112.6,-698.9 330.6,-910.2 420.2,-407.3 1147.5,-387.5 1386.5,-380.7 40.4,1 70.7,1.6 88.7,0.9 158.9,-6.3 482.2,66 722.8,291.6 186.8,175.2 284.9,407.9 291.8,691.7 1.3,53.2 25.1,103.2 65.5,137.7 68.7,59.2 650.8,597.1 103,1356.9 -217,300.9 -592.5,461.1 -1032.6,461.1 m -387.5,-3316.2 c -363.7,0 -1044.3,48.5 -1498.4,488.7 -293,284 -442.4,680 -444.2,1177.2 -3.1,843.5 607.6,1587.8 1555.9,1895.9 865.1,281.2 1693.3,89.6 2110,-488.1 571.6,-792.7 211.7,-1493.3 -102.1,-1803.4 -26,-347.8 -165.4,-648.7 -405.8,-874.1 -305.3,-286.5 -719.2,-403.2 -993.4,-392.5 -13,0.5 -34.5,-0.4 -63.4,-1.1 -41.3,-1.2 -95.1,-2.6 -158.6,-2.6"
         style="fill:#0f227a;fill-opacity:1;fill-rule:nonzero;stroke:none"
         id="path264" /><path
         d="m 15056.5,18374.7 c -314.2,0 -886.7,39.8 -1240.9,383.2 -151,146.4 -250.8,338.4 -298.3,573.1 231,-219.9 652.8,-478.2 1365.5,-483.7 4,-0.1 7.8,-0.1 11.8,-0.1 874.6,0.1 1119.5,763.8 1188,1198.4 60.7,-73.4 103.6,-161.5 137.6,-257.8 22.7,-66.6 39.7,-137.3 54.1,-210 5.8,-36.6 13,-73.4 17.5,-110.5 l 13.5,-104.8 0.1,-1 v -0.1 c -6.9,-283.8 -105,-516.5 -291.8,-691.7 -231.2,-216.8 -538.8,-292 -703.5,-292 -6.6,0 -13.1,0.1 -19.3,0.4 -5.4,0.2 -11.9,0.3 -19.5,0.3 -17.6,0 -40.9,-0.5 -69.2,-1.2 -37.5,-1.1 -87,-2.5 -145.6,-2.5 m 1571.9,1477.5 c -8.7,26.8 -18.5,53.4 -29.3,79.9 -38.8,94.9 -91,187.9 -161,269.6 -28.9,34.4 -60.8,66.5 -95,96.1 174.1,10.4 254.1,137.9 289.1,277.8 119.2,-291.8 78,-539.2 -3.8,-723.4"
         style="fill:#cfd3e4;fill-opacity:1;fill-rule:nonzero;stroke:none"
         id="path266" /><path
         d="m 16305.4,19361.5 -0.1,1 -13.5,104.8 c -4.5,37.1 -11.7,73.9 -17.5,110.5 -14.4,72.7 -31.4,143.4 -54.1,210 -34,96.3 -76.9,184.4 -137.6,257.8 27.2,173 26.6,293.8 26.6,293.8 81.5,-29.4 151.1,-42.3 210.5,-42.3 8,0 15.8,0.2 23.4,0.7 34.2,-29.6 66.1,-61.7 95,-96.1 70,-81.7 122.2,-174.7 161,-269.6 10.8,-26.5 20.6,-53.1 29.3,-79.9 -89.1,-200.5 -226.3,-326.2 -257.5,-353.1 -40.3,-34.5 -64.2,-84.4 -65.5,-137.6"
         style="fill:#0f227a;fill-opacity:1;fill-rule:nonzero;stroke:none"
         id="path268" /><path
         d="m 15064.8,18220.7 c -512.2,0 -1680.8,98.8 -1756,1362.4 35.2,-56.4 101.3,-150.1 208.5,-252.1 47.5,-234.7 147.3,-426.7 298.3,-573.1 354.2,-343.4 926.7,-383.2 1240.9,-383.2 58.6,0 108.1,1.4 145.6,2.5 28.3,0.7 51.6,1.2 69.2,1.2 7.6,0 14.1,-0.1 19.5,-0.3 6.2,-0.3 12.7,-0.4 19.3,-0.4 164.7,0 472.3,75.2 703.5,292 186.8,175.2 284.9,407.9 291.8,691.7 v 0.1 c 1.3,53.2 25.2,103.1 65.5,137.6 31.2,26.9 168.4,152.6 257.5,353.1 81.8,184.2 123,431.6 3.8,723.4 44.7,179.1 15.7,378.5 15.7,378.5 l 10.3,-2.9 c 609.2,-904.4 -163.6,-1562.2 -163.6,-1562.2 -21.3,-888 -818.1,-1165.7 -1182.4,-1165.7 -9.1,0 -17.9,0.2 -26.5,0.5 -4.2,0.2 -9.1,0.3 -14.8,0.3 -19.3,0 -47.1,-0.9 -81.9,-1.7 -34.8,-0.9 -76.7,-1.7 -124.2,-1.7"
         style="fill:#0f227a;fill-opacity:1;fill-rule:nonzero;stroke:none"
         id="path270" /><path
         d="m 26827.1,28487.6 c -2253.2,0 -4107.2,1636.2 -4285.7,3710.1 273,-794.4 868.8,-2044.4 2059.1,-2779.6 656.2,-405.3 1410.9,-608.2 2256.7,-608.2 494.3,0 1019.7,69.3 1574.6,208.1 38.6,-65.7 75.8,-131.1 111.6,-196.1 -537.9,-219.4 -1124.4,-334.3 -1716.3,-334.3"
         style="fill:#19bccd;fill-opacity:1;fill-rule:nonzero;stroke:none"
         id="path272" /><path
         d="m 28543.4,28821.9 c -35.8,65 -73,130.4 -111.6,196.1 68.4,17.1 137.4,35.3 206.8,54.5 27.1,-57.8 53.5,-116.3 78.8,-175.2 -57.4,-26.4 -115.4,-51.5 -174,-75.4"
         style="fill:#87cbd8;fill-opacity:1;fill-rule:nonzero;stroke:none"
         id="path274" /><path
         d="m 26983.2,28312.9 c -103.9,0 -211.2,4 -321.6,12.7 -1997.7,158.6 -4283.6,1409 -4277.1,4401.6 31.9,-129.3 82.4,-312.4 156.9,-529.5 178.5,-2073.9 2032.5,-3710.1 4285.7,-3710.1 591.9,0 1178.4,114.9 1716.3,334.3 58.6,23.9 116.6,49 174,75.4 -25.3,58.9 -51.7,117.4 -78.8,175.2 61.3,17 123,34.9 185,53.5 l 79.8,-300.9 c -109.3,-71.1 -831.6,-512.2 -1920.2,-512.2"
         style="fill:#122677;fill-opacity:1;fill-rule:nonzero;stroke:none"
         id="path276" /><path
         d="m 26857.2,28809.9 c -845.8,0 -1600.5,202.9 -2256.7,608.2 -1190.3,735.2 -1786.1,1985.2 -2059.1,2779.6 -5.5,65 -9.5,130.4 -11.8,196.2 238.4,-765.2 824.9,-2147.7 2097.6,-2933.5 647.8,-400.1 1393.9,-600.4 2230.2,-600.4 485.9,0 1002.2,67.6 1547.7,202.9 9,-15 17.8,-30 26.7,-44.9 -554.9,-138.8 -1080.3,-208.1 -1574.6,-208.1"
         style="fill:#16b8d0;fill-opacity:1;fill-rule:nonzero;stroke:none"
         id="path278" /><path
         d="m 28431.8,29018 c -8.9,14.9 -17.7,29.9 -26.7,44.9 70.2,17.4 140.7,35.9 211.8,55.5 7.3,-15.3 14.5,-30.5 21.7,-45.9 -69.4,-19.2 -138.4,-37.4 -206.8,-54.5"
         style="fill:#84c7dc;fill-opacity:1;fill-rule:nonzero;stroke:none"
         id="path280" /><path
         d="m 22345.3,33118 2.3,62 10.5,-61.5 c -4.4,-0.2 -8.4,-0.4 -12.8,-0.5"
         style="fill:#cfd3e4;fill-opacity:1;fill-rule:nonzero;stroke:none"
         id="path282" /><path
         d="m 22345,33109.3 0.3,8.7 c 4.4,0.1 8.4,0.3 12.8,0.5 l 1.4,-8.3 c -1.8,-0.1 -3.6,-0.2 -5.4,-0.3 -3,-0.1 -6.1,-0.3 -9.1,-0.6"
         style="fill:#0f227a;fill-opacity:1;fill-rule:nonzero;stroke:none"
         id="path284" /><path
         d="m 26981.3,28262.9 c -104.7,0 -212.6,4.1 -323.7,12.9 -1099.1,87.2 -2161.5,507.5 -2914.7,1153.1 -986.6,845.5 -1459,2026.4 -1404.2,3509.8 l 6.3,170.6 c 3,0.3 6.1,0.5 9.1,0.6 1.8,0.1 3.6,0.2 5.4,0.3 l 28.8,-168.2 c 1.2,-7 39.5,-221.2 141.3,-548.1 2.3,-65.8 6.3,-131.2 11.8,-196.2 -74.5,217.1 -125,400.2 -156.9,529.5 -6.5,-2992.6 2279.4,-4243 4277.1,-4401.6 110.4,-8.7 217.7,-12.7 321.6,-12.7 1088.6,0 1810.9,441.1 1920.2,512.2 l -79.8,300.9 c -62,-18.6 -123.7,-36.5 -185,-53.5 -7.2,15.4 -14.4,30.6 -21.7,45.9 71.8,19.8 144.2,40.8 216.9,62.9 l 24.8,7.6 102.2,-385.1 -14.3,-10 c -8.2,-5.8 -769.1,-530.9 -1963.3,-530.9 -0.6,0 -1.3,0 -1.9,0"
         style="fill:#0f227a;fill-opacity:1;fill-rule:nonzero;stroke:none"
         id="path286" /><path
         d="m 25615.9,26448.6 c 144.6,446.4 505,729.5 805.1,632.3 300.1,-97.2 426.1,-537.8 281.6,-984.2 -144.6,-446.3 -505,-729.4 -805.1,-632.2 -300.1,97.1 -426.1,537.8 -281.6,984.1"
         style="fill:#0f227a;fill-opacity:1;fill-rule:evenodd;stroke:none"
         id="path288" /><path
         d="m 26128.7,26505.8 c 46.8,144.6 163.5,236.3 260.7,204.8 97.2,-31.5 138,-174.2 91.2,-318.7 -46.8,-144.7 -163.6,-236.3 -260.8,-204.9 -97.1,31.5 -137.9,174.3 -91.1,318.8"
         style="fill:#fdfefd;fill-opacity:1;fill-rule:evenodd;stroke:none"
         id="path290" /><path
         d="m 28912.6,19217.7 c -602.3,0 -1104.5,170.6 -1496.9,509.2 -775.8,669.4 -825.7,1745.5 -827.4,1790.9 -4,103.1 76.4,190 179.5,194 103.6,2.3 189.8,-76.4 193.9,-179.3 0.6,-12.2 48.7,-964.1 700.3,-1524.5 390.9,-336.1 926.9,-469.8 1592.8,-397.2 102.8,11.4 194.8,-62.9 206,-165.6 11.2,-102.6 -62.9,-194.8 -165.6,-206 -131.6,-14.3 -259.2,-21.5 -382.6,-21.5"
         style="fill:#0f227a;fill-opacity:1;fill-rule:nonzero;stroke:none"
         id="path292" /><path
         d="m 14980.2,8932.3 -3047,-3088 2769.8,3338.8 c 66,79.5 183.9,90.5 263.4,24.5 79.5,-65.9 90.5,-183.8 24.6,-263.4 -3.4,-4 -7.2,-8.2 -10.8,-11.9"
         style="fill:#0f227a;fill-opacity:1;fill-rule:nonzero;stroke:none"
         id="path294" /><path
         d="M 13696.1,12549.2 7871.69,5844.3 13408.8,12788.4 c 64.4,80.7 182,93.9 262.7,29.6 80.7,-64.4 94,-182 29.6,-262.7 -1.5,-1.9 -3.5,-4.3 -5,-6.1"
         style="fill:#0f227a;fill-opacity:1;fill-rule:nonzero;stroke:none"
         id="path296" /><path
         d="m 12989.2,16268.6 -4775.69,-4845.5 4502.39,5100.4 c 68.3,77.4 186.5,84.8 263.9,16.5 77.4,-68.4 84.7,-186.5 16.4,-263.9 -2.1,-2.5 -4.8,-5.3 -7,-7.5"
         style="fill:#0f227a;fill-opacity:1;fill-rule:nonzero;stroke:none"
         id="path298" /><path
         d="m 26319.9,17459.2 -4709.5,-5404.2 4421.4,5642.3 c 63.7,81.3 181.2,95.5 262.5,31.8 81.2,-63.6 95.5,-181.2 31.8,-262.4 -1.9,-2.4 -4.2,-5.2 -6.2,-7.5"
         style="fill:#0f227a;fill-opacity:1;fill-rule:nonzero;stroke:none"
         id="path300" /><path
         d="m 24883.1,17168.1 -2223.9,-2351.5 1938,2592.2 c 61.9,82.8 179.2,99.8 262,37.9 82.8,-61.9 99.8,-179.2 37.9,-262.1 -4.4,-5.7 -9.1,-11.3 -14,-16.5"
         style="fill:#0f227a;fill-opacity:1;fill-rule:nonzero;stroke:none"
         id="path302" /><path
         d="m 13225.6,13260.2 -3026.7,-3218.5 2743.8,3462.8 c 64.2,81 181.8,94.6 262.8,30.5 81,-64.2 94.6,-181.8 30.4,-262.8 -3.2,-4.1 -6.8,-8.3 -10.3,-12"
         style="fill:#0f227a;fill-opacity:1;fill-rule:nonzero;stroke:none"
         id="path304" /><path
         d="M 13819.1,8696.2 12691.8,7640.1 13532.4,8936 c 56.6,87.2 173.2,112.1 260.4,55.5 87.2,-56.6 112.1,-173.1 55.5,-260.4 -8.3,-12.8 -18.7,-24.9 -29.2,-34.9"
         style="fill:#0f227a;fill-opacity:1;fill-rule:nonzero;stroke:none"
         id="path306" /><path
         d="m 13431.6,17757.1 -2461.8,-2247.8 2194.7,2509.2 c 68.1,77.8 186.3,85.7 264.1,17.7 77.8,-68.1 85.7,-186.3 17.7,-264.1 -4.6,-5.3 -9.6,-10.4 -14.7,-15"
         style="fill:#0f227a;fill-opacity:1;fill-rule:nonzero;stroke:none"
         id="path308" /></g></g></svg>
